<svg id="Layer_1" data-name="Layer 1" xmlns="http://www.w3.org/2000/svg" viewBox="0 0 2628.59 1672.26"><defs><style>.cls-1{fill:#9bc1f9;}.cls-2{fill:#dd513a;}.cls-20,.cls-3{fill:#f47458;}.cls-14,.cls-4{fill:#cae1f9;}.cls-5{fill:#adaeb5;}.cls-6{fill:#f7cc7f;}.cls-7{fill:#544c60;}.cls-8{fill:#eab054;opacity:0.3;}.cls-11,.cls-14,.cls-20,.cls-8{isolation:isolate;}.cls-9{fill:#fff;}.cls-10{fill:#13375b;}.cls-11{fill:#3cb4c5;opacity:0.2;}.cls-12{fill:#e25a44;}.cls-13{fill:#eb9288;}.cls-14{opacity:0.6;}.cls-15{fill:#466eb6;}.cls-16{fill:#07345a;}.cls-17{fill:#3c8f7c;}.cls-18{fill:#f7a491;}.cls-19{fill:#184655;}.cls-20{opacity:0.5;}.cls-21{fill:#edab5c;}.cls-22{fill:#b75742;}.cls-23{fill:#50bfa5;}.cls-24{fill:#3c5f9e;}.cls-25{fill:#c9f2ea;}.cls-26{fill:#f48c7f;}.cls-27{fill:#86b1f2;}.cls-28{fill:#f27a6a;}.cls-29{fill:#96d9c9;}</style></defs><path class="cls-1" d="M1161.71,1157.76v-3c7.62,0,15.3-.36,22.83-1l.27,2.94C1177.19,1157.4,1169.42,1157.76,1161.71,1157.76Zm-23.09-1c-7.66-.69-15.37-1.75-22.9-3.15l.53-2.9c7.45,1.38,15.07,2.43,22.64,3.11Zm69.09-3.2-.54-2.9c7.46-1.4,14.94-3.15,22.24-5.23l.81,2.84C1222.83,1150.33,1215.26,1152.11,1207.71,1153.52Zm-114.51-5.21c-7.38-2.09-14.76-4.55-21.93-7.33l1.07-2.75c7.08,2.74,14.37,5.18,21.67,7.24Zm158.94-7.43-1.07-2.75c7.07-2.75,14.1-5.86,20.89-9.25l1.32,2.64C1266.41,1135,1259.3,1138.1,1252.14,1140.88Zm-202-9.23c-6.87-3.43-13.67-7.21-20.2-11.26l1.55-2.51c6.46,4,13.18,7.74,20,11.12Zm243.35-11.41-1.55-2.51c6.44-4,12.77-8.35,18.83-12.93l1.78,2.35C1306.4,1111.79,1300,1116.2,1293.46,1120.24Zm-282.63-12.92c-6.13-4.63-12.11-9.6-17.79-14.77l2-2.18c5.62,5.11,11.54,10,17.59,14.59Zm319.47-15-2-2.18c5.61-5.12,11-10.56,16.16-16.17l2.18,2C1341.48,1081.69,1336,1087.19,1330.3,1092.37Zm-353.63-16.16c-5.18-5.67-10.16-11.65-14.79-17.76l2.35-1.79c4.58,6,9.5,12,14.62,17.56Zm384.76-18-2.36-1.78c4.58-6.06,8.93-12.4,12.93-18.85l2.51,1.56C1370.46,1045.68,1366.06,1052.1,1361.43,1058.23Zm-412.66-18.84c-4-6.52-7.85-13.31-11.28-20.18l2.64-1.32c3.39,6.79,7.14,13.49,11.15,19.94Zm437-20.43-2.64-1.32c3.38-6.79,6.49-13.83,9.23-20.9l2.76,1.07C1392.35,1005,1389.21,1012.08,1385.78,1019ZM928.12,998.08c-2.79-7.16-5.27-14.54-7.37-21.92l2.84-.81c2.08,7.3,4.53,14.58,7.28,21.66Zm474.35-22.2-2.84-.81c2.07-7.29,3.82-14.78,5.21-22.24l2.9.54C1406.34,960.92,1404.56,968.5,1402.47,975.88Zm-487-22.23c-1.41-7.53-2.48-15.24-3.19-22.89l2.94-.28c.7,7.57,1.76,15.19,3.15,22.63Zm495.46-23.18-2.94-.27c.68-7.54,1-15.22,1-22.83v-.57h3v.58C1412,915.07,1411.6,922.84,1410.91,930.47ZM914.13,907.66h-3v-.29c0-7.6.35-15.27,1-22.8l2.94.26c-.68,7.45-1,15-1,22.54ZM1407.91,884c-.71-7.57-1.78-15.18-3.18-22.63l2.9-.54c1.42,7.53,2.5,15.24,3.22,22.89ZM918.25,862.2l-2.9-.54c1.39-7.55,3.16-15.13,5.24-22.52l2.84.81C921.37,847.25,919.63,854.73,918.25,862.2Zm481.22-23.08c-2.09-7.3-4.54-14.58-7.3-21.65l2.75-1.07c2.79,7.15,5.28,14.52,7.39,21.91ZM930.66,818.27l-2.75-1.06c2.76-7.16,5.9-14.28,9.32-21.16l2.65,1.31C936.49,804.16,933.4,811.2,930.66,818.27Zm452.22-21.67c-3.4-6.78-7.16-13.49-11.17-19.93l2.5-1.56c4.07,6.52,7.87,13.3,11.31,20.16ZM951,777.39l-2.51-1.55c4-6.53,8.43-13,13.06-19.09l2.35,1.78C959.32,764.59,955,770.94,951,777.39Zm407.75-19.53c-4.59-6.05-9.52-12-14.65-17.55l2.18-2c5.19,5.66,10.17,11.64,14.82,17.75ZM978.48,740.93l-2.19-2c5.17-5.68,10.67-11.19,16.33-16.38l2,2.18C989,729.87,983.59,735.32,978.48,740.93Zm349.42-16.75c-5.62-5.1-11.54-10-17.6-14.57l1.77-2.36c6.14,4.62,12.13,9.58,17.82,14.75Zm-315.73-14.06-1.79-2.35c6.12-4.65,12.53-9.06,19.05-13.12l1.56,2.51C1024.55,701.17,1018.22,705.53,1012.17,710.12Zm279.26-13.41c-6.46-4-13.18-7.72-20-11.1l1.32-2.64c6.87,3.41,13.67,7.19,20.21,11.23ZM1050.92,686l-1.32-2.63c6.87-3.44,14-6.6,21.13-9.39l1.07,2.75C1064.73,679.48,1057.71,682.6,1050.92,686Zm199.62-9.58c-7.09-2.73-14.38-5.15-21.68-7.21l.8-2.84c7.39,2.08,14.77,4.54,21.94,7.3Zm-157.09-7-.81-2.84c7.38-2.11,15-3.89,22.5-5.31l.55,2.9C1108.23,665.58,1100.75,667.35,1093.45,669.43ZM1206.6,664c-7.45-1.37-15.06-2.41-22.63-3.09l.26-2.94c7.66.68,15.37,1.74,22.91,3.12Zm-68.29-3-.27-2.94c7.62-.71,15.39-1.08,23.09-1.09v3C1153.53,660,1145.85,660.32,1138.31,661Z" transform="translate(-107.92 -177)"/><path class="cls-1" d="M1825.66,915.74v-3c7.61,0,15.29-.36,22.82-1l.27,2.94C1841.13,915.38,1833.36,915.74,1825.66,915.74Zm-23.1-1c-7.66-.7-15.36-1.76-22.9-3.15l.54-2.91c7.45,1.38,15.06,2.43,22.63,3.12Zm69.09-3.21-.54-2.9c7.46-1.39,15-3.15,22.24-5.22l.81,2.83C1886.78,908.32,1879.2,910.09,1871.65,911.5Zm-114.5-5.2c-7.39-2.09-14.77-4.56-21.93-7.33l1.06-2.76c7.08,2.74,14.37,5.18,21.67,7.25Zm158.93-7.44-1.06-2.75c7.07-2.75,14.1-5.86,20.89-9.25l1.31,2.64C1930.35,892.94,1923.24,896.08,1916.08,898.86Zm-202-9.23c-6.87-3.42-13.67-7.21-20.21-11.25l1.56-2.52c6.46,4,13.17,7.75,20,11.13Zm243.35-11.4-1.56-2.51c6.44-4,12.78-8.35,18.84-12.93l1.78,2.35C1970.34,869.78,1963.93,874.18,1957.41,878.23ZM1674.78,865.3c-6.13-4.62-12.12-9.59-17.8-14.76l2-2.19c5.61,5.12,11.53,10,17.58,14.6Zm319.47-14.95-2-2.18c5.61-5.12,11-10.55,16.15-16.16l2.19,2C2005.42,839.67,1999.92,845.17,1994.25,850.35ZM1640.62,834.2c-5.19-5.67-10.17-11.65-14.8-17.77l2.35-1.79c4.58,6.05,9.5,12,14.63,17.57Zm-27.9-36.82c-4.06-6.53-7.86-13.32-11.29-20.18l2.64-1.32c3.39,6.78,7.15,13.49,11.16,19.94Zm437-20.44-2.64-1.31c3.39-6.8,6.5-13.83,9.24-20.91l2.75,1.07C2056.3,763,2053.15,770.07,2049.72,776.94Zm-457.66-20.88c-2.78-7.16-5.26-14.53-7.37-21.92l2.84-.81c2.08,7.3,4.53,14.59,7.28,21.66Zm474.35-22.2-2.84-.8c2.07-7.3,3.83-14.78,5.21-22.25l2.9.54C2070.28,718.91,2068.51,726.48,2066.41,733.86Zm-487-22.22c-1.41-7.54-2.49-15.24-3.19-22.9l2.93-.27c.7,7.57,1.77,15.18,3.16,22.63Zm495.45-23.19-2.94-.27c.69-7.53,1-15.21,1-22.82v-.58h3v.58C2075.9,673.06,2075.55,680.83,2074.85,688.45Zm-496.77-22.8h-2.95v-.29c0-7.6.34-15.28,1-22.81l2.94.27c-.67,7.44-1,15-1,22.54v.29ZM2071.86,642c-.71-7.56-1.78-15.18-3.18-22.62l2.9-.55c1.41,7.54,2.5,15.24,3.21,22.89Zm-489.67-21.78-2.9-.53c1.39-7.56,3.16-15.13,5.25-22.52l2.84.8C1585.31,605.23,1583.57,612.72,1582.19,620.18Zm481.23-23.08c-2.09-7.29-4.55-14.57-7.31-21.64l2.75-1.08c2.79,7.16,5.28,14.53,7.39,21.91ZM1594.6,576.26l-2.75-1.06c2.77-7.17,5.9-14.29,9.32-21.17l2.65,1.31C1600.44,562.14,1597.34,569.18,1594.6,576.26Zm20.33-40.89-2.51-1.55c4-6.53,8.43-13,13.06-19.08l2.36,1.77C1623.26,522.58,1618.92,528.92,1614.93,535.37Zm407.75-19.53c-4.59-6-9.51-11.94-14.64-17.54l2.17-2c5.19,5.67,10.18,11.64,14.82,17.76Zm-380.26-16.92-2.18-2c5.17-5.68,10.66-11.19,16.33-16.37l2,2.18C1653,487.86,1647.53,493.3,1642.42,498.92Zm349.43-16.75c-5.62-5.11-11.55-10-17.61-14.58l1.78-2.36c6.13,4.62,12.13,9.59,17.81,14.75ZM1676.11,468.1l-1.78-2.35c6.12-4.64,12.53-9.05,19-13.11l1.56,2.5C1688.49,459.15,1682.16,463.51,1676.11,468.1Zm279.27-13.4c-6.47-4-13.19-7.73-20-11.1l1.31-2.65c6.88,3.42,13.68,7.2,20.22,11.24ZM1714.87,444l-1.33-2.64c6.87-3.44,14-6.6,21.13-9.38l1.07,2.75C1728.68,437.46,1721.65,440.58,1714.87,444Zm199.61-9.58c-7.08-2.73-14.38-5.16-21.68-7.22l.8-2.84c7.39,2.08,14.77,4.54,21.94,7.3Zm-157.08-7-.81-2.84c7.38-2.11,15-3.9,22.5-5.31l.54,2.9C1772.17,423.57,1764.69,425.33,1757.4,427.42ZM1870.55,422c-7.45-1.37-15.07-2.41-22.64-3.09l.26-2.94c7.66.69,15.37,1.74,22.91,3.13Zm-68.29-3-.27-2.94c7.62-.71,15.39-1.08,23.09-1.09v2.95C1817.47,417.94,1809.79,418.3,1802.26,419Z" transform="translate(-107.92 -177)"/><path class="cls-1" d="M532.14,1601v-5c12.9,0,25.9-.61,38.65-1.78l.46,5C558.34,1600.38,545.18,1601,532.14,1601ZM493,1599.24c-13-1.18-26-3-38.78-5.34l.91-4.91c12.61,2.33,25.5,4.11,38.33,5.27Zm117-5.43-.92-4.91c12.64-2.35,25.31-5.33,37.66-8.84l1.37,4.8C635.63,1588.42,622.8,1591.43,610,1593.81ZM416.13,1585c-12.51-3.54-25-7.72-37.14-12.41l1.8-4.66c12,4.63,24.34,8.76,36.7,12.26Zm269.12-12.59-1.81-4.66c12-4.65,23.88-9.91,35.37-15.66l2.23,4.48C709.41,1562.38,697.37,1567.71,685.25,1572.41Zm-342.09-15.63c-11.63-5.8-23.14-12.21-34.21-19.06l2.63-4.25c10.94,6.77,22.31,13.11,33.81,18.84Zm412.06-19.31-2.63-4.25c10.9-6.77,21.63-14.14,31.89-21.9l3,4C777.12,1523.16,766.26,1530.62,755.22,1537.47Zm-478.57-21.88c-10.38-7.83-20.51-16.25-30.13-25l3.36-3.69c9.51,8.65,19.53,17,29.78,24.71Zm541-25.32-3.37-3.69c9.5-8.67,18.7-17.87,27.36-27.37l3.69,3.37C836.52,1472.19,827.21,1481.5,817.6,1490.27Zm-598.79-27.35c-8.78-9.61-17.21-19.73-25.06-30.09l4-3c7.75,10.24,16.09,20.24,24.76,29.73Zm651.5-30.46-4-3c7.75-10.25,15.12-21,21.89-31.91l4.25,2.64C885.61,1411.21,878.15,1422.08,870.31,1432.46Zm-698.74-31.89c-6.87-11-13.3-22.55-19.11-34.17l4.47-2.24c5.74,11.49,12.09,22.85,18.88,33.77Zm740-34.6-4.48-2.23c5.74-11.51,11-23.42,15.65-35.4l4.66,1.81C922.67,1342.27,917.34,1354.32,911.54,1366Zm-774.95-35.36c-4.71-12.12-8.91-24.61-12.48-37.11l4.81-1.37c3.52,12.35,7.67,24.69,12.33,36.67ZM939.8,1293l-4.81-1.36c3.5-12.35,6.47-25,8.82-37.67l4.92.91C946.35,1267.7,943.35,1280.52,939.8,1293Zm-824.66-37.63c-2.38-12.76-4.2-25.81-5.4-38.77l5-.46c1.18,12.81,3,25.7,5.34,38.31Zm838.94-39.26-5-.46c1.16-12.76,1.75-25.76,1.75-38.65v-1h5v1C955.86,1190.06,955.27,1203.22,954.08,1216.13Zm-841.17-38.62h-5V1177c0-12.87.58-25.86,1.73-38.61l5,.45c-1.14,12.6-1.72,25.44-1.72,38.16ZM949,1137.41c-1.21-12.82-3-25.7-5.39-38.31l4.91-.93c2.4,12.76,4.24,25.8,5.45,38.77Zm-829.14-36.88-4.92-.91c2.36-12.79,5.35-25.62,8.89-38.13l4.81,1.36C125.17,1075.21,122.21,1087.89,119.88,1100.53Zm814.84-39.08c-3.54-12.35-7.7-24.68-12.37-36.65L927,1023c4.73,12.11,8.94,24.6,12.52,37.1Zm-793.82-35.3-4.66-1.8c4.68-12.13,10-24.18,15.78-35.83l4.48,2.22C150.78,1002.25,145.53,1014.17,140.9,1026.15Zm765.74-36.7c-5.76-11.48-12.13-22.83-18.93-33.74l4.24-2.65c6.88,11,13.33,22.53,19.15,34.15ZM175.31,956.92l-4.25-2.63c6.84-11,14.28-21.92,22.12-32.31l4,3C189.42,935.26,182.07,946,175.31,956.92Zm690.44-33.07c-7.77-10.23-16.11-20.23-24.8-29.71l3.69-3.37c8.78,9.59,17.23,19.7,25.09,30.06ZM221.86,895.2l-3.69-3.37c8.75-9.62,18.05-19,27.64-27.73l3.38,3.69C239.71,876.47,230.51,885.69,221.86,895.2Zm591.68-28.37c-9.52-8.64-19.55-17-29.81-24.68l3-4c10.38,7.82,20.53,16.23,30.16,25ZM278.91,843l-3-4c10.36-7.86,21.21-15.33,32.25-22.2l2.64,4.25C299.87,827.86,289.15,835.25,278.91,843Zm472.87-22.7c-10.94-6.76-22.32-13.08-33.83-18.79l2.23-4.48c11.64,5.78,23.15,12.18,34.23,19ZM344.53,802.17l-2.24-4.47c11.64-5.82,23.67-11.17,35.78-15.89l1.82,4.66C367.92,791.13,356,796.41,344.53,802.17Zm338-16.22c-12-4.63-24.34-8.74-36.71-12.23l1.36-4.81c12.51,3.53,25,7.69,37.15,12.37Zm-266-11.83-1.37-4.8c12.5-3.57,25.32-6.6,38.1-9l.92,4.92C441.57,767.6,428.9,770.59,416.55,774.12ZM608.14,765c-12.61-2.32-25.51-4.08-38.33-5.23l.45-5c13,1.17,26,3,38.79,5.29Zm-115.63-5.1-.46-5c12.91-1.21,26.06-1.83,39.1-1.85v5C518.27,758.07,505.27,758.68,492.51,759.87Z" transform="translate(-107.92 -177)"/><path class="cls-1" d="M1994.08,1819.22v-5c12.89,0,25.89-.61,38.63-1.78l.46,5C2020.27,1818.61,2007.12,1819.21,1994.08,1819.22Zm-39.08-1.75c-13-1.18-26-3-38.77-5.33l.91-4.92c12.61,2.34,25.49,4.11,38.31,5.27Zm116.92-5.43-.92-4.91c12.63-2.35,25.29-5.32,37.64-8.84l1.37,4.81C2097.51,1806.65,2084.7,1809.66,2071.92,1812Zm-193.79-8.81c-12.5-3.53-25-7.71-37.11-12.4l1.8-4.66c12,4.64,24.32,8.76,36.67,12.26Zm269-12.58-1.81-4.65c12-4.65,23.86-9.91,35.35-15.65l2.23,4.47C2171.26,1780.63,2159.22,1786,2147.11,1790.65ZM1805.21,1775c-11.63-5.79-23.14-12.2-34.19-19l2.63-4.25c10.92,6.77,22.29,13.11,33.79,18.83Zm411.83-19.3-2.63-4.24c10.9-6.77,21.62-14.13,31.88-21.89l3,4C2238.93,1741.43,2228.07,1748.89,2217,1755.73Zm-478.31-21.87c-10.37-7.83-20.5-16.23-30.11-25l3.36-3.69c9.5,8.65,19.52,17,29.76,24.7Zm540.66-25.3-3.37-3.69c9.49-8.66,18.69-17.86,27.34-27.36l3.69,3.37C2298.3,1690.48,2289,1699.8,2279.39,1708.56Zm-598.47-27.34c-8.77-9.6-17.19-19.72-25-30.07l4-3c7.76,10.23,16.08,20.23,24.75,29.72Zm651.14-30.44-4-3c7.75-10.26,15.11-21,21.88-31.9l4.24,2.63C2347.35,1629.55,2339.91,1640.4,2332.06,1650.78Zm-698.35-31.88c-6.87-11-13.29-22.53-19.1-34.15l4.46-2.23c5.74,11.48,12.1,22.83,18.88,33.75Zm739.56-34.57-4.47-2.23c5.74-11.51,11-23.41,15.63-35.38l4.66,1.81C2384.4,1560.64,2379.07,1572.69,2373.27,1584.33ZM1598.75,1549c-4.71-12.11-8.91-24.59-12.47-37.09l4.81-1.37c3.52,12.35,7.66,24.68,12.32,36.65Zm802.77-37.56-4.81-1.37c3.51-12.34,6.47-25,8.82-37.64l4.91.91C2408.06,1486.11,2405.06,1498.93,2401.52,1511.42Zm-824.21-37.61c-2.38-12.76-4.2-25.79-5.4-38.75l5-.47c1.18,12.81,3,25.7,5.34,38.3Zm-2.22-77.84h-5v-.49c0-12.86.58-25.84,1.73-38.59l5,.45c-1.14,12.6-1.71,25.43-1.71,38.14Zm835.64-40.08c-1.2-12.81-3-25.69-5.38-38.29l4.91-.92c2.39,12.75,4.23,25.78,5.44,38.74ZM1582.05,1319l-4.91-.9c2.35-12.79,5.34-25.61,8.87-38.11l4.81,1.36C1587.33,1293.73,1584.38,1306.4,1582.05,1319ZM2396.44,1280c-3.53-12.34-7.69-24.67-12.36-36.63l4.66-1.82c4.72,12.11,8.93,24.58,12.51,37.08Zm-793.38-35.27-4.66-1.8c4.68-12.13,10-24.18,15.78-35.82l4.47,2.22C1612.93,1220.81,1607.68,1232.72,1603.06,1244.7ZM2368.37,1208c-5.75-11.47-12.12-22.82-18.91-33.72l4.24-2.64c6.87,11,13.31,22.51,19.14,34.12Zm-730.92-32.5-4.25-2.63c6.84-11.05,14.27-21.92,22.11-32.3l4,3C1651.55,1153.85,1644.2,1164.59,1637.45,1175.51Zm690.06-33.06c-7.77-10.23-16.11-20.22-24.78-29.69l3.68-3.38c8.78,9.59,17.22,19.7,25.08,30ZM1684,1113.81l-3.7-3.36c8.75-9.62,18-18.94,27.64-27.71l3.37,3.69C1701.81,1095.09,1692.62,1104.31,1684,1113.81Zm57-52.15-3-4c10.36-7.86,21.2-15.32,32.23-22.19l2.64,4.24C1761.94,1046.52,1751.23,1053.89,1741,1061.66ZM2213.6,1039c-10.93-6.76-22.31-13.08-33.81-18.79l2.23-4.47c11.63,5.77,23.14,12.17,34.21,19Zm-407-18.15-2.24-4.46c11.63-5.82,23.66-11.17,35.76-15.88l1.81,4.66C1830,1009.8,1818.07,1015.08,1806.58,1020.83Zm337.81-16.21c-12-4.62-24.33-8.73-36.69-12.21l1.36-4.81c12.51,3.52,25,7.68,37.13,12.36ZM1878.56,992.8l-1.37-4.8c12.49-3.57,25.3-6.59,38.08-9l.92,4.91C1903.56,986.29,1890.9,989.28,1878.56,992.8ZM2070,983.66c-12.61-2.32-25.49-4.08-38.31-5.23l.45-5c13,1.17,26,2.95,38.77,5.29Zm-115.56-5.1-.46-5c12.89-1.2,26-1.82,39.08-1.85v5C1980.22,976.76,1967.23,977.37,1954.48,978.56Z" transform="translate(-107.92 -177)"/><path class="cls-1" d="M1041.73,1028.77v-4c10.21,0,20.51-.48,30.61-1.41l.36,3.94C1062.48,1028.28,1052.06,1028.76,1041.73,1028.77Zm-31-1.39c-10.28-.93-20.61-2.36-30.72-4.23l.73-3.89c10,1.85,20.19,3.25,30.35,4.18Zm92.66-4.3-.73-3.89c10-1.87,20-4.22,29.83-7l1.08,3.81C1123.7,1018.81,1113.54,1021.19,1103.42,1023.08Zm-153.57-7c-9.91-2.81-19.8-6.11-29.41-9.83l1.42-3.69c9.5,3.67,19.28,6.94,29.07,9.71Zm213.15-10-1.43-3.69c9.48-3.68,18.91-7.85,28-12.4l1.77,3.54C1182.14,998.18,1172.6,1002.4,1163,1006.13ZM892.06,993.75c-9.22-4.59-18.33-9.67-27.1-15.1l2.09-3.36c8.66,5.36,17.67,10.38,26.77,14.91Zm326.37-15.29-2.09-3.37c8.63-5.36,17.13-11.2,25.26-17.35l2.39,3.16C1235.77,967.12,1227.17,973,1218.43,978.46ZM839.38,961.12c-8.22-6.2-16.25-12.86-23.87-19.8l2.67-2.93c7.53,6.86,15.46,13.44,23.59,19.58Zm428.45-20-2.67-2.92c7.52-6.87,14.81-14.16,21.67-21.68l2.93,2.67C1282.82,926.75,1275.44,934.13,1267.83,941.07ZM793.57,919.41c-7-7.61-13.63-15.63-19.85-23.83l3.16-2.4c6.14,8.11,12.74,16,19.61,23.56Zm516-24.13-3.15-2.38c6.14-8.13,12-16.63,17.33-25.28l3.37,2.09C1321.69,878.46,1315.79,887.06,1309.57,895.28ZM756.15,870c-5.44-8.75-10.53-17.85-15.14-27.06l3.54-1.77c4.55,9.1,9.59,18.09,15,26.74Zm586.08-27.4-3.54-1.77c4.54-9.11,8.71-18.54,12.39-28l3.69,1.43C1351.05,823.85,1346.83,833.4,1342.23,842.62Zm-613.78-28c-3.74-9.6-7.06-19.49-9.88-29.39l3.8-1.08c2.79,9.78,6.08,19.55,9.77,29Zm636.16-29.77-3.8-1.08c2.77-9.78,5.12-19.82,7-29.83l3.89.72C1369.8,764.79,1367.42,774.94,1364.61,784.84ZM711.46,755c-1.89-10.11-3.33-20.44-4.28-30.71l3.94-.36c.94,10.15,2.37,20.35,4.23,30.34Zm664.47-31.1-4-.36c.93-10.1,1.4-20.4,1.4-30.61v-.77h4V693C1377.34,703.3,1376.86,713.72,1375.93,723.94ZM709.7,693.36h-4V693c0-10.19.47-20.48,1.38-30.58l3.94.35c-.9,10-1.35,20.16-1.35,30.23Zm662.21-31.77c-1-10.15-2.38-20.35-4.26-30.34l3.89-.73c1.9,10.1,3.35,20.43,4.32,30.7Zm-656.7-29.2-3.89-.72c1.87-10.14,4.23-20.3,7-30.2l3.81,1.07C719.4,612.33,717.06,622.37,715.21,632.39Zm645.38-31c-2.8-9.78-6.1-19.55-9.79-29l3.68-1.44c3.75,9.6,7.08,19.48,9.92,29.38ZM731.86,573.48l-3.69-1.43c3.71-9.61,7.91-19.16,12.5-28.38l3.55,1.76C739.68,554.55,735.53,564,731.86,573.48Zm606.49-29.07c-4.56-9.1-9.61-18.09-15-26.73l3.36-2.1c5.45,8.75,10.55,17.85,15.17,27ZM759.12,518.65l-3.37-2.09c5.42-8.75,11.31-17.36,17.52-25.59l3.16,2.38C770.29,501.48,764.47,510,759.12,518.65ZM1306,492.45c-6.15-8.1-12.76-16-19.64-23.53l2.92-2.67c7,7.59,13.65,15.6,19.88,23.8Zm-510-22.7-2.93-2.66c6.93-7.62,14.3-15,21.9-22l2.67,2.92C810.12,454.92,802.84,462.22,796,469.75Zm468.62-22.46c-7.54-6.85-15.48-13.42-23.61-19.55l2.38-3.16c8.23,6.2,16.27,12.85,23.89,19.78ZM841.17,428.42l-2.4-3.15c8.21-6.23,16.81-12.14,25.55-17.58l2.09,3.36C857.77,416.42,849.28,422.27,841.17,428.42Zm374.53-18c-8.67-5.35-17.68-10.36-26.79-14.89l1.76-3.54c9.22,4.58,18.34,9.64,27.11,15.06ZM893.15,396.07l-1.78-3.54c9.21-4.61,18.75-8.84,28.34-12.58l1.43,3.69C911.67,387.33,902.25,391.52,893.15,396.07Zm267.7-12.85c-9.5-3.66-19.28-6.92-29.07-9.68l1.07-3.81c9.91,2.8,19.81,6.09,29.42,9.8Zm-210.67-9.36-1.08-3.81c9.9-2.83,20-5.22,30.18-7.12l.73,3.89C970,368.7,960,371.07,950.18,373.86Zm151.75-7.25c-10-1.84-20.21-3.23-30.36-4.14l.36-3.94c10.27.92,20.61,2.33,30.72,4.19Zm-91.58-4-.37-3.94c10.23-.95,20.65-1.44,31-1.46v4C1030.75,361.15,1020.45,361.63,1010.35,362.57Z" transform="translate(-107.92 -177)"/><path class="cls-1" d="M2226.83,478.88c-157.52-3.34-288.4,122.1-291.74,279.63s122.1,288.4,279.62,291.74,288.4-122.09,291.75-279.62S2384.36,482.23,2226.83,478.88ZM2225.56,980h0c-119,2.64-217.6-91.68-220.24-210.67h0c-2.65-119,91.67-217.6,210.66-220.25h0c119-2.65,217.6,91.67,220.25,210.67h0C2438.88,878.77,2344.56,977.38,2225.56,980Z" transform="translate(-107.92 -177)"/><path class="cls-1" d="M2694.21,690.76c-4.58-8.38-12.49-9.08-33.81-10.75-26.35-2.06-52.79-3.19-79.08-5.78-4.8-.47-11.34-5-13.29-9.28-12.56-27.92-23.51-56.57-36.26-84.4-3.71-8.1-4.25-13.13,1.52-20.23,20.31-25,39.95-50.53,59.82-75.89,3.22-4.11,6.3-8.33,11.76-15.58L2500,370.49c-29.6,25.52-56.89,48.29-83.2,72.15-9.28,8.41-15.77,10.46-28.2,4.48-25.39-12.21-52.47-20.88-78.54-31.78-4-1.67-8.4-7.12-9-11.35-4.79-32.33-9.64-64.7-12.45-97.23-1.34-15.61-8-20.68-22.33-20.15-5.52.21-11.12-1.59-16.69-2.47l-75,1.67c-2.68.89-5.3,2.23-8.05,2.59-28.81,3.68-24.19,1.33-26.41,28.37-2.71,33-4.86,66-6.93,94.58l-109.39,49.17-96.3-75.43c-39,29.59-70.23,64.86-98,104.47,25.17,29.07,49.63,57.48,74.3,85.71,4.43,5.06,6,8.73,2.81,16.12-12.68,28.92-24.63,58.21-35.29,87.93-3.07,8.56-6.91,10.77-14.89,11.72-33,3.89-65.8,8.54-98.73,12.57-8.18,1-12.36,3.63-13.59,12.88C1738.54,758,1742,799,1748.92,840c1.38,8.1,6.26,9.18,13.22,9.61,32.16,1.95,64.28,4.69,96.45,6.42,9.27.5,13.48,3.08,17.1,12.64,12.52,33,27,65.33,41.76,100.54l-72.37,92.4c30,39.82,64.06,73.09,104.62,100.24l90.16-78.81c32.48,11.52,62.4,23,92.94,32.5,11.54,3.58,16.09,8.64,17.25,20.5,3.09,31.58,7.41,63,11.55,94.51.82,6.22.13,14.4,10.38,14.09q62.61-1.87,125.2-3.71c8.87-.26,11.88-5,12.36-13.78,1.82-32.64,5.06-65.22,6.32-97.88.49-12.6,6.5-16.48,16.92-20.66,25.73-10.33,51.39-21.24,75.78-34.34,10.51-5.64,15.84-5.09,24.58,2.15,28.06,23.28,57,45.45,85.06,67.58,25.72-14.59,83.34-76.25,99.7-106.25-24.5-27.82-49-56.2-74.25-83.89-6.32-6.92-5.9-11.68-2.53-19.91C2552,907.35,2561,880,2571.61,853.34c1.78-4.49,7.61-9.71,12.18-10.37,29-4.16,58.21-7.31,87.37-10.46,16.31-1.76,22.89-2.41,26-8.63ZM2425.5,978.17a295.87,295.87,0,1,1,91.08-207.33A293.93,293.93,0,0,1,2425.5,978.17Z" transform="translate(-107.92 -177)"/><path class="cls-2" d="M1782.75,266.22l-8.31,53.32,38.62-26.88,117.61-56.78-90.12,6.2s-46.07,10.1-48.6,12.29S1782.75,266.22,1782.75,266.22Z" transform="translate(-107.92 -177)"/><polygon class="cls-3" points="1635.73 56.03 1822.75 58.88 1674.83 89.22 1635.73 56.03"/><polygon class="cls-3" points="1733.73 144.38 1685.62 103.92 1822.75 58.88 1733.73 144.38"/><path class="cls-1" d="M1517.79,452.58a120.73,120.73,0,0,1,2.71-12.73c1-3.86,2.31-7.75,3.76-11.56l4.12,1.57c-1.4,3.67-2.61,7.42-3.62,11.15a111.32,111.32,0,0,0-2.61,12.25c-.19,1.2-.36,2.4-.51,3.61l-4.37-.55C1517.43,455.05,1517.6,453.79,1517.79,452.58Zm19.53-50A167.22,167.22,0,0,1,1555,379.88l3.23,3A162.78,162.78,0,0,0,1541,405ZM1677.16,397l-.75-.52,2.52-3.6.62.42a1.89,1.89,0,0,0,.44.15c2.38.64,8.68.78,12.27-1.25a18.57,18.57,0,0,0,7.3-7.91l3.91,2a23.34,23.34,0,0,1-9,9.73c-5,2.81-12.61,2.47-15.59,1.66A5.77,5.77,0,0,1,1677.16,397ZM1576,360.25a227,227,0,0,1,23.38-16.65l2.33,3.74a223.87,223.87,0,0,0-22.93,16.32Zm84.39,1.95a53.43,53.43,0,0,1,1.89-12.89,63.34,63.34,0,0,1,2.37-7l4.09,1.65a59.24,59.24,0,0,0-2.21,6.54,49.78,49.78,0,0,0-1.74,11.83,41.65,41.65,0,0,0,.68,8.25l-4.33.8A45.3,45.3,0,0,1,1660.35,362.2ZM1682,340.26l-.55-.28,2-4,.6.31c9,4.6,16.32,12.08,20.12,20.52l-4,1.81C1696.72,351.13,1690.12,344.42,1682,340.26ZM1626.32,333c4.92-1.38,13.88-3.72,18.56-3.83,3.64-.1,7-.06,10.19.11l-.23,4.4c-3.1-.16-6.32-.2-9.85-.11-3.07.08-9.44,1.42-17.48,3.67Zm53.9-15.26a98.58,98.58,0,0,1,22.28-18.53l2.29,3.77a94.16,94.16,0,0,0-21.29,17.69Z" transform="translate(-107.92 -177)"/><path class="cls-1" d="M1730.3,292.3a84.63,84.63,0,0,1,14-2.31l-.35-4.39a89.14,89.14,0,0,0-14.69,2.43Z" transform="translate(-107.92 -177)"/><path class="cls-4" d="M2722.45,1429.14c-11.73-4.19-23.62-8-35.26-12.36a9,9,0,0,1-4.9-5.86c-2.27-14.24-3.73-28.62-6.11-42.84-.69-4.14-.31-6.5,3.18-9,12.32-8.86,24.39-18.07,36.55-27.15,2-1.48,3.88-3,7.26-5.64l-35.57-57.63c-16.61,8-31.82,15-46.72,22.57-5.25,2.69-8.46,2.82-13.37-1.43-10.05-8.68-21.3-16-31.82-24.11a8.21,8.21,0,0,1-2.71-6.28c1.81-15.28,3.58-30.6,6.31-45.75,1.31-7.26-1.08-10.38-7.68-11.91-2.54-.58-4.87-2.09-7.29-3.17l-34.33-8.47a21.24,21.24,0,0,1-4,.18c-13.56-1.86-11.17-2.37-15.51,9.66-5.28,14.65-10.32,29.4-14.78,42.16l-55.8,8.9c-11.15-14.9-22.8-30.47-34.52-46.15-21.37,8.67-39.92,20.86-57.44,35.45,7.86,16.32,15.5,32.25,23.24,48.13,1.4,2.84,1.68,4.71-.7,7.67-9.32,11.6-18.36,23.45-26.87,35.65-2.45,3.52-4.47,4-8.21,3.5-15.47-2.29-31-4.21-46.45-6.43-3.85-.55-6.07.13-7.77,4.19-7.62,18.2-11.11,37.26-13,56.75-.37,3.85,1.72,5,4.83,6,14.39,4.85,28.66,10,43.08,14.79,4.15,1.37,5.75,3.06,6.22,7.85,1.63,16.56,4.22,33,6.62,50.87l-44.28,33.12c8.74,21.8,20.15,41.12,35.25,58.45l50.7-24.74c13.36,9.23,25.55,18.13,38.27,26.21,4.81,3,6.26,5.91,5.33,11.44-2.48,14.75-4.39,29.59-6.38,44.41-.39,2.93-1.71,6.56,3,7.68q28.69,6.86,57.4,13.72c4.06,1,6-.81,7.32-4.74,4.84-14.63,10.32-29,14.91-43.74,1.77-5.68,5-6.7,10.23-7.32a352,352,0,0,0,38.69-6.3c5.48-1.27,7.84-.36,10.92,4,9.9,14,20.35,27.68,30.37,41.19,13.49-3.47,47.28-24.42,58.41-36.05-7.72-15.67-15.36-31.59-23.44-47.29-2-3.93-1.25-6,1.3-9.37,8.21-10.74,15.67-22.06,23.77-32.89,1.37-1.82,4.66-3.48,6.82-3.22,13.71,1.68,27.37,3.84,41,6,7.63,1.21,10.71,1.72,12.89-.72l15-60.91C2735.45,1433.81,2731.94,1432.52,2722.45,1429.14Zm-111.77,8.7a101.53,101.53,0,0,1-122.9,74.25h0a101.54,101.54,0,0,1-74.26-122.91h0a101.55,101.55,0,0,1,122.91-74.25h0a101.53,101.53,0,0,1,74.25,122.91Z" transform="translate(-107.92 -177)"/><ellipse class="cls-5" cx="488.99" cy="971.62" rx="73.84" ry="45.73"/><path class="cls-6" d="M596.91,177C413.05,177,264,326,264,509.9A332.13,332.13,0,0,0,378.86,761.45c.25.27,52,56.21,60.54,114.79L441,912.1a50.32,50.32,0,0,0,13,31.68c.7.77,1.43,1.51,2.17,2.23H737.65c.74-.72,1.47-1.46,2.17-2.23a50.32,50.32,0,0,0,13-31.68l1.55-35.86C763,817.66,814.7,761.72,815,761.45A332.15,332.15,0,0,0,929.8,509.9C929.8,326,780.76,177,596.91,177Z" transform="translate(-107.92 -177)"/><path class="cls-7" d="M676.14,1153.73H517.68a62.21,62.21,0,0,1-62.22-62.22V946h282.9v145.5A62.22,62.22,0,0,1,676.14,1153.73Z" transform="translate(-107.92 -177)"/><path class="cls-8" d="M680.36,764.42c-184,0-333.09-149.12-333.09-333.08a331.62,331.62,0,0,1,66.1-199.19C323.37,291.73,264,393.88,264,509.9A332.1,332.1,0,0,0,378.86,761.45c.25.27,52,56.21,60.54,114.79L441,912.1a50.37,50.37,0,0,0,13,31.68c.71.77,1.44,1.51,2.18,2.23H737.65c.74-.72,1.47-1.46,2.17-2.23a50.32,50.32,0,0,0,13-31.68l1.55-35.86C763,817.66,814.7,761.72,815,761.45a334.63,334.63,0,0,0,48.12-51.6A331.47,331.47,0,0,1,680.36,764.42Z" transform="translate(-107.92 -177)"/><polygon class="cls-9" points="486.65 494.35 420.5 205.84 362.45 373.65 345.43 367.76 424.02 140.56 491.51 434.95 560.64 266.2 624.67 374.3 609.17 383.48 563.59 306.53 486.65 494.35"/><path class="cls-7" d="M511.19,989.39l-1.59.16A15.21,15.21,0,0,1,492.9,976L446.64,529.27a15.21,15.21,0,0,1,13.57-16.7l1.59-.16A15.22,15.22,0,0,1,478.5,526l46.26,446.71A15.23,15.23,0,0,1,511.19,989.39Z" transform="translate(-107.92 -177)"/><path class="cls-7" d="M683.59,989.47h0a16,16,0,0,0,17.58-14.28l46.1-445.12A16,16,0,0,0,733,512.49h0a16,16,0,0,0-17.58,14.28l-46.1,445.12A16,16,0,0,0,683.59,989.47Z" transform="translate(-107.92 -177)"/><path class="cls-5" d="M742.87,977.33H451.12a7.59,7.59,0,0,1-7.59-7.59V953.6a7.59,7.59,0,0,1,7.59-7.59H742.87a7.59,7.59,0,0,1,7.59,7.59v16.14A7.59,7.59,0,0,1,742.87,977.33Z" transform="translate(-107.92 -177)"/><path class="cls-5" d="M742.87,1040.11H451.12a7.59,7.59,0,0,1-7.59-7.59v-16.14a7.59,7.59,0,0,1,7.59-7.59H742.87a7.59,7.59,0,0,1,7.59,7.59v16.14A7.59,7.59,0,0,1,742.87,1040.11Z" transform="translate(-107.92 -177)"/><path class="cls-5" d="M742.87,1110.37H451.12a7.59,7.59,0,0,1-7.59-7.59v-16.14a7.59,7.59,0,0,1,7.59-7.59H742.87a7.59,7.59,0,0,1,7.59,7.59v16.14A7.59,7.59,0,0,1,742.87,1110.37Z" transform="translate(-107.92 -177)"/><path class="cls-6" d="M1033.29,698.36l11.47-21.05L1034,655.91a3.29,3.29,0,0,1,3.54-4.72l23.5,4.43,17-16.9a3.28,3.28,0,0,1,5.58,1.91l3.06,23.78,21.27,11a3.3,3.3,0,0,1-.1,5.91l-21.61,10.27-3.81,23.67a3.29,3.29,0,0,1-5.64,1.73l-16.41-17.43-23.63,3.67A3.29,3.29,0,0,1,1033.29,698.36Z" transform="translate(-107.92 -177)"/><path class="cls-6" d="M110.15,1029.82l11.47-21-10.79-21.41a3.29,3.29,0,0,1,3.54-4.73l23.51,4.43,17-16.91a3.29,3.29,0,0,1,5.58,1.92l3.06,23.79,21.28,11a3.31,3.31,0,0,1-.09,5.92L163.06,1023l-3.82,23.68a3.28,3.28,0,0,1-5.63,1.74L137.18,1031l-23.64,3.67A3.3,3.3,0,0,1,110.15,1029.82Z" transform="translate(-107.92 -177)"/><path class="cls-3" d="M1609.08,550.05l-.12-14.72-12.16-8.26a2,2,0,0,1,.49-3.59l13.93-4.67,4.07-14.15a2,2,0,0,1,3.56-.64l8.73,11.85,14.68-.5a2,2,0,0,1,1.71,3.2l-8.54,12,5,13.85a2,2,0,0,1-2.5,2.62l-14-4.44-11.58,9A2,2,0,0,1,1609.08,550.05Z" transform="translate(-107.92 -177)"/><path class="cls-3" d="M2312.22,1651.39l9.68-18.19-9.44-18.27a2.83,2.83,0,0,1,3-4.09l20.24,3.56,14.45-14.68a2.82,2.82,0,0,1,4.81,1.58l2.82,20.4,18.38,9.19a2.82,2.82,0,0,1,0,5.07l-18.5,9-3.09,20.37a2.82,2.82,0,0,1-4.83,1.54l-14.25-14.8-20.29,3.4A2.82,2.82,0,0,1,2312.22,1651.39Z" transform="translate(-107.92 -177)"/><path class="cls-3" d="M2133.15,1838.48H684.36A87.45,87.45,0,0,1,596.91,1751V885.38a87.46,87.46,0,0,1,87.45-87.46H2133.15a87.46,87.46,0,0,1,87.46,87.46V1751A87.46,87.46,0,0,1,2133.15,1838.48Z" transform="translate(-107.92 -177)"/><rect class="cls-10" x="528.85" y="679.71" width="1543.99" height="887.37"/><rect class="cls-11" x="528.85" y="679.71" width="1543.99" height="94.4"/><path class="cls-12" d="M2250,1838.48H567.54A75.52,75.52,0,0,1,492,1763H2325.5A75.52,75.52,0,0,1,2250,1838.48Z" transform="translate(-107.92 -177)"/><path class="cls-13" d="M2322.35,1783.94a71.46,71.46,0,0,0,3.15-21H492a71.84,71.84,0,0,0,3.14,21Z" transform="translate(-107.92 -177)"/><rect class="cls-14" x="638.57" y="835.19" width="12.1" height="684.72"/><rect class="cls-15" x="691.24" y="831.22" width="199.99" height="14.37"/><rect class="cls-3" x="691.24" y="883.46" width="199.99" height="14.37"/><rect class="cls-15" x="683.91" y="1311.71" width="199.99" height="14.37"/><rect class="cls-3" x="683.91" y="1363.95" width="199.99" height="14.38"/><rect class="cls-14" x="705.96" y="1456.07" width="177.94" height="14.37"/><rect class="cls-14" x="913.62" y="883.46" width="75.7" height="14.37"/><rect class="cls-14" x="913.62" y="1456.07" width="75.7" height="14.37"/><rect class="cls-15" x="1011.64" y="1456.07" width="458.08" height="14.37"/><rect class="cls-14" x="913.62" y="935.71" width="156.99" height="14.37"/><rect class="cls-15" x="1098.36" y="935.71" width="443.38" height="14.37"/><rect class="cls-3" x="1562.81" y="935.71" width="374.2" height="14.37"/><rect class="cls-6" x="1024.8" y="883.46" width="912.2" height="14.37"/><rect class="cls-3" x="691.24" y="935.71" width="199.99" height="14.37"/><rect class="cls-14" x="691.24" y="994.14" width="485.29" height="14.37"/><rect class="cls-3" x="691.24" y="1046.38" width="675.49" height="14.37"/><rect class="cls-14" x="940.62" y="1098.63" width="675.49" height="14.37"/><rect class="cls-14" x="940.62" y="1311.71" width="360.22" height="14.37"/><rect class="cls-14" x="940.62" y="1371.14" width="607.07" height="14.37"/><rect class="cls-15" x="940.62" y="1150.87" width="293.44" height="14.37"/><rect class="cls-14" x="1269.36" y="1150.87" width="177.8" height="14.37"/><rect class="cls-14" x="940.62" y="1203.12" width="399.03" height="14.37"/><rect class="cls-6" x="940.62" y="1255.36" width="619.3" height="14.37"/><path class="cls-16" d="M1053.07,491.93l5.89-9.57-4.73-1.92a2,2,0,0,1-1.12-2.63h0a2,2,0,0,1,2.64-1.11l5.45,2.21,5.27-8.6-5-2.05a2,2,0,0,1-1.12-2.63h0a2,2,0,0,1,2.64-1.12l5.78,2.35,6.11-9.84a2,2,0,0,1,2.48-.81l.88.36a2,2,0,0,1,1,2.93l-5.69,9.29,8.38,3.39,6.12-9.84a2,2,0,0,1,2.47-.81l1,.4a2,2,0,0,1,1,2.93l-5.69,9.28,4.73,1.92a2,2,0,0,1,1.12,2.64h0a2,2,0,0,1-2.64,1.11l-5.45-2.21-5.19,8.63,5,2a2,2,0,0,1,1.12,2.63h0a2,2,0,0,1-2.64,1.12l-5.78-2.35-6.25,10.15a2,2,0,0,1-2.48.82l-1-.42a2,2,0,0,1-1-2.94l5.89-9.57-8.38-3.39-6.25,10.14a2,2,0,0,1-2.48.82l-1-.42A2,2,0,0,1,1053.07,491.93Zm21.35-7.66,5.26-8.6-8.37-3.4-5.27,8.6Z" transform="translate(-107.92 -177)"/><path class="cls-3" d="M2717,1045.22l-1,.42a2,2,0,0,1-2.48-.81l-6.25-10.16-8.39,3.4,5.9,9.58a2,2,0,0,1-1,2.94l-1,.41a2,2,0,0,1-2.48-.81L2694,1040l-5.78,2.35a2,2,0,0,1-2.64-1.12h0a2,2,0,0,1,1.11-2.63l5.06-2.05-5.19-8.63-5.46,2.21a2,2,0,0,1-2.63-1.11h0a2,2,0,0,1,1.11-2.64l4.73-1.92-5.69-9.29a2,2,0,0,1,1-2.94l1-.39a2,2,0,0,1,2.48.81l6.12,9.85,8.38-3.4-5.69-9.3a2,2,0,0,1,1-2.93l.88-.36a2,2,0,0,1,2.48.81l6.12,9.85,5.78-2.35a2,2,0,0,1,2.64,1.12h0a2,2,0,0,1-1.12,2.63l-5.05,2.06,5.27,8.6,5.46-2.22a2,2,0,0,1,2.64,1.12h0a2,2,0,0,1-1.12,2.63l-4.73,1.92,5.89,9.58A2,2,0,0,1,2717,1045.22Zm-12-14-5.27-8.6-8.38,3.4,5.27,8.6Z" transform="translate(-107.92 -177)"/><path class="cls-6" d="M1820.68,647l-1,.42a2,2,0,0,1-2.49-.82l-6.24-10.15-8.38,3.4,5.89,9.57a2,2,0,0,1-1,2.94l-1,.42a2,2,0,0,1-2.49-.82l-6.25-10.15-5.77,2.35a2,2,0,0,1-2.64-1.12h0a2,2,0,0,1,1.11-2.63l5.06-2-5.19-8.63-5.46,2.21a2,2,0,0,1-2.63-1.11h0a2,2,0,0,1,1.11-2.64l4.73-1.92-5.69-9.28a2,2,0,0,1,1-2.93l1-.39a2,2,0,0,1,2.48.8l6.12,9.85,8.38-3.4-5.69-9.29a2,2,0,0,1,1-2.93l.89-.36a2,2,0,0,1,2.47.81L1806,619l5.78-2.34a2,2,0,0,1,2.64,1.11h0a2,2,0,0,1-1.12,2.64l-5,2,5.27,8.6,5.45-2.21a2,2,0,0,1,2.64,1.11h0a2,2,0,0,1-1.12,2.64l-4.73,1.91,5.9,9.57A2,2,0,0,1,1820.68,647Zm-12-14-5.27-8.6-8.38,3.4,5.27,8.6Z" transform="translate(-107.92 -177)"/><path class="cls-17" d="M507.73,1313.11c20.62,17.91,7.08,31.19-1,26.41-3.47-2-4.5-6.58-1.46-9.47,1.39-1.33,4.26-.22,4,1.85-.23,1.71,1.68,1.78,2.09-.07.57-2.49-1.62-5-3-6.84-3.26-4.25-7.44-9.8-13.41-9.59-8.92.32-16.63,10.8-9.29,23.1,10.57,17.74,41.42,11.49,43.12-9.56.93-11.45-5.73-22.43-15.87-27.61-2-1-.32-3.71,1.56-3.31,14.27,3.08,22.28,19.29,20,33-2.37,14.1-15.21,23.13-29.05,23.48-14.52.36-28.38-9.75-29.4-24.84C474.81,1313.16,493.32,1300.58,507.73,1313.11Z" transform="translate(-107.92 -177)"/><path class="cls-17" d="M1370.06,304.8c20.6,17.91,7.08,31.18-1,26.4-3.47-2-4.5-6.57-1.46-9.47,1.39-1.32,4.25-.21,4,1.85-.23,1.72,1.67,1.78,2.09-.07.56-2.48-1.62-5-3-6.83-3.26-4.25-7.43-9.8-13.41-9.59-8.91.32-16.61,10.8-9.28,23.09,10.57,17.73,41.39,11.48,43.1-9.55.92-11.44-5.73-22.42-15.86-27.59-2-1-.33-3.72,1.55-3.31,14.26,3.07,22.27,19.28,20,33-2.37,14.09-15.21,23.12-29,23.47-14.51.36-28.36-9.75-29.38-24.82C1337.15,304.86,1355.65,292.28,1370.06,304.8Z" transform="translate(-107.92 -177)"/><polygon class="cls-17" points="2558.86 1073.66 2539.61 1070.49 2538.72 1083.45 2532.51 1083.03 2533.86 1063.24 2553 1066.39 2553.78 1051.13 2571.31 1053.69 2574.27 1038.11 2580.38 1039.28 2576.31 1060.71 2559.65 1058.27 2558.86 1073.66"/><polygon class="cls-17" points="235.07 800.2 254.32 797.03 255.2 809.99 261.41 809.56 260.06 789.77 240.93 792.92 240.14 777.66 222.62 780.22 219.66 764.65 213.54 765.81 217.62 787.25 234.28 784.81 235.07 800.2"/><path class="cls-10" d="M228.85,1843.68h0c0,3.08,4.19,5.58,9.36,5.58h2333c5.16,0,9.35-2.5,9.35-5.58h0c0-3.09-4.19-5.58-9.35-5.58h-2333C233,1838.1,228.85,1840.59,228.85,1843.68Z" transform="translate(-107.92 -177)"/><path class="cls-9" d="M269.78,1160.88l-10.59,6.7s2.79,3.89,7.53,1.08C272.51,1165.23,269.78,1160.88,269.78,1160.88Z" transform="translate(-107.92 -177)"/><path class="cls-18" d="M1440.19,599.22c-4.53-3-35.65,14.35-34.76,19.28s-17.57,55.23-17.57,55.23l-41.52-29.23s-6.93-11.59-8.28-13.36c-2.56-3.35-6.52-6.4-9.59-5.5s3.11,4.27,3.56,5c1.22,1.86-2.72,3-2.72,3s-12.13-5.22-12.73-8.92-3.73-11.26-6.06-9.39c-1.2,1-.66,6.49,0,9.08-1-2.91-2.4-6.17-3.45-6.41-1.92-.43-2.62,2-2.17,3.16s4.67,13.49,5.72,14.83,21.08,14.51,24.07,17.51c0,0,57.25,54,61.07,55.21,3.35,1,12.89-20.38,22.45-34.92S1454.33,608.63,1440.19,599.22Z" transform="translate(-107.92 -177)"/><path class="cls-2" d="M1395,643.46l38.93.23s-1.27-31.77-2.71-46.85c-1.76-18.29-5.58-41.7-7.74-41-6.06,2-14.08,6.25-18.4,13.55C1390.1,594.69,1395,643.46,1395,643.46Z" transform="translate(-107.92 -177)"/><path class="cls-3" d="M1410.9,595.67c-.28,5.65-.55,158.67-.55,158.67,73.45,27.17,109.5-4.41,109.5-4.41s-12.51-106.23-11.15-121c.9-9.76.06-73-6.33-74.23-8.19-1.52-20.56-3.72-30.62-3.8-8.59-.06-41.67,2.6-47.39,5.15A75.55,75.55,0,0,0,1410.9,595.67Z" transform="translate(-107.92 -177)"/><path class="cls-19" d="M1443.32,437.65s-26.8-7.29-30.27,15.56c0,0-22,2.66-13.28,24.11,0,0-19.2,15.76.81,40.73,0,0-.08,27.74,31.16,22.46,0,0,6.71,8.31,20.31,3s16.36-9.87,16.36-9.87,26.62,1.68,29.1-22.56c0,0,16.24-8-.24-27.4,0,0,8.56-31.93-19.75-34.58C1477.52,449.07,1467.87,420.55,1443.32,437.65Z" transform="translate(-107.92 -177)"/><path class="cls-18" d="M1472.05,500.88c-.73,5.87,1.9,11,5.87,11.52s7.77-3.87,8.49-9.74-1.9-11-5.87-11.52S1472.77,495,1472.05,500.88Z" transform="translate(-107.92 -177)"/><path class="cls-18" d="M1404.44,502.08c1,5.82,5,10,9,9.29s6.29-6,5.27-11.8-5-10-9-9.29S1403.42,496.25,1404.44,502.08Z" transform="translate(-107.92 -177)"/><path class="cls-18" d="M1438.46,533.64c.1.4,0,15.69-.08,23.78a6.32,6.32,0,0,0,5,6.24c7.89,1.65,23,3.05,30.73-7.95a4.18,4.18,0,0,0,.61-3.45l-9-34.41Z" transform="translate(-107.92 -177)"/><path class="cls-20" d="M1438.48,542.18c8.43,2.11,18,.05,27.24-8.62a41.29,41.29,0,0,0,3.26-3.38l-3.22-12.33-27.3,15.79C1438.51,533.83,1438.5,537.52,1438.48,542.18Z" transform="translate(-107.92 -177)"/><path class="cls-18" d="M1443,456.08a35.13,35.13,0,0,1,22,10.38c9.51,9.92,20.8,42.23-.69,62.31s-44.55,1.65-48.86-19.71S1414.49,458.4,1443,456.08Z" transform="translate(-107.92 -177)"/><path class="cls-10" d="M1333,634.43l-1.62,1.76a2.19,2.19,0,0,1-3.07.21l-34.74-31.53a2.15,2.15,0,0,1-.06-3l1.62-1.75a2.19,2.19,0,0,1,3.07-.22L1333,631.38A2.15,2.15,0,0,1,1333,634.43Z" transform="translate(-107.92 -177)"/><path class="cls-18" d="M1239.06,918.64s-4.76,9.69-13.64,10.66-30.88-10.72-35.71-10.22-6.81,2.95-6.81,2.95L1233,967.08l13.44-15.2,7.78-12.69Z" transform="translate(-107.92 -177)"/><path class="cls-2" d="M1220,928.87s7.74,17,16.64,19.75,9.51,1.76,10.2,4.54-11.77,17.15-11.77,17.15l-56.41-50.56c-3.74-3.72-3-8.35,2.38-7.81a62,62,0,0,1,9.35,2.15C1197.06,915.71,1220,928.87,1220,928.87Z" transform="translate(-107.92 -177)"/><path class="cls-21" d="M1519.85,749.93c-5.06-5.95-98.34-1.59-98.34-1.59s-83.94-4.64-102.69,6.67c-5.16,3.12-79,153.06-89.31,166l23.73,22.86s61.55-73.46,76.41-91.22c10.21-12.21,21.15-29.49,28.93-45.62,31.3,11.46,81.58,22.53,146.09,11.94C1533.73,814.2,1524.92,755.89,1519.85,749.93Z" transform="translate(-107.92 -177)"/><path class="cls-18" d="M1462.53,923.58s-2.58,29.69-7.32,37.91.25,22.19.5,24.11,10,4.66,25.47,3,15.23-5.2,14-11-9.49-13.15-10-18.63,4.75-25.21,4.75-25.21Z" transform="translate(-107.92 -177)"/><path class="cls-2" d="M1483.11,990.91c15.94-1.69,14-9.49,12.69-15.42-.81-3.71-5.38-8.08-8.11-12.22-1.42,1.13-3.74,3.13-10.67,5.17-7.18,2.12-17-2.07-23.32-4.7a76.4,76.4,0,0,0-2.13,20.5C1451.82,986.21,1467.17,992.61,1483.11,990.91Z" transform="translate(-107.92 -177)"/><path class="cls-6" d="M1474.31,805.51c-3.22,24.26-19.15,145-19.15,145l37,4.57s45.45-157.64,43.12-181.75-19.34-26.14-19.34-26.14S1482.82,741.29,1474.31,805.51Z" transform="translate(-107.92 -177)"/><path class="cls-9" d="M1428.59,517l24.94-3.52s.76,9.55-10.16,11.42C1430.05,527.15,1428.59,517,1428.59,517Z" transform="translate(-107.92 -177)"/><path class="cls-19" d="M1419.35,464.37s13.05-3.2,21.39-.21,31,30.36,35.92,28,4.28-21.6,1.71-25-13.47-14.54-14.54-15-12.83-3.2-15-3.2-18.39,3.2-18.39,3.2Z" transform="translate(-107.92 -177)"/><path class="cls-18" d="M1636.42,795.78c-4.5.07-16.51-2.49-20.39-2.53-3,0-9.44-3.1-12.19-3-5.43-11.71-31.66-76.46-39.07-95.05-9.71-24.39-42.15-108.5-42.15-108.5l-32.32,12.09s27.18,65,40.43,97.49c11.38,28,56.61,99.85,56.77,100.19,4.54,9.55,17.74,5.65,17.74,5.65s21.43-2.26,26-2.23C1633.23,799.88,1640.93,795.71,1636.42,795.78Z" transform="translate(-107.92 -177)"/><path class="cls-2" d="M1545.69,624.33,1505,652s-11.66-31.18-19.75-50.31c-7-16.46,10.38-50.14,18.27-47.05C1521.18,561.57,1545.69,624.33,1545.69,624.33Z" transform="translate(-107.92 -177)"/><path class="cls-15" d="M2084.87,1354c29.16-23.61,105.55,9,116.94,24.26,11.19,15,33.91,173.1,17.19,184s-68.48,33.08-90,13.54S2084.87,1354,2084.87,1354Z" transform="translate(-107.92 -177)"/><path class="cls-18" d="M2068.53,1349.62s-49.56-25.32-56.27-37.9-34.59-53.36-34.59-53.36-14.47.26-18.26,6.68c4.65,17.45,18.92,65.8,37.37,80s67,43.63,67,43.63Z" transform="translate(-107.92 -177)"/><path class="cls-18" d="M1964.55,1280.82c7-1.94,15.87-5.71,22.38-8.69-2.82-3.74-4.74-6.63-5.17-8-2-6.29,10.51-30.88,8.46-32.9-3.77-1.28-10.46,11.42-11.71,10.18s-2.27-30-6.44-29.9-1,21.43-3.6,21.67a27.59,27.59,0,0,0-8.27,2.18c-2.75,1.16-6.19,2.63-7.67,5-1.31,2.12-3.32,5.75,1.11,14.15,6.23,11.82,5,9.24,8.73,20.4C1962.68,1275.91,1963.36,1278,1964.55,1280.82Z" transform="translate(-107.92 -177)"/><path class="cls-18" d="M2057.55,1653.28s-1.51,30.92-1.51,49.78,29,92.77,26.4,103.33,27.36,9.12,27.36,9.12,2-57.39-5.68-84.55,0-83,0-83Z" transform="translate(-107.92 -177)"/><path class="cls-18" d="M2130.39,1638.37s9.75,51.11,17.67,62.8,50.53,91.27,50.53,101.45,26.77,1.88,26.77,1.88-22.62-87.11-31.67-113.51a314,314,0,0,1-12.45-48.27Z" transform="translate(-107.92 -177)"/><path class="cls-22" d="M2048.46,1570.91c-3.08,18.7-30.23,115.37-30.23,115.37,41.82,11.42,161.84,18.74,206.71-10.19,0,0-35.43-133.32-56-158l-38.53-6.35-68.32-7.36S2050.64,1557.69,2048.46,1570.91Z" transform="translate(-107.92 -177)"/><path class="cls-23" d="M2036.81,1838.82h82.4s1.69-29.79-4-35.45-4.15.72-13.58,4.32-15.56-5.09-19.87-9.39-1.25,13.74-19.35,13.74S2032.66,1830.52,2036.81,1838.82Z" transform="translate(-107.92 -177)"/><path class="cls-23" d="M2197.73,1799.34c-4.26,1-17.68,11.92-22.13,23.75s-3.18,16.06-3.18,16.06,13.64,6.07,39.81,4.15,22.18-4.78,22.18-4.78-1.87-26.92-6.32-35.11S2205.19,1797.62,2197.73,1799.34Z" transform="translate(-107.92 -177)"/><path class="cls-18" d="M2190.15,1462.37s15.6,37,10.91,49.91-17,60.27-17,60.27,10.52,9.09,17.56,7.67c9.5-14.58,35-55.94,33.28-78.34s-11.69-58.88-11.69-58.88Z" transform="translate(-107.92 -177)"/><path class="cls-18" d="M2209.66,1566.37c-5.92-3.78-14.32-7.69-20.65-10.43-.87,4.43-1.69,7.66-2.38,8.84-3.23,5.46-28.89,12.36-29,15.13s14,0,13.88,1.68-19.06,21.09-16.31,24,17.09-15.39,18.82-13.54-15.65,23.4-10.9,24.46,14.11-20.14,16.72-18.91-7.17,20.3-5.24,22.36,3.81-2.49,6.38-7.54,5.68-12.44,6.79-11.24-2.94,15.58-.34,17,14.79-39.7,19.46-46.52A49.09,49.09,0,0,0,2209.66,1566.37Z" transform="translate(-107.92 -177)"/><path class="cls-23" d="M2235,1458.68s-13.76,20.24-43.34,29.4c-3-16-6.31-23.48-6.93-23.39-1.64.23-8,25.63-15.05,54.51-23.62,13.68-109.13,6.94-109.2-7.52-.06-11,14.45-97.16-1-109.21-5.6-4.39-47.65-36-47.65-36s12.29-30.91,24.53-43l48.67,19.56c29.94,12,54.29,17.74,71,25.34C2213,1394.17,2223.25,1411.66,2235,1458.68Z" transform="translate(-107.92 -177)"/><path class="cls-24" d="M2158,1369.14c-15.57,46.5-7.24,129.32,14.76,154,6.35-15.36-6.06-62,12-141C2185.27,1378.17,2159.57,1364.85,2158,1369.14Z" transform="translate(-107.92 -177)"/><path class="cls-24" d="M2116,1353.4c-22.49,24.45-51.74,123.75-52.45,128.27,1-79.37,26.78-125.44,31.82-134.66C2098.73,1344.77,2116.44,1351,2116,1353.4Z" transform="translate(-107.92 -177)"/><path class="cls-18" d="M2116.05,1334.79c1,14.34-3.09,26.17-5.43,30.83,0,0,14.65,14.37,39.11,6-1.25-12.77.06-27.19,3.74-43.14Z" transform="translate(-107.92 -177)"/><path class="cls-3" d="M2115,1351.73a67.17,67.17,0,0,0,1.05-16.94l37.42-6.28q-1.38,6-2.32,11.72C2139.39,1348.84,2126.23,1353.38,2115,1351.73Z" transform="translate(-107.92 -177)"/><path class="cls-18" d="M2114,1260.47c-13.5,12.45-32.6,54.34-16.62,73.75,20.27,24.61,56.33,8.75,78.21-23.13S2134.84,1241.26,2114,1260.47Z" transform="translate(-107.92 -177)"/><path class="cls-6" d="M2155.14,1276.84s15.7.47,9.52,15.22-17.37,19.75-11.42,25.69c4.09,4.09.63,12.85-1.23,17.67-1,2.5,3.34-2.78,9.26-3.29,14.41-1.25,25-5.58,29.36-22.49,0,0,12.86-17.7,9.61-38.33-2.39-15.16-14.67-17.44-14.67-17.44s-3.42-6.91-19.49-14.63c-22.71-10.92-56.73-18.37-56.73,2.6C2109.34,1254.89,2103.75,1274.05,2155.14,1276.84Z" transform="translate(-107.92 -177)"/><path class="cls-6" d="M2173.26,1263.51c22.26-33.85,66.3-18.17,70.75,6,3.79,20.63,20.81,30,49.14,31.2,38.37,1.58,25.75,56.24,3.39,59.39,24.82,41.94-59.89,67.84-57.38,26.58-31-5.61-45.73-22.69-39.43-45.08s9.5-79.89-11.85-69.53C2165.71,1279.06,2173.26,1263.51,2173.26,1263.51Z" transform="translate(-107.92 -177)"/><path class="cls-18" d="M2150.72,1306.26c1.11-.57,16.24-7.22,20.89.81,3.8,6.56-3.49,20.55-14.85,20.55S2136.45,1313.57,2150.72,1306.26Z" transform="translate(-107.92 -177)"/><path class="cls-25" d="M2119.21,1838.82s.35-6.19.2-13.46c-9.67,4.18-62.68,3.51-81.95,3.12-1.68,3.86-2,7.64-.65,10.34Z" transform="translate(-107.92 -177)"/><path class="cls-25" d="M2212.23,1843.3c26.17-1.91,22.18-4.78,22.18-4.78s-.44-6.2-1.37-13.56h0c-18.22,16.27-46.67,8-59.12,3.12-2.39,8.06-1.49,11.07-1.49,11.07S2186.05,1845.21,2212.23,1843.3Z" transform="translate(-107.92 -177)"/><path class="cls-26" d="M777.21,1309.44s23.18-2.14,37.48,22.91,34.89,87.2,42.76,92.14,55.19,36,62.07,32.92,19.37-35.32,24.37-36.67,5.7,3.71,3.93,7.08-4,7.32-2.08,8.52l1.92,1.2s15.71-9.68,20.1-8.33-7.15,18.85-6.4,23.43-7.42,13.6-8.81,16.23-2.22,6.93-27.27,9.88-65.46-7.68-87.41-24.75c-29.63-23.06-62.28-109.77-64.23-119C768.69,1311.64,777.21,1309.44,777.21,1309.44Z" transform="translate(-107.92 -177)"/><path class="cls-3" d="M818.17,1327.35c-14.85-24.91-41.63-16.56-41.63-16.56s-10.34,1.52-5.49,24.9c1.12,5.38,13.49,39.65,29.3,69.53,9.3-11.85,27.69-24.73,41.48-31.19A437.37,437.37,0,0,0,818.17,1327.35Z" transform="translate(-107.92 -177)"/><path class="cls-18" d="M870.89,1735.73s15,61.1,26.14,70.7,47.59,27.94,38.06,29.92S855,1840,857,1828.2s4-19.26,4-19.26l-18.66-43.64Z" transform="translate(-107.92 -177)"/><path class="cls-15" d="M939.83,1838.85c-17.2,1.72-67.41,3.52-82.05,1.65,0,0-2.74-.54-.81-12.3.48-2.88,1-5.5,1.41-7.81,13.27,3.48,42.17-3.94,53.61-5.46,12.44,6,26.46,14.85,31,15.59C949.52,1831.6,949.51,1837.89,939.83,1838.85Z" transform="translate(-107.92 -177)"/><path class="cls-18" d="M708.76,1778.72s2.78,24.75,2.78,31.56-6.34,26-3.4,29,86.93,2.58,86.93-.18-14.84-11.15-35-16.92-15.18-29.94-17.74-43.41H708.76Z" transform="translate(-107.92 -177)"/><path class="cls-15" d="M796.42,1841.29c0-6.47-13.77-12.54-31.61-18-19,6.42-45.41,1.12-55.3-.77-3,7.92-4.28,18.69-2.15,19.24C709.88,1842.42,796.42,1842.47,796.42,1841.29Z" transform="translate(-107.92 -177)"/><polygon class="cls-15" points="714.58 1303.34 786.08 1598.48 740.83 1608.62 632.91 1320.25 714.58 1303.34"/><path class="cls-27" d="M805.81,1494.28l-23.32,68.58-29.49,227-45-2.93s-15.2-226.21-10-287.86Z" transform="translate(-107.92 -177)"/><path class="cls-22" d="M839.92,1495.39c-9.58-36.24-22.12-85.32-25.55-106.54-5.76-35.63-25.15-79.12-25.15-79.12s-21.33-3.37-37.2-2.49c-30.65,1.71-75,11.6-75,11.6l15.6,197.92C741,1515.69,794.06,1511.48,839.92,1495.39Z" transform="translate(-107.92 -177)"/><path class="cls-6" d="M682.89,1211.49c-.33,18.53,5.75,26.59,17.3,41.12s31.93,31.69,31.93,31.69l57.29-36.52s-.4-7.84-2.46-31.06C778.52,1121.88,683.15,1197.15,682.89,1211.49Z" transform="translate(-107.92 -177)"/><path class="cls-18" d="M697.38,1250.41c2.31,7.25,8.16,11.85,13.06,10.29s7-8.71,4.68-16-8.17-11.85-13.07-10.29S695.06,1243.16,697.38,1250.41Z" transform="translate(-107.92 -177)"/><path class="cls-18" d="M776.06,1237.14c-2.16,7.3.08,14.39,5,15.85s10.68-3.26,12.84-10.56-.08-14.39-5-15.85S778.22,1229.85,776.06,1237.14Z" transform="translate(-107.92 -177)"/><path class="cls-18" d="M724,1272.88l-2.14,38.73s4.69,13.11,25.94,13.15c15.67,0,13.86-34.92,13.86-34.92l-1.24-17H724Z" transform="translate(-107.92 -177)"/><path class="cls-28" d="M761,1302.06h.32a91.53,91.53,0,0,0,.36-12.22l-1.25-17H724l-.28,5.18C728.25,1285.83,741.66,1302.06,761,1302.06Z" transform="translate(-107.92 -177)"/><path class="cls-18" d="M739.49,1184.27c-12.27,1.81-21.24,10.5-27.76,21.11-12.92,21-2.42,52,1.13,59.09s17.74,25.33,38.77,25.33,33.54-24.49,35.32-43.24c2.38-25.11-2.17-51.15-26.06-59.88A44.92,44.92,0,0,0,739.49,1184.27Z" transform="translate(-107.92 -177)"/><path class="cls-6" d="M705.58,1234.33s6-33.51,25-41,47.14-5.56,55.77,27.11c0,0-5.34-39.33-15.68-49.66s-31.3-11.49-31.3-11.49l6.92,6.89a65.84,65.84,0,0,0-18.84-2.5c-11.28,0-13.37,2.71-13.37,2.71s7.73,1.25,7.73,3.76-20.47,3.34-20.47,3.34-1.64,16.69-8.28,23.33S705.58,1234.33,705.58,1234.33Z" transform="translate(-107.92 -177)"/><path class="cls-29" d="M1002.46,1394.82c-7.43-4.49-22.85-11.49-32.19-10.86a5.05,5.05,0,0,1-4.71-2.56l-17.85-31.2a5.3,5.3,0,0,1,.11-5.46c5.12-8,6.69-25.21,6.49-34l-38.84-22.89c-7.43,4.34-20.9,14.52-25,23.17a5,5,0,0,1-4.48,2.89l-35,0a5.07,5.07,0,0,1-4.54-2.87c-4.24-8.64-17.93-18.79-25.46-23.1l-38.33,23c0,8.83,1.94,26,7.23,34a5.31,5.31,0,0,1,.23,5.46L773,1381.64a4.91,4.91,0,0,1-4.65,2.58c-9.35-.61-24.61,6.43-31.94,11l.5,45.86c7.43,4.5,22.84,11.5,32.19,10.86a5,5,0,0,1,4.7,2.57l17.86,31.2a5.32,5.32,0,0,1-.11,5.46c-5.12,8-6.69,25.21-6.49,34L823.88,1548c7.43-4.33,20.9-14.51,25-23.16a4.94,4.94,0,0,1,4.47-2.89l35,0a5.07,5.07,0,0,1,4.53,2.88c4.25,8.64,17.94,18.79,25.47,23.1l38.33-23c0-8.83-1.94-26-7.23-34a5.3,5.3,0,0,1-.23-5.46l17.17-31.24a4.94,4.94,0,0,1,4.64-2.58c9.36.61,24.62-6.43,32-10.94Zm-132.79,86.73a63.62,63.62,0,1,1,63.62-63.62A63.69,63.69,0,0,1,869.67,1481.55Z" transform="translate(-107.92 -177)"/><path class="cls-18" d="M763,1440.91c9,9.24,47.34,29.74,58.19,36.56,1.12-.07,7.66-.22,16.94,5.18,6.55,3.82,20.28,5.44,17.09,9s-14.92-2.47-14.39,1,24.15,17.67,21.26,20.92-24.27-11.55-23.79-8.44,21.51,14.59,17.42,19.18-23.42-15.64-25.62-13.18,10.35,14.93,7.06,18.63-16.27-17.78-16-16,2.93,14.92.25,15.4c-3,.56-13.58-32.13-19.58-35.45h0c-16.34-6.58-54.76-25.86-63.77-35.41-14.16-15-37.77-43.35-45.94-58.56-15-27.9-5-36.11-5-36.11s11.52-20.5,26.45.86C726.71,1383.39,752.34,1430,763,1440.91Z" transform="translate(-107.92 -177)"/><path class="cls-3" d="M671.17,1320.47c-5.32,2-11.6,12.75-9.79,27.34,2.49,20.15,17.72,53.61,29.59,69.27,0,0,33-11.13,45.42-27.12-1.36-3.69-21.1-42.1-36.6-58.47C686,1316.94,678.34,1317.77,671.17,1320.47Z" transform="translate(-107.92 -177)"/></svg>