<?xml version="1.0" encoding="UTF-8" standalone="no"?>
<!-- Created with Inkscape (http://www.inkscape.org/) -->

<svg
   width="1080"
   height="1080"
   viewBox="0 0 1080 1080"
   version="1.1"
   id="svg1"
   xml:space="preserve"
   inkscape:version="1.4 (86a8ad7, 2024-10-11)"
   sodipodi:docname="kallistatech-logo.svg"
   inkscape:export-filename="kallistatech-logo-inkscape.svg"
   inkscape:export-xdpi="96"
   inkscape:export-ydpi="96"
   xmlns:inkscape="http://www.inkscape.org/namespaces/inkscape"
   xmlns:sodipodi="http://sodipodi.sourceforge.net/DTD/sodipodi-0.dtd"
   xmlns="http://www.w3.org/2000/svg"
   xmlns:svg="http://www.w3.org/2000/svg"><sodipodi:namedview
     id="namedview1"
     pagecolor="#ffffff"
     bordercolor="#000000"
     borderopacity="0.25"
     inkscape:showpageshadow="2"
     inkscape:pageopacity="0.0"
     inkscape:pagecheckerboard="0"
     inkscape:deskcolor="#d1d1d1"
     inkscape:document-units="px"
     inkscape:zoom="0.5"
     inkscape:cx="673"
     inkscape:cy="487"
     inkscape:window-width="1920"
     inkscape:window-height="967"
     inkscape:window-x="-8"
     inkscape:window-y="34"
     inkscape:window-maximized="1"
     inkscape:current-layer="layer1" /><defs
     id="defs1" /><g
     inkscape:label="Layer 1"
     inkscape:groupmode="layer"
     id="layer1"
     style="display:inline"><g
       id="g3"
       transform="matrix(2.7038341,0,0,2.7038341,-978.86657,-910.90276)"
       style="fill:#3089f7;fill-opacity:1"><path
         id="rect2"
         d="m 439.5,344 15,14 21.75,21.375 25.5,23.875 c 0,0 4.58657,4.3318 6.75,6.625 2.69516,2.85683 5.70345,5.59615 7.75,8.875 2.35569,3.77414 4.40786,7.68684 5.75,11.875 1.5093,4.70979 2.08184,9.697 2.5,14.625 0.4756,5.60486 0,16.875 0,16.875 V 479 v 16.875 16.875 16.875 16.875 16.875 l -0.375,23.5625 c 0,0 -1.42422,5.27819 1.125,6.5625 2.51972,1.26945 5.875,-2.9375 5.875,-2.9375 L 577.5,543.125 c 0,0 5.32335,-4.34663 8.1875,-6.23438 3.74451,-2.46799 8.23333,-5.48266 11.71094,-6.62305 4.5511,-1.4924 14.21094,-2.12304 14.21094,-2.12304 l 23.92187,0.5039 26.92188,-0.24609 4.05273,0.063 4.05274,0.063 4.05273,0.063 4.05274,0.063 4.05273,0.063 4.05273,0.063 4.05274,0.063 c 0,0 3.23853,-0.0386 4.53887,0.32817 1.10374,0.31131 1.7134,0.36291 2.79189,0.90355 1.07848,0.54064 2.13966,1.30515 2.64385,2.33518 1.2562,2.56637 0.84839,4.18218 0.29189,6.16162 -0.30312,1.0782 -0.9107,1.55575 -1.8846,2.78169 -0.97391,1.22595 -2.01101,2.12209 -3.1477,3.27775 -2.27338,2.31133 -5.43123,5.52818 -8.96915,9.15021 -3.53792,3.62204 -7.4559,7.64927 -11.24952,11.58139 -3.79362,3.93212 -7.46289,7.76913 -10.50338,11.0107 -12.16196,12.9663 -13.76353,15.15575 -25.52192,23.04836 -4.06993,2.73187 -9.89806,7.11078 -19.9587,9.30672 C 609.79316,610.92453 595,612.1875 595,612.1875 L 533,611.5 c 0,0 -17.64967,0.2911 -23.25,-3.5 -7.61286,-5.15347 -23.25,-21.5 -23.25,-21.5 L 463.75,563 c 0,0 -15.30329,-13.79336 -19.75,-23.25 -2.17164,-4.61834 -3.375,-17.625 -3.375,-17.625 L 440.25,509.25 439.875,494.125 439.5,479 v -67.5 z"
         sodipodi:nodetypes="ccccssssccccccccsccssccccccccccsssssssssssccsccscccccc"
         style="opacity:1;fill:#3089f7;fill-opacity:1" /><path
         id="rect3"
         style="opacity:1;fill:#14dcb2;fill-opacity:1"
         d="m 537.62897,632.72488 c 0.6365,-1.63238 2.30276,-3.41198 3.99733,-4.54626 2.80309,-1.87628 9.45688,-1.54994 9.45688,-1.54994 l 28.97228,0.45711 28.97227,0.4571 c 0,0 19.51166,1.63279 28.26516,5.58363 7.81357,3.52661 20.42808,15.62348 20.42808,15.62348 l 19.72097,20.75 19.72097,20.75 19.72097,20.75 -27.85225,-0.0429 -27.85225,-0.0429 -27.85225,-0.0429 c 0,0 -21.39697,-1.54014 -30.85746,-6.05331 -7.06471,-3.37025 -18.01256,-15.06542 -18.01256,-15.06542 l -21.01777,-21.07582 -21.01777,-21.07583 c 0,0 -3.31102,-4.46121 -3.90732,-5.59243 -1.27652,-2.42164 -1.73742,-7.09819 -0.88528,-9.28361 z"
         sodipodi:nodetypes="sscccscccccccscccss" /></g></g></svg>
