<svg id="Layer_1" data-name="Layer 1" xmlns="http://www.w3.org/2000/svg" xmlns:xlink="http://www.w3.org/1999/xlink" viewBox="0 0 2779.6 2871.62"><defs><style>.cls-1{fill:none;}.cls-2{fill:#f4f7fa;}.cls-3{fill:url(#linear-gradient);}.cls-4{clip-path:url(#clip-path);}.cls-35,.cls-5{opacity:0.7;}.cls-35,.cls-6{fill:#fff;}.cls-7{fill:url(#linear-gradient-2);}.cls-8{clip-path:url(#clip-path-2);}.cls-9{fill:url(#linear-gradient-3);}.cls-10{fill:url(#linear-gradient-4);}.cls-11{fill:url(#linear-gradient-5);}.cls-12{fill:url(#linear-gradient-6);}.cls-13{fill:url(#linear-gradient-7);}.cls-14,.cls-33,.cls-44,.cls-52,.cls-62,.cls-68{opacity:0.3;}.cls-15{fill:url(#linear-gradient-8);}.cls-16{fill:url(#linear-gradient-9);}.cls-17{fill:url(#linear-gradient-10);}.cls-18{fill:url(#linear-gradient-11);}.cls-19{fill:url(#linear-gradient-12);}.cls-20{fill:url(#linear-gradient-13);}.cls-21{fill:url(#linear-gradient-14);}.cls-22{fill:url(#linear-gradient-15);}.cls-23{fill:url(#linear-gradient-16);}.cls-24{fill:url(#linear-gradient-17);}.cls-25{fill:url(#linear-gradient-18);}.cls-26{fill:url(#linear-gradient-19);}.cls-27{fill:url(#linear-gradient-20);}.cls-28{fill:url(#linear-gradient-21);}.cls-29{fill:#97a6b7;}.cls-30{fill:url(#linear-gradient-22);}.cls-31{fill:url(#linear-gradient-23);}.cls-32{fill:url(#linear-gradient-24);}.cls-33,.cls-34{fill:#d8dee8;}.cls-33,.cls-35,.cls-39,.cls-44,.cls-52,.cls-62,.cls-68{isolation:isolate;}.cls-36{opacity:0.5;}.cls-37{fill:url(#linear-gradient-25);}.cls-38{fill:url(#linear-gradient-26);}.cls-39,.cls-55{opacity:0.2;}.cls-39{fill:url(#linear-gradient-27);}.cls-40{fill:#26264f;}.cls-41{fill:url(#linear-gradient-28);}.cls-42{fill:url(#linear-gradient-29);}.cls-43{fill:url(#linear-gradient-30);}.cls-44{fill:url(#linear-gradient-31);}.cls-45{fill:url(#linear-gradient-32);}.cls-46{fill:url(#linear-gradient-33);}.cls-47{fill:url(#linear-gradient-34);}.cls-48{fill:url(#linear-gradient-35);}.cls-49{fill:url(#linear-gradient-37);}.cls-50{fill:url(#linear-gradient-38);}.cls-51{fill:url(#linear-gradient-39);}.cls-52{fill:url(#linear-gradient-40);}.cls-53{fill:url(#linear-gradient-41);}.cls-54{fill:url(#linear-gradient-42);}.cls-56{fill:url(#linear-gradient-43);}.cls-57{fill:url(#linear-gradient-44);}.cls-58{fill:url(#linear-gradient-45);}.cls-59{fill:url(#linear-gradient-46);}.cls-60{fill:url(#linear-gradient-47);}.cls-61{fill:url(#linear-gradient-48);}.cls-62{fill:url(#linear-gradient-49);}.cls-63{fill:url(#linear-gradient-50);}.cls-64{fill:url(#linear-gradient-51);}.cls-65{fill:url(#linear-gradient-52);}.cls-66{fill:url(#linear-gradient-53);}.cls-67{fill:url(#linear-gradient-54);}.cls-68{fill:url(#linear-gradient-55);}.cls-69{fill:url(#linear-gradient-56);}.cls-70{fill:url(#linear-gradient-57);}.cls-71{fill:url(#linear-gradient-58);}</style><linearGradient id="linear-gradient" x1="1177.78" y1="2304.95" x2="3017.73" y2="3847.53" gradientTransform="matrix(1, 0, 0, -1, 0, 3710)" gradientUnits="userSpaceOnUse"><stop offset="0" stop-color="#e38ddd"/><stop offset="1" stop-color="#9571f6"/></linearGradient><clipPath id="clip-path" transform="translate(-465.2 -383.38)"><path class="cls-1" d="M1556.47,2118.34c157-168.07,128.87-458.59,26.43-519.11-53.29-31.48-104.63,12.29-155.33-27.93-56.18-44.57-20.91-120.33-55.81-265.69-18-75.1-50.72-211.28-140-245-88.54-33.39-144.47,67.33-241.72,36.67-92-29-76.91-130.07-195.49-198.85-11-6.4-136-76.89-215.6-24.65-80.86,53.07-86.33,214.06-22.82,303,57.71,80.85,155.4,78.51,159.51,131.54,4.54,58.44-112.6,80.43-113.7,140.91-1.6,87.43,242,105.27,271.94,237.43,17.62,77.71-58.71,106.38-58,208.49.94,131.79,129.25,245.85,231.73,295.72C1196.13,2263.25,1420.4,2264,1556.47,2118.34Z"/></clipPath><linearGradient id="linear-gradient-2" x1="1032.49" y1="2340.49" x2="2000.52" y2="2340.49" gradientTransform="matrix(1, 0, 0, -1, 0, 3710)" gradientUnits="userSpaceOnUse"><stop offset="0" stop-color="#ff9085"/><stop offset="1" stop-color="#fb6fbb"/></linearGradient><clipPath id="clip-path-2" transform="translate(-465.2 -383.38)"><path class="cls-1" d="M1545.84,2250.28c-254.89-27.64-442.63-293.4-400.18-419.08,22.08-65.36,97.3-65.78,110.82-136.65,15-78.52-69.93-116.82-146.27-265-39.45-76.53-111-215.32-60.1-308.75,50.46-92.65,171-48.32,230.79-145,56.55-91.42-29.73-165.81,20.32-310.2,4.65-13.43,58.87-163.92,164.1-177.75,106.91-14.06,228.72,117.9,239.87,239.27,10.13,110.28-74.06,179.41-38.94,227.19,38.71,52.64,153.63-14.06,198.58,36.2,65,72.66-127.7,265-56.79,398.43,41.69,78.44,150,46.56,173,158,37.16,179.7,18.13,233-32.09,349.73C1876.2,2065.89,1766.77,2274.23,1545.84,2250.28Z"/></clipPath><linearGradient id="linear-gradient-3" x1="2108.46" y1="2647.73" x2="2388.67" y2="2211.85" gradientTransform="matrix(0.93, -0.37, -0.37, -0.93, 352.89, 4108.11)" gradientUnits="userSpaceOnUse"><stop offset="0" stop-color="#fff"/><stop offset="1" stop-color="#f4f7fa"/></linearGradient><linearGradient id="linear-gradient-4" x1="2901.25" y1="3107.87" x2="3137.01" y2="1922.83" gradientTransform="matrix(0.98, -0.18, -0.18, -0.98, -982.11, 3786.03)" gradientUnits="userSpaceOnUse"><stop offset="0" stop-color="#ffc444"/><stop offset="1" stop-color="#f36f56"/></linearGradient><linearGradient id="linear-gradient-5" x1="2827.17" y1="3193.48" x2="3062.94" y2="2008.43" xlink:href="#linear-gradient-4"/><linearGradient id="linear-gradient-6" x1="2771.85" y1="3184.78" x2="3007.62" y2="1999.74" xlink:href="#linear-gradient-4"/><linearGradient id="linear-gradient-7" x1="2732.92" y1="3093.75" x2="2968.69" y2="1908.71" xlink:href="#linear-gradient-4"/><linearGradient id="linear-gradient-8" x1="2635.71" y1="3135.61" x2="2306.58" y2="2330.57" gradientTransform="matrix(0.93, -0.37, -0.37, -0.93, 818.08, 4491.49)" xlink:href="#linear-gradient-4"/><linearGradient id="linear-gradient-9" x1="2787.63" y1="2935.75" x2="2373.99" y2="2186.32" xlink:href="#linear-gradient-3"/><linearGradient id="linear-gradient-10" x1="5617.8" y1="3551.47" x2="5803.63" y2="2553.88" gradientTransform="matrix(0.95, 0.32, 0.32, -0.95, -4474.98, 1875.94)" xlink:href="#linear-gradient"/><linearGradient id="linear-gradient-11" x1="5566.19" y1="3541.85" x2="5752.01" y2="2544.27" gradientTransform="matrix(0.95, 0.32, 0.32, -0.95, -4474.98, 1875.94)" xlink:href="#linear-gradient"/><linearGradient id="linear-gradient-12" x1="5514.57" y1="3532.23" x2="5700.4" y2="2534.65" gradientTransform="matrix(0.95, 0.32, 0.32, -0.95, -4474.98, 1875.94)" xlink:href="#linear-gradient"/><linearGradient id="linear-gradient-13" x1="5428.91" y1="3705.4" x2="5614.73" y2="2707.82" gradientTransform="matrix(0.95, 0.32, 0.32, -0.95, -4474.98, 1875.94)" xlink:href="#linear-gradient"/><linearGradient id="linear-gradient-14" x1="2875.91" y1="2887.04" x2="2462.27" y2="2137.6" gradientTransform="matrix(0.93, -0.37, -0.37, -0.93, 818.08, 4491.49)" xlink:href="#linear-gradient"/><linearGradient id="linear-gradient-15" x1="2591.75" y1="2287.55" x2="2720.74" y2="1811.62" xlink:href="#linear-gradient-3"/><linearGradient id="linear-gradient-16" x1="7806.49" y1="5157.07" x2="7992.32" y2="4159.41" gradientTransform="matrix(0.68, 0.74, 0.74, -0.68, -6612.27, -1482.08)" xlink:href="#linear-gradient-2"/><linearGradient id="linear-gradient-17" x1="7743.46" y1="5208.59" x2="7929.3" y2="4210.94" gradientTransform="matrix(0.68, 0.74, 0.74, -0.68, -6612.27, -1482.08)" xlink:href="#linear-gradient-2"/><linearGradient id="linear-gradient-18" x1="7685.16" y1="5234.72" x2="7871" y2="4237.07" gradientTransform="matrix(0.68, 0.74, 0.74, -0.68, -6612.27, -1482.08)" xlink:href="#linear-gradient-2"/><linearGradient id="linear-gradient-19" x1="7622.24" y1="5285.69" x2="7808.08" y2="4288.04" gradientTransform="matrix(0.68, 0.74, 0.74, -0.68, -6612.27, -1482.08)" xlink:href="#linear-gradient-2"/><linearGradient id="linear-gradient-20" x1="3132.23" y1="2656.02" x2="2749.72" y2="2051.12" gradientTransform="matrix(0.93, -0.37, -0.37, -0.93, 818.08, 4491.49)" xlink:href="#linear-gradient-2"/><linearGradient id="linear-gradient-21" x1="2863.99" y1="1688.48" x2="2978.1" y2="1688.48" gradientTransform="matrix(0.33, 0.94, 0.94, -0.33, -506.01, -203.06)" xlink:href="#linear-gradient"/><linearGradient id="linear-gradient-22" x1="1959.93" y1="97.06" x2="2016.8" y2="646.82" gradientTransform="matrix(1, 0, 0, -1, 0, 3710)" gradientUnits="userSpaceOnUse"><stop offset="0" stop-color="#444b8c"/><stop offset="1" stop-color="#26264f"/></linearGradient><linearGradient id="linear-gradient-23" x1="1565.25" y1="1631" x2="964.94" y2="1561.49" gradientTransform="matrix(1, 0, 0, -1, 0, 3710)" gradientUnits="userSpaceOnUse"><stop offset="0" stop-color="#444b8c"/><stop offset="0.39" stop-color="#383c74"/><stop offset="1" stop-color="#26264f"/></linearGradient><linearGradient id="linear-gradient-24" x1="2586.93" y1="2733.41" x2="975.57" y2="281.61" xlink:href="#linear-gradient-22"/><linearGradient id="linear-gradient-25" x1="550.68" y1="1820.13" x2="1762.72" y2="1820.13" gradientTransform="matrix(0.95, -0.3, -0.3, -0.95, 525.13, 4276.48)" gradientUnits="userSpaceOnUse"><stop offset="0" stop-color="#ab316d"/><stop offset="1" stop-color="#792d3d"/></linearGradient><linearGradient id="linear-gradient-26" x1="583.77" y1="1820.13" x2="1795.81" y2="1820.13" gradientTransform="matrix(0.95, -0.3, -0.3, -0.95, 525.13, 4276.48)" xlink:href="#linear-gradient-2"/><linearGradient id="linear-gradient-27" x1="583.77" y1="1820.13" x2="1795.8" y2="1820.13" gradientTransform="matrix(0.95, -0.3, -0.3, -0.95, 525.13, 4276.48)" xlink:href="#linear-gradient-2"/><linearGradient id="linear-gradient-28" x1="887.6" y1="551.26" x2="874.67" y2="466.83" gradientTransform="matrix(1, 0, 0, -1, 0, 3710)" gradientUnits="userSpaceOnUse"><stop offset="0" stop-color="#311944"/><stop offset="1" stop-color="#a03976"/></linearGradient><linearGradient id="linear-gradient-29" x1="849.61" y1="853.54" x2="1054.36" y2="853.54" gradientTransform="matrix(1, 0, 0, -1, 0, 3710)" xlink:href="#linear-gradient-25"/><linearGradient id="linear-gradient-30" x1="1185.06" y1="550.66" x2="1158.51" y2="455.34" xlink:href="#linear-gradient-28"/><linearGradient id="linear-gradient-31" x1="849.61" y1="853.54" x2="1054.36" y2="853.54" gradientTransform="matrix(1, 0, 0, -1, 0, 3710)" xlink:href="#linear-gradient-25"/><linearGradient id="linear-gradient-32" x1="915.19" y1="854.45" x2="1259.82" y2="854.45" gradientTransform="matrix(1, 0, 0, -1, 0, 3710)" xlink:href="#linear-gradient-25"/><linearGradient id="linear-gradient-33" x1="953.34" y1="1691.48" x2="751.8" y2="1191.74" xlink:href="#linear-gradient-28"/><linearGradient id="linear-gradient-34" x1="1508.68" y1="1272.7" x2="1516.46" y2="1569.84" xlink:href="#linear-gradient-28"/><linearGradient id="linear-gradient-35" x1="1120.28" y1="1620.56" x2="856.11" y2="1002.35" gradientTransform="matrix(1, 0, 0, -1, 0, 3710)" gradientUnits="userSpaceOnUse"><stop offset="0" stop-color="#aa80f9"/><stop offset="1" stop-color="#6165d7"/></linearGradient><linearGradient id="linear-gradient-37" x1="779.54" y1="1623.53" x2="934.53" y2="1623.53" xlink:href="#linear-gradient-28"/><linearGradient id="linear-gradient-38" x1="4206.04" y1="1575.01" x2="4120.75" y2="1695.83" gradientTransform="translate(5005.05 3710) rotate(180)" xlink:href="#linear-gradient-28"/><linearGradient id="linear-gradient-39" x1="4200.09" y1="1570.81" x2="4114.81" y2="1691.63" gradientTransform="translate(5005.05 3710) rotate(180)" xlink:href="#linear-gradient-28"/><linearGradient id="linear-gradient-40" x1="1019.42" y1="1663.66" x2="755.25" y2="1045.44" xlink:href="#linear-gradient-35"/><linearGradient id="linear-gradient-41" x1="2564.6" y1="2019.62" x2="2079.43" y2="1627.25" xlink:href="#linear-gradient-35"/><linearGradient id="linear-gradient-42" x1="2390.98" y1="1864.34" x2="3439.5" y2="2667.02" xlink:href="#linear-gradient-35"/><linearGradient id="linear-gradient-43" x1="2043.76" y1="1915.79" x2="2853.2" y2="1915.79" xlink:href="#linear-gradient-35"/><linearGradient id="linear-gradient-44" x1="2869.39" y1="1753.57" x2="2902.63" y2="1517.33" gradientTransform="matrix(1, 0, 0, -1, 0, 3710)" xlink:href="#linear-gradient-4"/><linearGradient id="linear-gradient-45" x1="2052.41" y1="1638.62" x2="2085.65" y2="1402.38" gradientTransform="matrix(1, 0, 0, -1, 0, 3710)" xlink:href="#linear-gradient-4"/><linearGradient id="linear-gradient-46" x1="2720.89" y1="584.6" x2="2771.12" y2="435.11" gradientTransform="matrix(1, 0, 0, -1, 0, 3710)" xlink:href="#linear-gradient-4"/><linearGradient id="linear-gradient-47" x1="2656.56" y1="562.44" x2="2706.41" y2="414.05" gradientTransform="matrix(1, 0, 0, -1, -465.2, 3326.62)" xlink:href="#linear-gradient-4"/><linearGradient id="linear-gradient-48" x1="2859.5" y1="661.25" x2="2623.66" y2="927.17" gradientTransform="matrix(1, 0, 0, -1, 0, 3710)" gradientUnits="userSpaceOnUse"><stop offset="0" stop-color="#444b8c"/><stop offset="1" stop-color="#3e4177"/></linearGradient><linearGradient id="linear-gradient-49" x1="2859.5" y1="661.25" x2="2623.66" y2="927.17" xlink:href="#linear-gradient-48"/><linearGradient id="linear-gradient-50" x1="2562.93" y1="812.82" x2="2214.71" y2="877.72" xlink:href="#linear-gradient-48"/><linearGradient id="linear-gradient-51" x1="2396.21" y1="1890.27" x2="2613.05" y2="1094.11" xlink:href="#linear-gradient-2"/><linearGradient id="linear-gradient-52" x1="2495.33" y1="1583.13" x2="2534.5" y2="1467.58" gradientTransform="matrix(1, 0, 0, -1, 0, 3710)" xlink:href="#linear-gradient-4"/><linearGradient id="linear-gradient-53" x1="2474.33" y1="146.74" x2="2513.51" y2="31.19" gradientTransform="matrix(1, 0, 0, -1, 514.58, 3710)" xlink:href="#linear-gradient-4"/><linearGradient id="linear-gradient-54" x1="3319.13" y1="-552.76" x2="3420.03" y2="-715.39" gradientTransform="matrix(1, 0, 0, -1, 514.58, 3710)" xlink:href="#linear-gradient-4"/><linearGradient id="linear-gradient-55" x1="2243.38" y1="1848.64" x2="2460.22" y2="1052.49" xlink:href="#linear-gradient-2"/><linearGradient id="linear-gradient-56" x1="1383.98" y1="1471.11" x2="1793.03" y2="650.24" gradientTransform="matrix(1, 0, 0, -1, 0, 3710)" gradientUnits="userSpaceOnUse"><stop offset="0" stop-color="#311944"/><stop offset="1" stop-color="#893976"/></linearGradient><linearGradient id="linear-gradient-57" x1="1624.53" y1="931.94" x2="2021.84" y2="195.04" xlink:href="#linear-gradient-2"/><linearGradient id="linear-gradient-58" x1="1515.42" y1="882.97" x2="1901.4" y2="108.4" xlink:href="#linear-gradient-2"/></defs><g id="Illustration"><path class="cls-2" d="M3204.07,1631.26C3129,1140,2821.26,536.34,2213.27,473.17c0,0-461.61-56.15-916.67,28.95C1026.53,552.63,789.71,703,639.87,919.06S440,1398.63,500.71,1649.83c39.46,163.16,66.12,332,58.8,499.67-12.73,291.79-5.41,564.15,277.76,738.16,252.84,155.37,571.05,292.41,874.61,316.41,206.31,16.31,437.66-10.08,636.5-63.79C3361.7,2866.55,3279.14,2122.57,3204.07,1631.26Z" transform="translate(-465.2 -383.38)"/><path id="SVGID" class="cls-3" d="M1556.47,2118.34c157-168.07,128.87-458.59,26.43-519.11-53.29-31.48-104.63,12.29-155.33-27.93-56.18-44.57-20.91-120.33-55.81-265.69-18-75.1-50.72-211.28-140-245-88.54-33.39-144.47,67.33-241.72,36.67-92-29-76.91-130.07-195.49-198.85-11-6.4-136-76.89-215.6-24.65-80.86,53.07-86.33,214.06-22.82,303,57.71,80.85,155.4,78.51,159.51,131.54,4.54,58.44-112.6,80.43-113.7,140.91-1.6,87.43,242,105.27,271.94,237.43,17.62,77.71-58.71,106.38-58,208.49.94,131.79,129.25,245.85,231.73,295.72C1196.13,2263.25,1420.4,2264,1556.47,2118.34Z" transform="translate(-465.2 -383.38)"/><g class="cls-4"><g class="cls-5"><path class="cls-6" d="M1486.39,2260l6.6-3.11c-120.26-255.36-247.94-489.28-379.49-695.28-105.27-164.84-213.24-312.27-320.91-438.2C609.09,908.79,488.32,830,487.12,829.2l-3.95,6.13c1.2.77,121.33,79.23,304.22,293.2C956.2,1326,1214.5,1682.65,1486.39,2260Z" transform="translate(-465.2 -383.38)"/><path class="cls-6" d="M809.45,1144.59c-2.28-225.92-107.89-390.27-109-391.9l-6.1,4c1.06,1.62,105.51,164.29,107.77,388Z" transform="translate(-465.2 -383.38)"/><path class="cls-6" d="M1133,1590.75c74.21-234.67,78.85-391.9,69.67-482.47-10-98.66-37.37-141-38.53-142.8l-6.09,4c.28.42,27.73,43.14,37.45,140.33,9,89.81,4.22,245.76-69.45,478.73Z" transform="translate(-465.2 -383.38)"/><path class="cls-6" d="M1385.86,2042.59c218.63-370.6,181.19-621.53,180.79-624l-7.2,1.17c.11.63,9.61,65.7-9.33,177.08-16.69,98.08-59.82,254.39-170.53,442.08Z" transform="translate(-465.2 -383.38)"/><path class="cls-6" d="M1013.9,1541.69a666,666,0,0,0,76.75-6l-1-7.22c-169.18,23.23-327.7-24.53-430.87-68.69-111.85-47.87-184.48-101.87-185.2-102.41l-4.37,5.84c.73.54,74.05,55.06,186.7,103.27C744.16,1504.26,872.63,1544.64,1013.9,1541.69Z" transform="translate(-465.2 -383.38)"/><path class="cls-6" d="M1297.14,1962.59q20.43-.42,41.4-2.35l-.68-7.25c-177.28,16.43-326.54-53.16-420.53-114.43C815.4,1772.12,754.76,1701,754.16,1700.26l-5.57,4.7c.61.72,61.94,72.69,164.76,139.71C1000.91,1901.74,1136,1966,1297.14,1962.59Z" transform="translate(-465.2 -383.38)"/></g></g><path id="SVGID-2" data-name="SVGID" class="cls-7" d="M1545.84,2250.28c-254.89-27.64-442.63-293.4-400.18-419.08,22.08-65.36,97.3-65.78,110.82-136.65,15-78.52-69.93-116.82-146.27-265-39.45-76.53-111-215.32-60.1-308.75,50.46-92.65,171-48.32,230.79-145,56.55-91.42-29.73-165.81,20.32-310.2,4.65-13.43,58.87-163.92,164.1-177.75,106.91-14.06,228.72,117.9,239.87,239.27,10.13,110.28-74.06,179.41-38.94,227.19,38.71,52.64,153.63-14.06,198.58,36.2,65,72.66-127.7,265-56.79,398.43,41.69,78.44,150,46.56,173,158,37.16,179.7,18.13,233-32.09,349.73C1876.2,2065.89,1766.77,2274.23,1545.84,2250.28Z" transform="translate(-465.2 -383.38)"/><g class="cls-8"><g class="cls-5"><path class="cls-6" d="M1708.12,2318.87l-7.83,2.18c-84.33-303.15-146.81-593.61-185.68-863.31-31.11-215.81-47.26-418.89-48-603.6-1.28-314.77,43.33-469.24,43.78-470.76l7.79,2.3c-.45,1.52-44.77,155.22-43.44,469C1476,1144.33,1517.44,1633.47,1708.12,2318.87Z" transform="translate(-465.2 -383.38)"/><path class="cls-6" d="M1467.79,884.31c-162.53-192.42-193-408.06-193.27-410.22l8-1.08c.28,2.13,30.49,215.52,191.43,406.06Z" transform="translate(-465.2 -383.38)"/><path class="cls-6" d="M1519.4,1496.51c-233.48-144.12-351.85-273.5-410-356.66-63.37-90.58-71.11-146.3-71.41-148.62l8.06-1c.08.55,8,56.6,70.53,145.74,57.79,82.37,175.33,210.58,407.12,353.67Z" transform="translate(-465.2 -383.38)"/><path class="cls-6" d="M1634.76,2062.13c-454.37-153.78-605.42-392.91-606.89-395.3l6.92-4.26c.37.6,39.71,62.47,136.79,142.73,85.48,70.66,235.68,171.25,465.78,249.14Z" transform="translate(-465.2 -383.38)"/><path class="cls-6" d="M1584.21,1368.43a740.75,740.75,0,0,1-69.16,50.8l-4.42-6.82c159.76-103.54,258.84-259.25,313.82-371.64,59.59-121.84,81.61-220.3,81.82-221.28l7.94,1.74c-.22,1-22.44,100.4-82.46,223.11C1784.72,1140.48,1705.64,1268.09,1584.21,1368.43Z" transform="translate(-465.2 -383.38)"/><path class="cls-6" d="M1651.44,1930q-17.57,14.52-36.66,28.15l-4.72-6.62c161.66-115.17,237-282.57,271.79-402.73,37.7-130.3,37.11-234.51,37.1-235.55l8.13-.08c0,1,.61,106.46-37.42,237.89C1857.27,1663,1790,1815.56,1651.44,1930Z" transform="translate(-465.2 -383.38)"/></g></g><polygon class="cls-9" points="1920.83 1671.26 1392.91 1766.43 1134.57 333.37 1662.49 238.2 1920.83 1671.26"/><polygon class="cls-10" points="1643.79 555.1 1245.6 626.88 1202.14 385.78 1600.33 314 1643.79 555.1"/><polygon class="cls-11" points="1694.66 837.28 1296.47 909.06 1253.01 667.96 1651.2 596.18 1694.66 837.28"/><polygon class="cls-12" points="1745.53 1119.45 1347.34 1191.23 1303.88 950.13 1702.07 878.35 1745.53 1119.45"/><polygon class="cls-13" points="1796.4 1401.63 1398.21 1473.41 1354.74 1232.31 1752.93 1160.53 1796.4 1401.63"/><g class="cls-14"><path class="cls-15" d="M2127.68,621.58l-280.63,50.59c40.38,42.26,76.66,95.22,96.22,160.44,37.22,124.11-12.46,204.75-18.65,372.77-6.46,175.35,41.39,257.44,78.88,420.5,27.36,119,49.43,282.09,34.13,491.57L2386,2054.64Z" transform="translate(-465.2 -383.38)"/></g><polygon class="cls-16" points="1808.55 1815.35 1300.22 1644.01 1765.32 264.13 2273.65 435.46 1808.55 1815.35"/><polygon class="cls-17" points="2104.39 704.02 1720.97 574.79 1799.22 342.64 2182.63 471.87 2104.39 704.02"/><polygon class="cls-18" points="2012.81 975.73 1629.39 846.5 1707.64 614.34 2091.05 743.57 2012.81 975.73"/><polygon class="cls-19" points="1921.23 1247.43 1537.81 1118.2 1616.06 886.05 1999.47 1015.28 1921.23 1247.43"/><polygon class="cls-20" points="1829.65 1519.13 1446.23 1389.9 1524.48 1157.75 1907.9 1286.98 1829.65 1519.13"/><g class="cls-14"><path class="cls-21" d="M2738.84,818.84,2404.05,706c29.94,90.39,25.39,158.09,13.12,206.54-34.46,136.12-139.92,160.7-210.33,322.52-66,151.74-28.94,258-34.85,386.27-5.63,122-51,282.06-211.8,471.72l313.56,105.68Z" transform="translate(-465.2 -383.38)"/></g><polygon class="cls-22" points="1692.08 1879.23 1329.49 1483.92 2402.6 499.63 2765.2 894.94 1692.08 1879.23"/><polygon class="cls-23" points="2487.37 1048.52 2213.87 750.35 2394.41 584.75 2667.91 882.92 2487.37 1048.52"/><polygon class="cls-24" points="2276.07 1242.33 2002.57 944.16 2183.11 778.56 2456.61 1076.73 2276.07 1242.33"/><polygon class="cls-25" points="2064.77 1436.14 1791.27 1137.97 1971.81 972.37 2245.31 1270.55 2064.77 1436.14"/><polygon class="cls-26" points="1853.47 1629.95 1579.97 1331.78 1760.51 1166.18 2034.01 1464.36 1853.47 1629.95"/><g class="cls-14"><path class="cls-27" d="M3230.39,1278.32l-232.71-253.71c-9,131.15-52.8,205.28-93.3,249.64-94.67,103.69-199.23,75.54-337.74,184.9-129.87,102.55-147.38,213.72-213.19,324-58.35,97.77-162.73,208.26-363.84,296.67l167.67,182.8Z" transform="translate(-465.2 -383.38)"/></g><circle class="cls-28" cx="2058.15" cy="1989.59" r="57.05" transform="translate(-700.62 3319.09) rotate(-80.78)"/><path class="cls-29" d="M2245.23,3118.22a108.18,108.18,0,0,1-71.73-81.45l-53.32-263.89-456.1,16.2L1608,3064c-7.86,38.5,23.61,77.12,59.85,91.3L1858.62,3230a248.07,248.07,0,0,0,111.56,16.18l403.27-34.5a25,25,0,0,0,22.62-22.17c1.37-11.88,9.63-25.23-1.61-29Z" transform="translate(-465.2 -383.38)"/><path class="cls-30" d="M2249.74,3102.17a107.26,107.26,0,0,1-71.66-80.43l-53.26-260.57-445,16-56.07,271.45a79.42,79.42,0,0,0,49.13,90.15l190.63,73.72a250.49,250.49,0,0,0,111.44,16l402.87-34.07a24.85,24.85,0,0,0,5.65-48.38Z" transform="translate(-465.2 -383.38)"/><path class="cls-31" d="M732.12,2948.27c-49.46,2.95-89.92-29.14-89.92-71.54V1348.41c0-42.41,40.46-75.15,89.92-73l2287.34,99.11c36.31,1.57,65.71,32.19,65.71,68.25V2742.59c0,36.06-29.4,67.15-65.71,69.32Z" transform="translate(-465.2 -383.38)"/><path class="cls-32" d="M752.68,2948.27c-49.46,2.95-89.93-29.14-89.93-71.54V1348.41c0-42.41,40.47-75.15,89.93-73L3040,1374.51c36.32,1.57,65.72,32.19,65.72,68.25V2742.59c0,36.06-29.4,67.15-65.72,69.32Z" transform="translate(-465.2 -383.38)"/><path class="cls-33" d="M3040,1405.1,752.68,1311c-26.45-1.09-47.94,16.39-47.94,39V2874.42c0,22.65,21.49,39.77,47.94,38.25L3040,2781.32c19.47-1.12,35.2-17.71,35.2-37.06V1441.58C3075.22,1422.23,3059.48,1405.9,3040,1405.1Z" transform="translate(-465.2 -383.38)"/><path class="cls-34" d="M3051.41,1440.76V2655.38c0,7.55-5,14-12.57,14.37L751.76,2782.83c-10.3.51-18.41-6.25-18.41-15V1351.15c0-8.78,8.7-15.64,19-15.23l2286.33,90.59C3046.27,1426.82,3051.41,1433.2,3051.41,1440.76Z" transform="translate(-465.2 -383.38)"/><path class="cls-35" d="M3053.54,1442.21l1.28,204.49L733.35,1601.83V1351.09c0-8.75,8.55-15.58,18.67-15.17l2287.76,91.83A14.51,14.51,0,0,1,3053.54,1442.21Z" transform="translate(-465.2 -383.38)"/><g class="cls-36"><polygon class="cls-6" points="1756.38 1842.87 404.6 1865.86 404.03 1317.66 1750.96 1336.36 1756.38 1842.87"/><polygon class="cls-6" points="2495.14 1830.31 1833.94 1841.55 1828.27 1337.43 2487.42 1346.58 2495.14 1830.31"/><polygon class="cls-6" points="2500.91 2191.54 405.02 2275.56 404.67 1937.76 2496.15 1893.72 2500.91 2191.54"/></g><path class="cls-37" d="M1713,2158.55c5.44,17.51-3.22,34.43-18.87,39.3l-1100.81,342c-15.66,4.87-32.38-4.17-37.82-21.68l-88.64-285.34c-5.44-17.51,2.84-35.65,18.5-40.51l1100.8-342c15.66-4.86,32.76,5.39,38.2,22.9Z" transform="translate(-465.2 -383.38)"/><path class="cls-38" d="M1656,1863.4l88.64,285.35c5.44,17.49-3.23,34.42-18.88,39.28L624.93,2530c-15.66,4.86-32.39-4.18-37.82-21.67L498.46,2223c-5.44-17.52,2.85-35.66,18.5-40.52l1100.81-342C1633.42,1835.63,1650.52,1845.88,1656,1863.4Z" transform="translate(-465.2 -383.38)"/><path class="cls-39" d="M1719.11,2066.66l25.5,82.09c5.44,17.49-3.23,34.42-18.88,39.28L624.93,2530c-15.66,4.86-32.39-4.18-37.82-21.67L498.46,2223c-5.44-17.52,2.85-35.66,18.5-40.52l140.74-43.72c36.65-2,74.21,3.68,107,23.71,110.79,67.69,119.87,157.77,406,54.73C1379,2142.1,1598.47,2062,1719.11,2066.66Z" transform="translate(-465.2 -383.38)"/><path class="cls-40" d="M873.42,3196.32c2.52-2.16,5.36-1.39,18.09.82,15.65,2.72,18.91,2.87,24.12,6,1.28.76,9.86,5.89,8.9,9-.73,2.34-6.43,1.78-27.28,1.25-18.45-.47-23.21-.27-25.64-4S870.1,3199.16,873.42,3196.32Z" transform="translate(-465.2 -383.38)"/><path class="cls-41" d="M876.14,3183.12l2.73,17.91c3.44,1.82,6.77,2,10,0l-.23-15.68Z" transform="translate(-465.2 -383.38)"/><path class="cls-42" d="M857.08,2522.39a531,531,0,0,0,6.35,109.84c14.16,86.64,38.38,97.85,43.06,164.19,4,56-9.36,103.77-25.14,160.46-16.59,59.62-29.7,76.94-31.53,120.18-2,47.68,11.35,87.1,22.69,112.57l19.07.9a594.31,594.31,0,0,1,50.83-139.8c31-60.22,62.94-96.42,74.44-111.66,40.84-54.09,65.16-163.45-18.15-408.51Z" transform="translate(-465.2 -383.38)"/><path class="cls-43" d="M1164.58,3185.82l6.6,28s4.29,4,11.81,0v-26.63Z" transform="translate(-465.2 -383.38)"/><path class="cls-40" d="M1167.77,3212.61c2.52-2.16,5.36-1.4,18.09.82,15.65,2.72,18.91,2.87,24.12,6,1.28.76,9.86,5.89,8.9,9-.73,2.34-6.43,1.78-27.28,1.25-18.45-.47-23.21-.27-25.64-4S1164.45,3215.45,1167.77,3212.61Z" transform="translate(-465.2 -383.38)"/><path class="cls-44" d="M998.7,2530.56l-141.62-8.17a531.1,531.1,0,0,0,6.35,109.85,387.42,387.42,0,0,0,15.67,64.1,114,114,0,0,0,12,10.79c36.79,28.17,68.08,16.71,83.06,42.21,14.8,25.16-11.11,44.06-8.17,108.94,1.89,41.37,12.76,41.18,8.17,64-9.58,47.68-56.68,46.6-76.25,99.4-12.31,33.22,2.39,44.28-10.89,81.7a144,144,0,0,1-28.46,47.39,280.67,280.67,0,0,0,13.93,38.86l19.07.9a594.31,594.31,0,0,1,50.83-139.8c31-60.22,62.94-96.42,74.44-111.66C1057.69,2885,1082,2775.62,998.7,2530.56Z" transform="translate(-465.2 -383.38)"/><path class="cls-45" d="M930.61,2509.68c-13,27.17-15.36,49.21-15.42,63.43-.31,77.15,66.21,147.33,164.55,248.74,24.23,25,36,35.68,44.89,58,18.42,46.06-.23,80-3.38,150-3,65.47,3.57,93.73,9.53,113a253.59,253.59,0,0,0,25.87,57.2l32.68,1.36c25.88-41.11,64.53-115.66,69.88-213.82,4.46-81.81-16.22-143-42.85-221.84a1029,1029,0,0,0-104.64-219.32Z" transform="translate(-465.2 -383.38)"/><path class="cls-46" d="M737.23,2462.41v9.25l15.6,3.48a33.45,33.45,0,0,1,6,2l6.7,2.9a41.59,41.59,0,0,0,40.46-4.17h0Z" transform="translate(-465.2 -383.38)"/><path class="cls-47" d="M1545.4,2182.38c-1.29-6.07-6.45.33-9.51-2-6.34-4.85-17.32,12.37-24.51,19-7.83,7.23-6.05,15.39-10.9,30.48a97.59,97.59,0,0,1-17.7,32l17.7,19.07,20.72-31.36a50.88,50.88,0,0,0,13.62-18.32,49,49,0,0,0,3-9.51l4.67-14C1544.26,2197.16,1546.62,2188.11,1545.4,2182.38Z" transform="translate(-465.2 -383.38)"/><path class="cls-48" d="M743.64,2452.32l-2.31,30.13c-11.22,1.51-81.1,9.8-132.08-38.13-62.1-58.39-41.9-149.19-38.13-166.13,26.36-118.44,152.6-164.41,167.22-169.47,52.71-18.26,96-14.07,177.29-6.19,60.44,5.86,120.84,11.72,186.58,40.16,143.43,62,162.29,163.77,253.28,165.93,31.16.74,77.39-10.12,135-69.64l26,17.69c-4.22,18.28-27.19,109.41-110.66,155-91.78,50.1-219.45,24.75-305.11-68.75-6.75,76.19,7.47,130.16,23.24,166.79,12.51,29,24.87,44.59,17.7,61.28-12.93,30.11-74.7,29.46-156.59,28.59-80.55-.85-121.26-1.75-142.58-25.21-21.71-23.88-10.41-45.58-22.38-132.94-10.25-74.84-17.81-130.05-46.29-138.61-26.17-7.85-73.8,22.56-78.76,69.05C691.48,2405.39,711.09,2438.39,743.64,2452.32Z" transform="translate(-465.2 -383.38)"/><path class="cls-48" d="M743.64,2452.32l-2.31,30.13c-11.22,1.51-81.1,9.8-132.08-38.13-62.1-58.39-41.9-149.19-38.13-166.13,26.36-118.44,152.6-164.41,167.22-169.47,52.71-18.26,96-14.07,177.29-6.19,60.44,5.86,120.84,11.72,186.58,40.16,143.43,62,162.29,163.77,253.28,165.93,31.16.74,77.39-10.12,135-69.64l26,17.69c-4.22,18.28-27.19,109.41-110.66,155-91.78,50.1-219.45,24.75-305.11-68.75-6.75,76.19,7.47,130.16,23.24,166.79,12.51,29,24.87,44.59,17.7,61.28-12.93,30.11-74.7,29.46-156.59,28.59-80.55-.85-121.26-1.75-142.58-25.21-25.51-28.06-5.9-55-22.38-132.94-2.59-12.28-28.7-131.72-72.1-134.11-23.29-1.27-49.37,31.28-52.95,64.55C691.43,2405.56,711.07,2438.55,743.64,2452.32Z" transform="translate(-465.2 -383.38)"/><path class="cls-49" d="M841.42,2042.62c3.87,38.68-3.28,52.41-11.63,57.07-11.39,6.36-36.72,2.44-48.71,11-.57.41-1.59,1.14-1.54,2.11.23,4,20.63,6.42,47.58,12.87,31.32,7.49,92.21,4.77,104.66,0,.87-.34,2.62-1.07,2.74-2.26.49-4.81-27-2.92-43.06-19.19-12-12.16-7.51-24.16-24.88-43.91a91.48,91.48,0,0,0-10.52-10.21Z" transform="translate(-465.2 -383.38)"/><path class="cls-50" d="M868.84,2078.08c2.89-1.59,26.31-4.43,29.54-17,4.38-17.1-11-37.91-12.9-41.26-8-14-10-15.91-13.76-18.29l-5.17-3s-.3-.12-.61-.22c-3.3-1.09-14.47-1.18-16.72-.65-7.19,1.71-14.22,31.31-11.08,72.87-.27,1.59-.52,3.2-.76,4.81C836.75,2079.49,869.06,2079.56,868.84,2078.08Z" transform="translate(-465.2 -383.38)"/><path class="cls-40" d="M890.88,1995.82c-2.71,7.85-13.41,16-18.18,19.57a21.46,21.46,0,0,0-4.56,5.2,7.19,7.19,0,0,0-.7,1.54c-2.64,8.19,10.49,17.45,8.08,21.15-1.74,2.68-10.6-.65-11.59,1.65s6.46,6.44,5.4,9c-.8,2-5.33.29-8.1,3.32-1.37,1.51-.93,2.68-2.32,7.23a41.18,41.18,0,0,1-2.79,7c-4.29,7.67-16.84,10.72-19.34,7.74-.69-.83-.13-1.55-.88-4.36a22.66,22.66,0,0,0-2.6-5.61c-2.7-4.27-9.07-7.23-15.53-11.67-12-8.21-15.33-15.36-16.35-17.78l-.3-.75q-.25-.61-.45-1.23c-2.7-8.75,4.22-18.18,8-22.58a120.35,120.35,0,0,1,27.5-23.72c3.59-2.24,38.44-23.75,51.22-13.12C891.91,1982.21,892.71,1990.49,890.88,1995.82Z" transform="translate(-465.2 -383.38)"/><path class="cls-51" d="M870.82,2040.35c-3.25-4.27-8.71-.06-8.62,5.55s5.67,11.34,10.92,10.11S875.2,2046.1,870.82,2040.35Z" transform="translate(-465.2 -383.38)"/><path class="cls-52" d="M1121.25,2565.51c-18.36,8.74-43.88,8.24-58.55-5.45-22.81-21.27.59-60.61-23.15-76.25-21.69-14.29-42.81,4.56-62.64-8.17-34.14-21.92,4.81-93-31.32-133.45-29.77-33.31-73.07-3.89-108.94-38.13-40.2-38.38-8.46-97-44.93-122.55-30.5-21.33-85.63-3.33-118.47,20.43-55.22,39.95-58.81,104.46-84.43,103.49-5.68-.22-12.53-3.72-20.15-15-5.51,31.13-12.28,104.15,40.58,153.85,51,47.93,120.87,39.64,132.09,38.13q1.14-15.06,2.3-30.12c-32.56-13.78-52.21-46.76-48.57-80.49,3.59-33.26,29.66-65.82,53-64.54,43.39,2.38,69.5,121.82,72.1,134.1,16.47,78-3.13,104.88,22.37,132.95,21.32,23.45,62,24.35,142.58,25.21,81.89.86,143.66,1.51,156.6-28.6,3.08-7.18,2.42-14.21-.18-22.13A56.44,56.44,0,0,1,1121.25,2565.51Z" transform="translate(-465.2 -383.38)"/><path class="cls-53" d="M2851.75,2021c0,26.13-19.25,49.41-40.82,49.41H2062.64c-21.56,0-39.6-23.28-39.6-49.41V1563.56c0-26.14,18-45.59,39.6-45.59h748.29c21.57,0,40.82,19.45,40.82,45.59Z" transform="translate(-465.2 -383.38)"/><path class="cls-54" d="M2872.47,1563.57V2021c0,17.53-7.74,33.84-19.41,42.3-5.73,4.17-12.26,7.11-19.35,7.11H2085.42c-21.57,0-41.66-23.29-41.66-49.41V1563.57c0-26.16,20.09-45.6,41.66-45.6h748.29C2855.28,1518,2872.47,1537.41,2872.47,1563.57Z" transform="translate(-465.2 -383.38)"/><path class="cls-6" d="M2754.52,1984.7l-145.09-204.31a8.24,8.24,0,0,0-13.18,0l-83.43,117.46L2376.16,1705.4a8.25,8.25,0,0,0-13.18,0L2164.6,1984.7a8.54,8.54,0,0,0-.36,8.44c1.38,2.38,4.05,4.79,7,4.79h576.74c2.91,0,5.58-2.41,7-4.79A8.54,8.54,0,0,0,2754.52,1984.7Z" transform="translate(-465.2 -383.38)"/><circle class="cls-6" cx="2120.11" cy="1268.78" r="62.52"/><g class="cls-55"><path class="cls-56" d="M2853.2,2063.34c-5.73,4.17-12.4,7.11-19.49,7.11H2085.42c-21.57,0-41.66-23.29-41.66-49.41V1563.57c0-26.16,20.09-45.6,41.66-45.6H2093c13.93,24.18,31.17,56.82,52.58,85.74,196.28,265.09,506.56,188.61,685.83,428.55C2839.47,2043.1,2846.69,2053.32,2853.2,2063.34Z" transform="translate(-465.2 -383.38)"/></g><path class="cls-57" d="M2851.8,1978.22v-45.44s-6.53-9.7-10-33.72,2.81-14.5,5.86-4.5a16.51,16.51,0,0,0,4.73,7.1,9,9,0,0,0,15-5.45l4.3-30.09s17.45,17.84,4.82,62.47c-3.95,14,0,47.68,0,47.68Z" transform="translate(-465.2 -383.38)"/><path class="cls-58" d="M2056,2014.39l-11.44-44.25s11-17,5.72-34.31-2.11-11.16-6.37,0-12.67-7.73-19.24-24.95-9.94,9.25-8.34,24.95,2.2,25.05,11.57,36.5,7.5,52.21,7.5,52.21Z" transform="translate(-465.2 -383.38)"/><path class="cls-40" d="M2705.68,3232.41c.36-9.75,23.85-7.79,39.25-6.31s22.17,7.65,24.58,13.42.6,20-13.62,14.05C2744.21,3248.67,2705.35,3241,2705.68,3232.41Z" transform="translate(-465.2 -383.38)"/><path class="cls-59" d="M2734,3194.64l10.95,37.77s11,7.53,14.55,3.78l-4.08-43.53Z" transform="translate(-465.2 -383.38)"/><polygon class="cls-60" points="2191.42 2788.92 2227.68 2804.74 2221.59 2823.09 2185.28 2813.64 2191.42 2788.92"/><path class="cls-40" d="M2654.55,3243.51s24.16,6.25,34.85-8c6.88-9.18,12.6-24.78,15.8-34.74a10.76,10.76,0,0,0-6.27-13.32c-7.67-3.06-18.09-6.36-22.54-3.86-7.43,4.18-.46,32-3.72,39.23S2653.62,3234.68,2654.55,3243.51Z" transform="translate(-465.2 -383.38)"/><path class="cls-61" d="M2598.2,2607A2018,2018,0,0,0,2730,3208.89a39.77,39.77,0,0,0,34.42,0c5.94-45.16,9-83.28,10.69-111.59,4.48-74.77,6.52-113.06-3.66-157.54-9.56-41.75-17.23-38.49-27.21-84.63-8.86-41-9.06-72.59-9.07-118.81a1044.49,1044.49,0,0,1,7.57-125.44Z" transform="translate(-465.2 -383.38)"/><path class="cls-62" d="M2734.72,3178c-9.61-30.92,9.33-45,7.12-84.28-2.69-47.94-32.22-49.38-41.55-103.28-7.5-43.32,10.76-47.06,5.94-99.72-5.13-56-27.17-67.31-22.56-100.9,2.57-18.68,13.46-44.16,51.65-71.9a1046.59,1046.59,0,0,1,7.39-107.06L2598.2,2607A2018,2018,0,0,0,2730,3208.89a40.05,40.05,0,0,0,16.06,3.9,39.14,39.14,0,0,0,10.2-1.09C2747.13,3202.87,2739,3191.82,2734.72,3178Z" transform="translate(-465.2 -383.38)"/><path class="cls-63" d="M2480.68,2591.59a864.21,864.21,0,0,1-12.59,91.47c-16.66,86.56-35.79,114.28-40.83,170.88-5.88,66,12.14,117.95,19,137.71,46.79,134.88,175.28,197.67,209.28,213l11.52-37.35a341.94,341.94,0,0,1-33.17-54.25c-20.39-41.65-21.77-66.18-35.68-107.2-25.1-74-44.18-63.51-48.76-101.19-7.26-59.7,40.92-83.81,84.37-198a617,617,0,0,0,23.75-77.16Z" transform="translate(-465.2 -383.38)"/><path class="cls-64" d="M2843.93,1960.05l36.8-5.94c15.4,21.67,59.78,90.14,51.05,181.63-2.07,21.69-11,93.63-71.84,150.86-43.55,41-92,53.87-114.15,58.31,0,106.55,2,173.74,5.64,214,.45,4.85,4.22,45.54-1.28,98-1.68,16-2.56,24.08-4.75,28.49-30.36,61.26-204.39,12.71-251.4-7.6-12.22-5.28-24.63-12.63-29.95-25.64-6.82-16.71-.28-31.86,2.38-45.11,6.52-32.53-12.82-57.08-51.6-120.2-16.39-26.68-40.21-66.75-68-118.76-32.19,9.39-108.06,26.22-182.33-9.21-109.13-52.06-171.4-196.25-139.66-352.5l33.24-9.5a329.51,329.51,0,0,0,50.44,112.33c17.57,25,32.2,45.79,57.59,57.43,39.86,18.26,75.27-.28,127-13.06,81.55-20.13,149.74-12.62,232.57-3.49,90.49,10,115.29,28.56,181.46,16.06,29.43-5.56,66.27-13,96.43-42.25C2862.91,2066.33,2846.39,1972.88,2843.93,1960.05Z" transform="translate(-465.2 -383.38)"/><path class="cls-65" d="M2505.83,2079.12s-5.42,21.72,2.22,31.46,33.17,47,41.48,48.86c4.73,1,16.59,2.84,25.92,4.19,4.92.71,6,7.47,1.4,9.45-9.28,4-25.64,8.08-53.75,7.77-40.62-.44-73.29-15.89-87.54-23.9a2.16,2.16,0,0,1,1.25-4l18.28,1.37a25.06,25.06,0,0,0,26.79-27.77l-1.14-10.16Z" transform="translate(-465.2 -383.38)"/><path class="cls-66" d="M2489.07,2122.85c-2.51-1.38-22.93-3.86-25.75-14.85-3.82-14.9,9.58-33.05,11.24-36,7-12.22,8.75-13.87,12-15.94l4.51-2.65.53-.18c2.88-1,12.62-1,14.58-.57,6.27,1.49,12.39,27.3,9.66,63.53.23,1.38.45,2.78.66,4.19C2517.05,2124.08,2488.88,2124.14,2489.07,2122.85Z" transform="translate(-465.2 -383.38)"/><path class="cls-40" d="M2469.86,2051.14c-.88,4.43,10.84,13.25,15.85,17.05a18.92,18.92,0,0,1,4,4.54,6,6,0,0,1,.61,1.34c2.3,7.14-9.14,15.22-7,18.44,1.52,2.33,9.24-.57,10.11,1.44s-5.64,5.61-4.71,7.87c.69,1.71,4.64.25,7,2.9,1.2,1.31.82,2.33,2,6.3a36.77,36.77,0,0,0,2.43,6.09c3.74,6.68,14.68,9.34,16.86,6.75.61-.72.11-1.35.77-3.81a19.62,19.62,0,0,1,2.26-4.88c2.36-3.73,7.92-6.32,13.55-10.18,10.43-7.16,13.36-13.39,14.24-15.5l.27-.66a10.55,10.55,0,0,0,.39-1.07c2.2-7.19-6.93-19.68-6.93-19.68a77.54,77.54,0,0,0-24-20.68,105.69,105.69,0,0,0-32.17-1.48C2479.21,2046.61,2470.56,2047.63,2469.86,2051.14Z" transform="translate(-465.2 -383.38)"/><path class="cls-40" d="M2465.65,2088.43s8.64,10.38,20.07-2.08l5.64,1.66s-13.79,30.35-16.74,30.35-11.56-2-11.56-2a7.27,7.27,0,0,1-4.31-8.23A120.4,120.4,0,0,1,2465.65,2088.43Z" transform="translate(-465.2 -383.38)"/><path class="cls-67" d="M2488.46,2090c2.84-3.72,7.6-.06,7.52,4.84s-4.94,9.88-9.52,8.81S2484.64,2095,2488.46,2090Z" transform="translate(-465.2 -383.38)"/><path class="cls-68" d="M2699.1,2667.57c-58.95,20.77-127.66-9.61-144.82-51.05-12.69-30.64,14.42-59.86-4.75-91.41-18.46-30.37-51.79-16.76-74.79-47.48-25.06-33.48,4.43-63.13-17.81-108-16.73-33.77-56.79-64.17-96.15-64.1-46.79.08-64.26,43.15-104.47,34.42-21-4.55-20.51-17.23-49.86-38-50.92-36-85.08-20.93-127-46.3-12.32-7.46-26.07-18.89-38.87-37.27,25.06,63.64,68.41,114,123.93,140.48,74.26,35.43,150.13,18.6,182.32,9.21,27.81,52,51.63,92.08,68,118.76,38.78,63.11,58.12,87.67,51.6,120.2-2.66,13.25-9.2,28.4-2.38,45.11,5.32,13,17.73,20.36,29.95,25.64,47,20.31,221,68.86,251.4,7.6,2.19-4.41,3.07-12.5,4.75-28.49,1-10,1.75-19.49,2.21-28.44C2740.23,2644,2723.1,2659.11,2699.1,2667.57Z" transform="translate(-465.2 -383.38)"/><path class="cls-69" d="M2029,2976.87c0-141.85-130.84-252.59-286.69-247.52-88.75,2.88-166,42.89-214.18,102l0-.06c-.3.37-.58.75-.87,1.12-.84,1-1.64,2.09-2.46,3.13-1.49,1.91-3,3.83-4.39,5.77-.84,1.15-1.67,2.3-2.5,3.47q-2.05,2.9-4,5.87c-.75,1.13-1.51,2.25-2.25,3.4q-2.19,3.42-4.26,6.92c-.51.84-1,1.66-1.53,2.51q-2.74,4.74-5.26,9.58c-.45.85-.85,1.73-1.29,2.59-1.22,2.42-2.42,4.86-3.56,7.32-.56,1.21-1.08,2.43-1.62,3.65-1,2.18-1.9,4.37-2.79,6.58-.52,1.28-1,2.57-1.53,3.86-.87,2.27-1.69,4.55-2.49,6.85-.42,1.2-.85,2.39-1.25,3.6q-1.43,4.34-2.67,8.74c-.18.61-.38,1.21-.55,1.82q-1.46,5.31-2.66,10.7c-.24,1.06-.43,2.13-.65,3.2-.54,2.57-1,5.16-1.5,7.77-.23,1.32-.43,2.65-.63,4-.37,2.41-.71,4.83-1,7.26-.16,1.36-.32,2.73-.46,4.1-.26,2.56-.46,5.14-.64,7.73-.08,1.2-.18,2.4-.24,3.61-.19,3.78-.31,7.57-.31,11.39,0,91,55.13,171.32,137.78,214.31q11.4,5.94,23.49,10.91,6,2.49,12.26,4.72a304.52,304.52,0,0,0,94.06,17.62h0c4.59.13,9.16.15,13.7.09,1.53,0,3-.11,4.58-.16,3-.08,6-.17,9-.35,1.83-.1,3.63-.27,5.45-.4,2.66-.2,5.32-.41,8-.68,1.94-.19,3.86-.44,5.78-.67,2.5-.31,5-.62,7.48-1,2-.29,4-.61,5.92-.94,2.4-.4,4.79-.81,7.17-1.27q3-.57,6-1.2,3.49-.74,7-1.56,3-.7,5.92-1.45c2.28-.59,4.54-1.21,6.8-1.85,1.94-.55,3.88-1.1,5.81-1.69.71-.22,1.43-.4,2.14-.62l-.05-.06C1950.67,3177.78,2029,3086.23,2029,2976.87Z" transform="translate(-465.2 -383.38)"/><path class="cls-70" d="M2007.56,2976.9c0,141.49-130.18,252.38-285.25,247.85C1573,3220.39,1456,3109.9,1456,2977.81s117-243,266.28-247.81C1877.38,2725,2007.56,2835.42,2007.56,2976.9Z" transform="translate(-465.2 -383.38)"/><path class="cls-6" d="M1652.35,3045.43l-110.7-56.34V2971l110.7-64.1v30.88l-76.58,40.91,76.58,36Z" transform="translate(-465.2 -383.38)"/><path class="cls-6" d="M1770.11,2881.84l-62.95,190.27-31.63-.32L1738,2882.27Z" transform="translate(-465.2 -383.38)"/><path class="cls-6" d="M1793.52,3015.1l80.9-36.92-80.9-41.39v-31.43l118,64.66v19l-118,57.38v-31.3Z" transform="translate(-465.2 -383.38)"/><g class="cls-14"><path class="cls-71" d="M1789.75,3163.18c-33.65-74.08.37-142.53-45.06-190-45.64-47.72-104.17-3.11-166.22-41.3-23.72-14.61-49.94-42.55-69.31-100.19-33.42,41-53.13,91.62-53.13,146.17,0,132.09,117,242.58,266.28,246.94a304.12,304.12,0,0,0,100.11-13.7A170.6,170.6,0,0,1,1789.75,3163.18Z" transform="translate(-465.2 -383.38)"/></g></g></svg>