<svg id="Layer_1" data-name="Layer 1" xmlns="http://www.w3.org/2000/svg" viewBox="0 0 456.38 378.13"><defs><style>.cls-1{fill:#0956aa;}.cls-2{fill:#00a8cb;}.cls-3{fill:#f2f7fc;}.cls-4{fill:#0790a3;}.cls-5,.cls-8{fill:#dd2f2f;}.cls-6{fill:#ffb000;}.cls-7,.cls-8{opacity:0.31;}.cls-8{isolation:isolate;}.cls-9{fill:#c64d0a;}.cls-10{fill:#ffc200;}.cls-11{fill:#ff8500;}.cls-12{fill:#a51313;}.cls-13{fill:#09477f;}</style></defs><g id="OBJECTS"><path class="cls-1" d="M306.85,129.88H295.42l-2.74-9.47a24.08,24.08,0,0,1-2.95-1.23L281.1,124,273,115.86l4.77-8.63a23.59,23.59,0,0,1-1.23-3l-9.47-2.73V90.11l9.47-2.73a24.23,24.23,0,0,1,1.23-3L273,75.79l8.09-8.09,8.63,4.77a24.08,24.08,0,0,1,2.95-1.23l2.73-9.47h11.44l2.73,9.47a24.9,24.9,0,0,1,3,1.23l8.62-4.77,8.09,8.09-4.76,8.63a25.18,25.18,0,0,1,1.23,3l9.47,2.73v11.43l-9.47,2.73a27,27,0,0,1-1.23,3l4.76,8.63L321.16,124l-8.62-4.77a24.9,24.9,0,0,1-3,1.23Zm-9.93-2h8.43l2.6-9,.51-.16a23,23,0,0,0,3.64-1.52l.47-.24,8.25,4.55,6-6-4.55-8.25.24-.47a23,23,0,0,0,1.52-3.64l.16-.51,9-2.6V91.61l-9-2.61-.16-.5a23,23,0,0,0-1.52-3.64l-.24-.48,4.55-8.24-6-6-8.25,4.55-.47-.24A23.45,23.45,0,0,0,308.46,73l-.51-.16-2.61-9h-8.42l-2.61,9-.5.16a23.16,23.16,0,0,0-3.65,1.52l-.47.24-8.24-4.55-6,6L280,84.38l-.25.48a24,24,0,0,0-1.51,3.64l-.17.51-9,2.6V100l9,2.6.17.51a24,24,0,0,0,1.51,3.64l.25.48-4.55,8.24,6,6,8.24-4.55.48.25a23.58,23.58,0,0,0,3.64,1.51l.5.17Zm4.21-20.17A11.89,11.89,0,1,1,313,95.82,11.9,11.9,0,0,1,301.13,107.71Zm0-21.77A9.89,9.89,0,1,0,311,95.83,9.89,9.89,0,0,0,301.13,85.94Z" transform="translate(-21.56 -60.94)"/><path class="cls-2" d="M401.76,145.78a22.08,22.08,0,1,0-11.17-41.11,22.07,22.07,0,0,0-34.4-12.47,22.07,22.07,0,0,0-43.82,3.35,21.28,21.28,0,0,0-3.11-.23,22.06,22.06,0,0,0-17.84,9.08,22.07,22.07,0,1,0-11.59,40.85h.06Z" transform="translate(-21.56 -60.94)"/><path class="cls-1" d="M121.82,191.3h0l-84.42-.36h0a15.79,15.79,0,1,1,7.87-29.46,15.75,15.75,0,0,1,14.15-6,15.79,15.79,0,0,1,31.18-2.6,15.8,15.8,0,0,1,23.8,8.74,15.79,15.79,0,1,1,7.43,29.72ZM37.35,160.36a14.79,14.79,0,0,0,0,29.58l84.47.36h0a14.79,14.79,0,1,0-7.49-27.54l-.58.34-.16-.65a14.79,14.79,0,0,0-23-8.36l-.65.47-.13-.79A14.79,14.79,0,0,0,60.4,156v.57l-.56-.08a14.77,14.77,0,0,0-14,5.93l-.27.38-.4-.25A14.77,14.77,0,0,0,37.35,160.36Z" transform="translate(-21.56 -60.94)"/><path class="cls-2" d="M132.39,147.61h-6.75a1,1,0,0,1-1-.72L123,141.1c-.59-.22-1.18-.46-1.74-.73L116,143.29a1,1,0,0,1-1.19-.17L110,138.34a1,1,0,0,1-.16-1.19l2.91-5.28a16.72,16.72,0,0,1-.72-1.74l-5.8-1.67a1,1,0,0,1-.72-1v-6.75a1,1,0,0,1,.72-1l5.8-1.67a16.89,16.89,0,0,1,.72-1.75l-2.91-5.28a1,1,0,0,1,.16-1.19l4.78-4.78A1,1,0,0,1,116,105l5.28,2.91a17.68,17.68,0,0,1,1.74-.72l1.68-5.8a1,1,0,0,1,1-.72h6.75a1,1,0,0,1,1,.72l1.68,5.8a17.68,17.68,0,0,1,1.74.72l5.28-2.91a1,1,0,0,1,1.19.16l4.78,4.78a1,1,0,0,1,.17,1.19l-2.92,5.28c.27.56.51,1.15.73,1.74l5.79,1.68a1,1,0,0,1,.72,1v6.75a1,1,0,0,1-.72,1L146,130.13c-.22.59-.46,1.18-.73,1.74l2.92,5.28a1,1,0,0,1-.17,1.19l-4.78,4.78a1,1,0,0,1-1.19.17l-5.28-2.92a17.68,17.68,0,0,1-1.74.72l-1.68,5.8A1,1,0,0,1,132.39,147.61Zm-6-2h5.25l1.61-5.57a1,1,0,0,1,.65-.67,17,17,0,0,0,2.43-1,1,1,0,0,1,.94,0l5.08,2.8,3.72-3.71-2.81-5.08a1,1,0,0,1,0-.95,15,15,0,0,0,1-2.43,1,1,0,0,1,.68-.65l5.57-1.61v-5.25l-5.57-1.61a1,1,0,0,1-.68-.65,15,15,0,0,0-1-2.43,1,1,0,0,1,0-.94l2.81-5.08-3.72-3.72-5.08,2.8a1,1,0,0,1-.94,0,15,15,0,0,0-2.43-1,1,1,0,0,1-.65-.68l-1.61-5.57h-5.25l-1.61,5.57a1,1,0,0,1-.65.68,15,15,0,0,0-2.43,1,1,1,0,0,1-1,0l-5.08-2.8L112,110.78l2.8,5.08a1,1,0,0,1,0,.94,17,17,0,0,0-1,2.43,1,1,0,0,1-.67.65l-5.57,1.61v5.25l5.57,1.61a1,1,0,0,1,.67.65,17,17,0,0,0,1,2.43,1,1,0,0,1,0,.95l-2.8,5.08,3.71,3.71,5.08-2.8a1,1,0,0,1,1,0,17,17,0,0,0,2.43,1,1,1,0,0,1,.65.67Zm25.12-18.11h0Zm-22.5,5a8.41,8.41,0,1,1,8.41-8.4A8.41,8.41,0,0,1,129,132.52Zm0-14.81a6.41,6.41,0,1,0,6.41,6.41A6.41,6.41,0,0,0,129,117.71Z" transform="translate(-21.56 -60.94)"/><path class="cls-2" d="M443.08,265.68H432.47a1,1,0,0,1-1-.72l-2.71-9.38a27.72,27.72,0,0,1-3.21-1.33L417,259a1,1,0,0,1-1.19-.17l-7.5-7.51a1,1,0,0,1-.17-1.19l4.72-8.54a26.92,26.92,0,0,1-1.34-3.22l-9.38-2.7a1,1,0,0,1-.72-1V224.07a1,1,0,0,1,.72-1l9.38-2.71a26.11,26.11,0,0,1,1.34-3.21l-4.72-8.55a1,1,0,0,1,.17-1.19l7.5-7.5a1,1,0,0,1,1.19-.17l8.55,4.72a26.11,26.11,0,0,1,3.21-1.34l2.71-9.38a1,1,0,0,1,1-.72h10.61a1,1,0,0,1,1,.72l2.7,9.38A26.92,26.92,0,0,1,450,204.5l8.54-4.72a1,1,0,0,1,1.19.17l7.51,7.5a1,1,0,0,1,.17,1.19l-4.72,8.55A29.64,29.64,0,0,1,464,220.4l9.37,2.71a1,1,0,0,1,.72,1v10.61a1,1,0,0,1-.72,1l-9.37,2.7a28.68,28.68,0,0,1-1.34,3.22l4.72,8.54a1,1,0,0,1-.17,1.19l-7.51,7.51a1,1,0,0,1-1.19.17L450,254.25a30.67,30.67,0,0,1-3.22,1.34L444,265A1,1,0,0,1,443.08,265.68Zm-9.86-2h9.1l2.65-9.15a1,1,0,0,1,.65-.68,26,26,0,0,0,3.9-1.62,1,1,0,0,1,.94,0l8.35,4.61,6.44-6.44-4.61-8.35a1,1,0,0,1,0-.94,25.39,25.39,0,0,0,1.62-3.9,1,1,0,0,1,.68-.66l9.15-2.64v-9.1l-9.15-2.64a1,1,0,0,1-.68-.66,25.39,25.39,0,0,0-1.62-3.9,1,1,0,0,1,0-.94l4.61-8.35-6.44-6.44-8.35,4.61a1,1,0,0,1-.94,0,26.42,26.42,0,0,0-3.9-1.62,1,1,0,0,1-.65-.68l-2.65-9.15h-9.1l-2.64,9.15a1,1,0,0,1-.65.68,25.55,25.55,0,0,0-3.9,1.62,1,1,0,0,1-.95,0l-8.35-4.61-6.44,6.44,4.61,8.35a1,1,0,0,1,0,.94,25.13,25.13,0,0,0-1.63,3.91,1,1,0,0,1-.67.65l-9.16,2.64v9.1l9.16,2.64a1,1,0,0,1,.67.66,25.42,25.42,0,0,0,1.63,3.9,1,1,0,0,1,0,.94l-4.61,8.35,6.44,6.44,8.35-4.61a1,1,0,0,1,.95,0,25.55,25.55,0,0,0,3.9,1.62,1,1,0,0,1,.65.68Zm39.86-29h0ZM437.77,242a12.63,12.63,0,1,1,12.63-12.63A12.64,12.64,0,0,1,437.77,242Zm0-23.26a10.63,10.63,0,1,0,10.63,10.63A10.64,10.64,0,0,0,437.77,218.74Z" transform="translate(-21.56 -60.94)"/><path class="cls-2" d="M95.37,423.36H85.64a1,1,0,0,1-1-.72l-2.47-8.56a26.55,26.55,0,0,1-2.89-1.2l-7.8,4.31a1,1,0,0,1-1.19-.17l-6.89-6.89a1,1,0,0,1-.17-1.19l4.31-7.8a27.24,27.24,0,0,1-1.2-2.88l-8.56-2.47a1,1,0,0,1-.72-1v-9.74a1,1,0,0,1,.72-1l8.56-2.47a27.24,27.24,0,0,1,1.2-2.88L63.27,371a1,1,0,0,1,.17-1.19l6.89-6.89a1,1,0,0,1,1.19-.17l7.8,4.31a26.55,26.55,0,0,1,2.89-1.2l2.47-8.56a1,1,0,0,1,1-.72h9.73a1,1,0,0,1,1,.72l2.47,8.56a26.39,26.39,0,0,1,2.88,1.2l7.81-4.31a1,1,0,0,1,1.19.17l6.88,6.89a1,1,0,0,1,.17,1.19l-4.31,7.8a27.24,27.24,0,0,1,1.2,2.88l8.56,2.47a1,1,0,0,1,.73,1v9.74a1,1,0,0,1-.73,1l-8.56,2.47a26.39,26.39,0,0,1-1.2,2.88l4.31,7.8a1,1,0,0,1-.17,1.19L110.68,417a1,1,0,0,1-1.19.17l-7.81-4.31a26.39,26.39,0,0,1-2.88,1.2l-2.47,8.56A1,1,0,0,1,95.37,423.36Zm-9-2h8.23L97,413a1,1,0,0,1,.66-.67,23.58,23.58,0,0,0,3.56-1.49,1,1,0,0,1,1,0l7.6,4.2,5.83-5.82-4.2-7.6a1,1,0,0,1,0-.95,23.27,23.27,0,0,0,1.49-3.57,1,1,0,0,1,.67-.65l8.35-2.4v-8.23l-8.35-2.41a1,1,0,0,1-.67-.65,24.14,24.14,0,0,0-1.49-3.57,1,1,0,0,1,0-.94l4.2-7.61-5.83-5.82-7.6,4.2a1,1,0,0,1-1,0,23.38,23.38,0,0,0-3.56-1.48,1,1,0,0,1-.66-.68l-2.4-8.34H86.39L84,366.9a1,1,0,0,1-.65.67,24.14,24.14,0,0,0-3.57,1.49,1,1,0,0,1-.94,0l-7.61-4.2-5.82,5.82,4.2,7.6a1,1,0,0,1,0,1,24.47,24.47,0,0,0-1.49,3.56,1,1,0,0,1-.67.66l-8.34,2.4v8.23l8.34,2.41a1,1,0,0,1,.67.65,24.14,24.14,0,0,0,1.49,3.57,1,1,0,0,1,0,.94l-4.2,7.61,5.82,5.82,7.61-4.2a1,1,0,0,1,.94,0,23.08,23.08,0,0,0,3.57,1.48A1,1,0,0,1,84,413Zm36.51-26.53h0Zm-32.4,6.8A11.67,11.67,0,1,1,102.17,390,11.68,11.68,0,0,1,90.5,401.63Zm0-21.34a9.67,9.67,0,1,0,9.67,9.67A9.68,9.68,0,0,0,90.5,380.29Z" transform="translate(-21.56 -60.94)"/><path class="cls-2" d="M405,368H83.24a15.32,15.32,0,0,1-15.32-15.32V177.43a15.32,15.32,0,0,1,15.32-15.31H405a15.31,15.31,0,0,1,15.31,15.31V352.66A15.31,15.31,0,0,1,405,368Z" transform="translate(-21.56 -60.94)"/><rect class="cls-3" x="62.15" y="116.97" width="320.78" height="174.28"/><rect class="cls-2" x="185.34" y="307.04" width="74.39" height="28.5"/><polygon class="cls-2" points="259.73 307.04 259.73 325.31 185.34 312.25 185.34 307.04 259.73 307.04"/><path class="cls-2" d="M316.39,396.47H171.81a15.8,15.8,0,0,0-15.8,15.8v4.6H332.19v-4.6A15.8,15.8,0,0,0,316.39,396.47Z" transform="translate(-21.56 -60.94)"/><polygon class="cls-4" points="259.73 307.04 259.73 325.31 185.34 312.25 185.34 307.04 259.73 307.04"/><rect class="cls-5" x="84.04" y="62.55" width="122.4" height="122.4"/><rect class="cls-2" x="97.95" y="105.87" width="13.09" height="20.35"/><rect class="cls-2" x="122.36" y="97.91" width="13.09" height="28.31"/><rect class="cls-2" x="147.34" y="110.94" width="13.09" height="15.28"/><rect class="cls-2" x="171.76" y="95.57" width="13.09" height="30.65"/><rect class="cls-6" x="84.04" y="62.55" width="122.4" height="14.15"/><rect class="cls-6" x="22.82" y="163.43" width="157.99" height="91.56"/><rect class="cls-1" x="22.82" y="163.43" width="157.99" height="11.81"/><path class="cls-2" d="M84.79,250.92A25.48,25.48,0,0,0,59.31,276.4H84.79Z" transform="translate(-21.56 -60.94)"/><path class="cls-1" d="M110.27,276.4a25.48,25.48,0,0,0-25.48-25.48V276.4Z" transform="translate(-21.56 -60.94)"/><path class="cls-1" d="M110.27,276.4H84.79v25.48A25.48,25.48,0,0,0,110.27,276.4Z" transform="translate(-21.56 -60.94)"/><path class="cls-1" d="M59.31,276.4a25.48,25.48,0,0,0,25.48,25.48V276.4Z" transform="translate(-21.56 -60.94)"/><rect class="cls-1" x="107.71" y="190.84" width="39.75" height="2.67"/><rect class="cls-1" x="107.71" y="202.48" width="19.85" height="2.67"/><rect class="cls-1" x="139.85" y="202.48" width="12.96" height="2.67"/><rect class="cls-1" x="107.71" y="214.13" width="54.06" height="2.67"/><rect class="cls-1" x="107.71" y="225.77" width="32.02" height="2.67"/><rect class="cls-1" x="107.71" y="237.41" width="44.65" height="2.67"/><rect class="cls-3" x="97.27" y="137.37" width="76.59" height="2.67"/><rect class="cls-3" x="97.27" y="149.01" width="38.25" height="2.67"/><rect class="cls-3" x="159.21" y="149.01" width="24.98" height="2.67"/><path class="cls-5" d="M424.18,117.71h-63a11.86,11.86,0,0,0-11.86,11.86v137a11.86,11.86,0,0,0,11.86,11.85h63A11.86,11.86,0,0,0,436,266.59v-137A11.86,11.86,0,0,0,424.18,117.71Z" transform="translate(-21.56 -60.94)"/><path class="cls-3" d="M361.21,270.75a4.16,4.16,0,0,1-4.16-4.16v-137a4.16,4.16,0,0,1,4.16-4.16h63a4.17,4.17,0,0,1,4.16,4.16v137a4.17,4.17,0,0,1-4.16,4.16Z" transform="translate(-21.56 -60.94)"/><path class="cls-5" d="M414.59,123.47H369l4.44,6.89a5.91,5.91,0,0,0,5,2.71h26.84a5.88,5.88,0,0,0,4.95-2.71Z" transform="translate(-21.56 -60.94)"/><rect class="cls-6" x="367.2" y="236.39" width="61.31" height="20.42"/><g class="cls-7"><path class="cls-5" d="M390.23,307.67a15.17,15.17,0,0,1-26.91,9.61H370a3.28,3.28,0,0,0,3.29-3.29v-12.9A3.28,3.28,0,0,0,370,297.8h-6.43a15.16,15.16,0,0,1,26.66,9.87Z" transform="translate(-21.56 -60.94)"/></g><path class="cls-8" d="M428.37,313.11H404.91a5.57,5.57,0,0,1-5.57-5.57h0a5.57,5.57,0,0,1,5.57-5.57h23.46a5.57,5.57,0,0,1,5.57,5.57h0A5.57,5.57,0,0,1,428.37,313.11Z" transform="translate(-21.56 -60.94)"/><path class="cls-9" d="M403.71,307.6h0a1,1,0,0,0,.94.95h23a1,1,0,0,0,.94-.95h0a.94.94,0,0,0-.94-.94h-23A1,1,0,0,0,403.71,307.6Z" transform="translate(-21.56 -60.94)"/><path class="cls-6" d="M375.25,328.22A20.67,20.67,0,0,1,357,317.28h13A3.29,3.29,0,0,0,373.3,314v-12.9A3.29,3.29,0,0,0,370,297.8H357a20.68,20.68,0,1,1,18.24,30.42Z" transform="translate(-21.56 -60.94)"/><path class="cls-8" d="M390.23,307.67a15.17,15.17,0,0,1-26.91,9.61H370a3.28,3.28,0,0,0,3.29-3.29v-12.9A3.28,3.28,0,0,0,370,297.8h-6.43a15.16,15.16,0,0,1,26.66,9.87Z" transform="translate(-21.56 -60.94)"/><path class="cls-6" d="M459.69,328.22a20.68,20.68,0,0,0,18.25-10.94h-13a3.29,3.29,0,0,1-3.29-3.29v-12.9a3.29,3.29,0,0,1,3.29-3.29h13a20.68,20.68,0,1,0-18.24,30.42Z" transform="translate(-21.56 -60.94)"/><path class="cls-8" d="M444.72,307.67a15.17,15.17,0,0,0,26.91,9.61h-6.69a3.29,3.29,0,0,1-3.29-3.29v-12.9a3.29,3.29,0,0,1,3.29-3.29h6.44a15.16,15.16,0,0,0-26.66,9.87Z" transform="translate(-21.56 -60.94)"/><polygon class="cls-6" points="70.61 272.68 22.83 272.68 22.83 328.47 70.61 328.47 118.4 328.47 118.4 272.68 70.61 272.68"/><polygon class="cls-10" points="118.41 328.47 22.82 328.47 72.59 278.7 118.41 328.47"/><path class="cls-11" d="M92.17,333.62H44.39l39.09,32.57a13.58,13.58,0,0,0,17.39,0L140,333.62Z" transform="translate(-21.56 -60.94)"/><rect class="cls-2" x="341.22" y="84.49" width="60.55" height="34.07"/><rect class="cls-6" x="341.22" y="125.7" width="60.55" height="20.3"/><rect class="cls-6" x="341.22" y="185.52" width="60.55" height="9.94"/><circle class="cls-3" cx="252.48" cy="314.24" r="21.96" transform="translate(-165.71 181.34) rotate(-40.93)"/><path class="cls-5" d="M125.39,110.87v-9.35L116.69,99a23.37,23.37,0,0,0-1.49-3.57l4.38-7.93L113,80.9,105,85.28a23.37,23.37,0,0,0-3.57-1.49L99,75.09H89.61l-2.51,8.7a23.37,23.37,0,0,0-3.57,1.49L75.6,80.9,69,87.51l4.38,7.93A23.37,23.37,0,0,0,71.88,99l-8.7,2.51v9.35l8.7,2.51A23.37,23.37,0,0,0,73.37,117L69,124.88l6.61,6.61,7.93-4.38a23.37,23.37,0,0,0,3.57,1.49l2.51,8.7H99l2.51-8.7a23.37,23.37,0,0,0,3.57-1.49l7.93,4.38,6.61-6.61L115.2,117a23.37,23.37,0,0,0,1.49-3.57Zm-31.1,7.79a12.47,12.47,0,1,1,12.46-12.47A12.47,12.47,0,0,1,94.29,118.66Z" transform="translate(-21.56 -60.94)"/><path class="cls-12" d="M94.29,90a16.17,16.17,0,1,0,16.16,16.16A16.17,16.17,0,0,0,94.29,90Zm0,23.77a7.61,7.61,0,1,1,7.6-7.6A7.6,7.6,0,0,1,94.29,113.8Z" transform="translate(-21.56 -60.94)"/><path class="cls-5" d="M405,412.13v-9.52l-8.87-2.56a23.25,23.25,0,0,0-1.51-3.64l4.47-8.09-6.74-6.73-8.09,4.46a23.71,23.71,0,0,0-3.63-1.51l-2.56-8.87h-9.52L366,384.54a24.25,24.25,0,0,0-3.64,1.51l-8.08-4.46-6.74,6.73,4.46,8.09a24.25,24.25,0,0,0-1.51,3.64l-8.87,2.56v9.52l8.87,2.56a23.71,23.71,0,0,0,1.51,3.63l-4.46,8.09,6.74,6.73,8.08-4.46a23.25,23.25,0,0,0,3.64,1.51l2.56,8.87h9.52l2.56-8.87a22.75,22.75,0,0,0,3.63-1.51l8.09,4.46,6.74-6.73-4.47-8.09a22.75,22.75,0,0,0,1.51-3.63Zm-31.69,7.93A12.7,12.7,0,1,1,386,407.37,12.69,12.69,0,0,1,373.34,420.06Z" transform="translate(-21.56 -60.94)"/><path class="cls-12" d="M373.34,391.92a15.45,15.45,0,1,0,15.44,15.45A15.45,15.45,0,0,0,373.34,391.92Zm0,25.61a10.17,10.17,0,1,1,10.16-10.16A10.16,10.16,0,0,1,373.34,417.53Z" transform="translate(-21.56 -60.94)"/><path class="cls-2" d="M447.11,392.76v-6.3l-5.87-1.7a17.69,17.69,0,0,0-1-2.41l2.95-5.36-4.46-4.46-5.36,3a16.51,16.51,0,0,0-2.41-1l-1.7-5.87H423l-1.69,5.87a17.82,17.82,0,0,0-2.42,1l-5.35-3L409,377l3,5.36a16.51,16.51,0,0,0-1,2.41l-5.88,1.7v6.3l5.88,1.7a15.08,15.08,0,0,0,1,2.41l-3,5.36,4.46,4.46,5.35-2.95a16.63,16.63,0,0,0,2.42,1l1.69,5.88h6.31l1.7-5.88a16.51,16.51,0,0,0,2.41-1l5.36,2.95,4.46-4.46-2.95-5.36a17.69,17.69,0,0,0,1-2.41Zm-21,1.69a4.84,4.84,0,1,1,4.85-4.84A4.84,4.84,0,0,1,426.1,394.45Z" transform="translate(-21.56 -60.94)"/><path class="cls-4" d="M426.1,376.82a12.79,12.79,0,1,0,12.79,12.79A12.79,12.79,0,0,0,426.1,376.82Zm0,17.63a4.84,4.84,0,1,1,4.85-4.84A4.84,4.84,0,0,1,426.1,394.45Z" transform="translate(-21.56 -60.94)"/><path class="cls-6" d="M191.59,102.33v-6L186,94.7a16.59,16.59,0,0,0-1-2.3l2.82-5.1-4.26-4.25-5.1,2.81a16.59,16.59,0,0,0-2.3-1l-1.62-5.6h-6L167,84.91a16.59,16.59,0,0,0-2.3,1l-5.1-2.81L155.3,87.3l2.81,5.1a16.59,16.59,0,0,0-1,2.3l-5.6,1.62v6l5.6,1.62a16.59,16.59,0,0,0,1,2.3l-2.81,5.1,4.25,4.26,5.1-2.82a15.45,15.45,0,0,0,2.3.95l1.62,5.6h6l1.62-5.6a15.45,15.45,0,0,0,2.3-.95l5.1,2.82,4.26-4.26-2.82-5.1a15.45,15.45,0,0,0,1-2.3Zm-20,1.61a4.62,4.62,0,1,1,4.62-4.61A4.62,4.62,0,0,1,171.57,103.94Z" transform="translate(-21.56 -60.94)"/><path class="cls-11" d="M171.57,90.27a9.06,9.06,0,1,0,9.05,9.06A9.06,9.06,0,0,0,171.57,90.27Zm0,13.67a4.62,4.62,0,1,1,4.62-4.61A4.62,4.62,0,0,1,171.57,103.94Z" transform="translate(-21.56 -60.94)"/><path class="cls-1" d="M379.37,158.46a32.87,32.87,0,1,0,0,46.49A32.87,32.87,0,0,0,379.37,158.46Zm-5.87,40.62a24.57,24.57,0,1,1,0-34.75A24.58,24.58,0,0,1,373.5,199.08Z" transform="translate(-21.56 -60.94)"/><circle class="cls-3" cx="334.56" cy="120.77" r="24.57"/><rect class="cls-1" x="384.37" y="195.44" width="5.54" height="34.6" transform="translate(-58.6 275.13) rotate(-45)"/><rect class="cls-6" x="401.44" y="222.97" width="5.54" height="13.66" transform="translate(-65.66 292.19) rotate(-45)"/><rect class="cls-5" x="171.68" y="219.95" width="157.99" height="77.22"/><rect class="cls-2" x="171.68" y="219.95" width="157.99" height="11.81"/><rect class="cls-1" x="182.38" y="248.11" width="39.97" height="34.43"/><path class="cls-3" d="M224.84,320.23a3.62,3.62,0,0,0-3.15,1.65,8,8,0,0,0-1.13,4.56c0,4,1.53,6.05,4.6,6.05a9.31,9.31,0,0,0,2.69-.39,22.8,22.8,0,0,0,2.62-.93V336a14.52,14.52,0,0,1-5.93,1.16q-4.74,0-7.27-2.75t-2.53-7.95A12.64,12.64,0,0,1,216,320.7a8.68,8.68,0,0,1,3.52-3.79,10.59,10.59,0,0,1,5.41-1.33,14.82,14.82,0,0,1,6.49,1.48l-1.73,4.45a21,21,0,0,0-2.32-.91A8.13,8.13,0,0,0,224.84,320.23Z" transform="translate(-21.56 -60.94)"/><rect class="cls-1" x="230.69" y="248.11" width="39.97" height="34.43"/><path class="cls-3" d="M270.65,336.83l-4.28-15.09h-.13q.3,3.86.3,6v9.1h-5V315.88h7.53l4.38,14.88h.11l4.28-14.88h7.56v20.95h-5.21v-9.18q0-.72,0-1.59c0-.59.08-2,.19-4.29h-.13L276,336.83Z" transform="translate(-21.56 -60.94)"/><rect class="cls-1" x="279.01" y="248.11" width="39.97" height="34.43"/><path class="cls-3" d="M327.67,330.47a6.18,6.18,0,0,1-1,3.46,6.48,6.48,0,0,1-2.85,2.35,10.55,10.55,0,0,1-4.37.84,18.08,18.08,0,0,1-3.51-.29,13,13,0,0,1-2.95-1v-5a17.13,17.13,0,0,0,3.36,1.29,12.21,12.21,0,0,0,3.21.47,3.11,3.11,0,0,0,1.85-.44A1.34,1.34,0,0,0,322,331a1.2,1.2,0,0,0-.24-.75,2.57,2.57,0,0,0-.76-.66,28.1,28.1,0,0,0-2.78-1.34,13.56,13.56,0,0,1-3.08-1.81,5.55,5.55,0,0,1-1.51-2,6.68,6.68,0,0,1-.5-2.68,5.37,5.37,0,0,1,2.11-4.52,9.27,9.27,0,0,1,5.79-1.62,16.26,16.26,0,0,1,6.63,1.51l-1.73,4.37a12.55,12.55,0,0,0-5.07-1.35,2.63,2.63,0,0,0-1.61.39,1.19,1.19,0,0,0-.5,1,1.37,1.37,0,0,0,.64,1.1,22.89,22.89,0,0,0,3.46,1.78,9.66,9.66,0,0,1,3.76,2.61A5.7,5.7,0,0,1,327.67,330.47Z" transform="translate(-21.56 -60.94)"/><rect class="cls-1" x="193.53" y="147.43" width="111.86" height="76.53"/><rect class="cls-6" x="193.53" y="147.43" width="111.86" height="12.93"/><rect class="cls-2" x="254.72" y="249.49" width="32.03" height="4.93" transform="translate(-82.61 354.43) rotate(-69.16)"/><polygon class="cls-2" points="231.05 205.36 216.72 191.03 231.05 176.7 234.53 180.19 223.69 191.03 234.53 201.87 231.05 205.36"/><polygon class="cls-2" points="267.87 205.36 264.38 201.87 275.22 191.03 264.38 180.19 267.87 176.7 282.2 191.03 267.87 205.36"/><path class="cls-1" d="M431.79,83.25V77.42l-5.43-1.57a15,15,0,0,0-.92-2.22l2.73-4.95-4.12-4.12-4.95,2.73a15.64,15.64,0,0,0-2.23-.93l-1.56-5.42h-5.83l-1.57,5.42a15.05,15.05,0,0,0-2.22.93l-4.95-2.73-4.12,4.12,2.73,4.95a15.05,15.05,0,0,0-.93,2.22L393,77.42v5.83l5.42,1.56a15.64,15.64,0,0,0,.93,2.23L396.62,92l4.12,4.12,4.95-2.73a15,15,0,0,0,2.22.92l1.57,5.43h5.83l1.56-5.43a15.59,15.59,0,0,0,2.23-.92l4.95,2.73L428.17,92,425.44,87a15.59,15.59,0,0,0,.92-2.23Zm-19.4,1.55a4.47,4.47,0,1,1,4.47-4.46A4.47,4.47,0,0,1,412.39,84.8Z" transform="translate(-21.56 -60.94)"/><path class="cls-13" d="M412.39,71.27a9.07,9.07,0,1,0,9.06,9.07A9.08,9.08,0,0,0,412.39,71.27Zm0,13.53a4.47,4.47,0,1,1,4.47-4.46A4.47,4.47,0,0,1,412.39,84.8Z" transform="translate(-21.56 -60.94)"/><path class="cls-2" d="M243.07,195.56a4.31,4.31,0,1,1,4.3-4.3A4.31,4.31,0,0,1,243.07,195.56Zm0-6.61a2.31,2.31,0,1,0,2.3,2.31A2.31,2.31,0,0,0,243.07,189Z" transform="translate(-21.56 -60.94)"/><path class="cls-1" d="M264.64,195.56a4.31,4.31,0,1,1,4.3-4.3A4.31,4.31,0,0,1,264.64,195.56Zm0-6.61a2.31,2.31,0,1,0,2.3,2.31A2.31,2.31,0,0,0,264.64,189Z" transform="translate(-21.56 -60.94)"/><path class="cls-2" d="M286.2,195.56a4.31,4.31,0,1,1,4.31-4.3A4.31,4.31,0,0,1,286.2,195.56Zm0-6.61a2.31,2.31,0,1,0,2.31,2.31A2.31,2.31,0,0,0,286.2,189Z" transform="translate(-21.56 -60.94)"/><path class="cls-2" d="M464,354.32a4.31,4.31,0,1,1,4.3-4.31A4.32,4.32,0,0,1,464,354.32Zm0-6.62a2.31,2.31,0,1,0,2.3,2.31A2.31,2.31,0,0,0,464,347.7Z" transform="translate(-21.56 -60.94)"/><path class="cls-1" d="M464,375.38a3.81,3.81,0,1,1,3.8-3.8A3.81,3.81,0,0,1,464,375.38Zm0-6.61a2.81,2.81,0,1,0,2.8,2.81A2.81,2.81,0,0,0,464,368.77Z" transform="translate(-21.56 -60.94)"/><path class="cls-2" d="M464,397.45a4.31,4.31,0,1,1,4.3-4.3A4.31,4.31,0,0,1,464,397.45Zm0-6.61a2.31,2.31,0,1,0,2.3,2.31A2.31,2.31,0,0,0,464,390.84Z" transform="translate(-21.56 -60.94)"/><path class="cls-2" d="M243.07,89.15a4.31,4.31,0,1,1,4.3-4.31A4.31,4.31,0,0,1,243.07,89.15Zm0-6.61a2.31,2.31,0,1,0,2.3,2.3A2.3,2.3,0,0,0,243.07,82.54Z" transform="translate(-21.56 -60.94)"/><path class="cls-1" d="M243.07,110.72a4.31,4.31,0,1,1,4.3-4.31A4.31,4.31,0,0,1,243.07,110.72Zm0-6.61a2.31,2.31,0,1,0,2.3,2.3A2.3,2.3,0,0,0,243.07,104.11Z" transform="translate(-21.56 -60.94)"/><path class="cls-2" d="M50.67,408.78A4.31,4.31,0,1,1,55,404.47,4.31,4.31,0,0,1,50.67,408.78Zm0-6.61A2.31,2.31,0,1,0,53,404.48,2.3,2.3,0,0,0,50.67,402.17Z" transform="translate(-21.56 -60.94)"/><path class="cls-1" d="M133.15,408.78a4.31,4.31,0,1,1,4.31-4.31A4.32,4.32,0,0,1,133.15,408.78Zm0-6.61a2.31,2.31,0,1,0,2.31,2.31A2.31,2.31,0,0,0,133.15,402.17Z" transform="translate(-21.56 -60.94)"/></g></svg>