<svg id="Layer_1" data-name="Layer 1" xmlns="http://www.w3.org/2000/svg" xmlns:xlink="http://www.w3.org/1999/xlink" viewBox="0 0 2766.78 2751.35"><defs><style>.cls-1{fill:#f4f7fa;}.cls-2{fill:url(#linear-gradient);}.cls-12,.cls-14,.cls-3{fill:#fff;}.cls-3{opacity:0.16;}.cls-14,.cls-23,.cls-28,.cls-29,.cls-3{isolation:isolate;}.cls-4{fill:url(#linear-gradient-2);}.cls-5{fill:url(#linear-gradient-3);}.cls-6{fill:url(#linear-gradient-4);}.cls-7{fill:url(#linear-gradient-5);}.cls-8{fill:url(#linear-gradient-6);}.cls-9{fill:url(#linear-gradient-7);}.cls-10{fill:url(#linear-gradient-8);}.cls-11{fill:#bfc8d6;}.cls-13{fill:#d8dee8;}.cls-14{opacity:0.48;}.cls-15{fill:url(#linear-gradient-9);}.cls-16{fill:url(#linear-gradient-10);}.cls-17{fill:url(#linear-gradient-11);}.cls-18{fill:url(#linear-gradient-12);}.cls-19{opacity:0.5;}.cls-20{fill:url(#linear-gradient-13);}.cls-21{fill:url(#linear-gradient-14);}.cls-22{fill:url(#linear-gradient-15);}.cls-23{opacity:0.3;fill:url(#linear-gradient-16);}.cls-24{fill:url(#linear-gradient-17);}.cls-25{fill:url(#linear-gradient-18);}.cls-26{fill:url(#linear-gradient-19);}.cls-27{fill:url(#linear-gradient-20);}.cls-28,.cls-29{opacity:0.4;}.cls-28{fill:url(#linear-gradient-21);}.cls-29{fill:url(#linear-gradient-22);}</style><linearGradient id="linear-gradient" x1="4897.43" y1="4973.17" x2="6301.26" y2="4973.17" gradientTransform="translate(9736.33 1729.05) rotate(137.39)" gradientUnits="userSpaceOnUse"><stop offset="0" stop-color="#aa80f9"/><stop offset="1" stop-color="#6165d7"/></linearGradient><linearGradient id="linear-gradient-2" x1="5270.59" y1="2284.67" x2="6266.67" y2="2284.67" gradientTransform="matrix(-1, 0.03, -0.03, -1, 8564.34, 4416.28)" gradientUnits="userSpaceOnUse"><stop offset="0" stop-color="#e38ddd"/><stop offset="1" stop-color="#9571f6"/></linearGradient><linearGradient id="linear-gradient-3" x1="437.13" y1="1465.64" x2="1467.2" y2="1465.64" gradientTransform="matrix(0.97, 0.25, 0.25, -0.97, -237.38, 2527.83)" gradientUnits="userSpaceOnUse"><stop offset="0" stop-color="#ab316d"/><stop offset="1" stop-color="#792d3d"/></linearGradient><linearGradient id="linear-gradient-4" x1="849.28" y1="1419.86" x2="1467.2" y2="1419.86" xlink:href="#linear-gradient-3"/><linearGradient id="linear-gradient-5" x1="1290.27" y1="1989.52" x2="-1.97" y2="-304.45" gradientTransform="matrix(0.97, 0.25, 0.25, -0.97, -237.38, 2527.83)" gradientUnits="userSpaceOnUse"><stop offset="0" stop-color="#ff9085"/><stop offset="1" stop-color="#fb6fbb"/></linearGradient><linearGradient id="linear-gradient-6" x1="1346.73" y1="2096.56" x2="2061.31" y2="2096.56" xlink:href="#linear-gradient-3"/><linearGradient id="linear-gradient-7" x1="1632.65" y1="2064.8" x2="2061.31" y2="2064.8" xlink:href="#linear-gradient-3"/><linearGradient id="linear-gradient-8" x1="1938.57" y1="2459.98" x2="1042.13" y2="868.62" xlink:href="#linear-gradient-5"/><linearGradient id="linear-gradient-9" x1="556.78" y1="734.31" x2="3197.19" y2="734.31" gradientTransform="matrix(1, 0, 0, -1, 0, 3710)" gradientUnits="userSpaceOnUse"><stop offset="0.49" stop-color="#ebeff2"/><stop offset="1" stop-color="#fff"/></linearGradient><linearGradient id="linear-gradient-10" x1="4437.3" y1="3850.46" x2="4386.64" y2="4528.94" gradientTransform="matrix(-0.61, 0.8, -0.8, -0.61, 7265.29, 1093.9)" gradientUnits="userSpaceOnUse"><stop offset="0" stop-color="#40447e"/><stop offset="1" stop-color="#3c3b6b"/></linearGradient><linearGradient id="linear-gradient-11" x1="4412.73" y1="4144.69" x2="4412.73" y2="3876.26" gradientTransform="matrix(-0.61, 0.8, -0.8, -0.61, 7265.29, 1093.9)" xlink:href="#linear-gradient-2"/><linearGradient id="linear-gradient-12" x1="4250.27" y1="3547.53" x2="4575.19" y2="3547.53" gradientTransform="matrix(-0.61, 0.8, -0.8, -0.61, 7265.29, 1093.9)" xlink:href="#linear-gradient-2"/><linearGradient id="linear-gradient-13" x1="4371.64" y1="3141.84" x2="4312.82" y2="3929.48" gradientTransform="matrix(-0.61, 0.8, -0.8, -0.61, 7265.29, 1093.9)" xlink:href="#linear-gradient-2"/><linearGradient id="linear-gradient-14" x1="4511.02" y1="3152.28" x2="4452.2" y2="3939.93" gradientTransform="matrix(-0.61, 0.8, -0.8, -0.61, 7265.29, 1093.9)" xlink:href="#linear-gradient-2"/><linearGradient id="linear-gradient-15" x1="4415.99" y1="4506.17" x2="4399.76" y2="4723.45" xlink:href="#linear-gradient-10"/><linearGradient id="linear-gradient-16" x1="4409.69" y1="3176.45" x2="4354.91" y2="3910.06" gradientTransform="matrix(-0.61, 0.8, -0.8, -0.61, 7265.29, 1093.9)" xlink:href="#linear-gradient-2"/><linearGradient id="linear-gradient-17" x1="120.3" y1="5814.49" x2="-211.47" y2="4522.99" gradientTransform="matrix(0.71, -0.71, -0.71, -0.71, 5641.6, 5799.97)" xlink:href="#linear-gradient-10"/><linearGradient id="linear-gradient-18" x1="-600.27" y1="5999.6" x2="-932.12" y2="4707.75" gradientTransform="matrix(0.71, -0.71, -0.71, -0.71, 5641.6, 5799.97)" xlink:href="#linear-gradient-10"/><linearGradient id="linear-gradient-19" x1="901.67" y1="-3804.72" x2="816.69" y2="-2858.88" gradientTransform="matrix(0.71, -0.71, -0.71, -0.71, 5641.6, 5799.97)" gradientUnits="userSpaceOnUse"><stop offset="0" stop-color="#f36f56"/><stop offset="1" stop-color="#ffc444"/></linearGradient><linearGradient id="linear-gradient-20" x1="149.02" y1="-3870.37" x2="64.07" y2="-2924.74" xlink:href="#linear-gradient-19"/><linearGradient id="linear-gradient-21" x1="-236.75" y1="5358.86" x2="-224.9" y2="5607.68" xlink:href="#linear-gradient-19"/><linearGradient id="linear-gradient-22" x1="-733.22" y1="5355.16" x2="-721.17" y2="5608.23" xlink:href="#linear-gradient-19"/></defs><g id="Illustration"><path class="cls-1" d="M3180.74,1631c-75-490.86-382.46-1093.91-989.9-1157,0,0-461.2-56.09-915.83,28.93-269.83,50.46-506.43,200.67-656.14,416.56s-199.72,479.13-139,730.1c39.42,163,66.06,331.72,58.74,499.22-12.72,291.52-5.4,563.63,277.51,737.49,252.61,155.23,570.53,292.14,873.82,316.12,206.11,16.29,437.26-10.08,635.92-63.74C3338.23,2865.12,3255.73,2121.82,3180.74,1631Z" transform="translate(-454.65 -455.77)"/><path class="cls-2" d="M2556.07,2819.36c-52.88,23-141.9,61.76-248.72,40.42-194.22-38.79-321.21-251-356.53-424.71-30.34-149.24,17.31-303.62,112.62-612.39,89.76-290.8,144.35-362,96.44-452-68.3-128.29-248.36-113.41-305.59-275-6.87-19.4-30.46-86-.7-144,50.94-99.32,222.45-103.77,321.61-83.71,95.65,19.34,236.19,84.18,272.87,202.24,26.58,85.53-23.94,126.33,14.74,192.86,38.92,66.93,101.8,45.81,204.85,122.69,41.17,30.71,123.81,92.36,146.26,186.92,29,122.28-68.86,188.89-24.79,273.57,31.84,61.18,93.36,46.4,142.91,106.41,65.25,79,38.13,200.86,14.22,302C2918.09,2373.66,2842.11,2694.88,2556.07,2819.36Z" transform="translate(-454.65 -455.77)"/><path class="cls-3" d="M1911.88,959.09c-15.38,66.56,221.37,86.5,341.33,287.14,129.07,215.88,44.19,509.26,5,644.84-66.93,231.32-149.58,270-151.61,464.18-.8,76.86-2.48,237,116,349.75,11,10.48,135.51,125.45,285.61,97.28,170.25-31.94,244-223.76,307.54-389,38.39-99.87,115.1-299.38,33.77-368.63-49.72-42.34-147-26.25-208,8.08-86.95,49-111.66,141.9-129.53,135.25-16.1-6-11.54-87.09,18.87-171.67,60.82-169.16,162.86-179.21,197.36-316.6,4.19-16.66,35.41-149.09-42-237.84-44.64-51.18-126.58-89.17-176.54-62.61-56.51,30-47.73,129.67-67.35,129.47-18.76-.19-38.19-91.4-44.23-184.34-8.87-136.58,18.57-163.11-3.62-234.57-33.86-109-134-164.22-148.56-171.94C2110,865.43,1925,902.19,1911.88,959.09Z" transform="translate(-454.65 -455.77)"/><path class="cls-4" d="M2452,2950.06c-39-12.3-104.73-33-152-94.18-85.91-111.21-55.09-283.93,6.91-393.4,53.25-94,150.65-154.48,345.46-275.4,183.46-113.88,245.84-126.57,262.1-197.06,23.18-100.49-80.15-176.36-35.53-289.54,5.35-13.58,23.74-60.22,66.69-77.43,73.53-29.45,167.42,48,211.17,105,42.19,54.89,87.24,155,51.9,235.33-25.6,58.17-71.65,56.49-81.92,110.12-10.33,54,33.17,71.93,52.54,161.07,7.74,35.62,23.27,107.1-8.75,168.18-41.39,79-124.82,69.06-140.65,134.91-11.45,47.58,28.36,68.31,26.95,123.52-1.86,72.67-73.12,125.29-133,168.28C2853.34,2880,2663.08,3016.62,2452,2950.06Z" transform="translate(-454.65 -455.77)"/><path class="cls-3" d="M2973.37,1654.18c-39.23,28.47,78.24,149.4,49,312.67-31.43,175.67-213.49,293.21-297.62,347.52-143.55,92.67-205.8,74.89-297.32,177.9-36.22,40.78-111.68,125.72-100.74,241.28,1,10.73,14.12,130.26,107.6,185.08,106,62.18,234.82-6.17,345.8-65.06,67.06-35.59,201-106.68,189.74-181.62-6.9-45.82-66.5-82.53-115.1-92.51-69.37-14.26-125.85,24-132.33,12.09-5.83-10.7,34.39-52,90-83.12,111.33-62.24,170.64-20.1,253.09-77.59,10-7,88.38-63.33,88.27-146.89-.07-48.19-26.25-106.68-65.37-115.72-44.24-10.24-85.93,47.19-96.34,37.95-9.95-8.84,22.12-66.72,62.17-119.29,58.85-77.24,85.89-78.67,107.28-127.26,32.65-74.13,4.72-150.33.55-161.23C3123,1696.28,3006.91,1629.84,2973.37,1654.18Z" transform="translate(-454.65 -455.77)"/><path class="cls-5" d="M1319.12,1696.94c32.47,28.84,84.11,23.71,115.33-11.45s30.22-87-2.25-115.87c-1.68-1.49-3.45-2.84-5.23-4.15a490.45,490.45,0,0,0,33.47-63.56c2.15.55,4.32,1.08,6.55,1.46,43.74,7.4,88-23,98.75-67.85s-15.88-87.23-59.61-94.62c-2.29-.39-4.57-.61-6.86-.8a448.93,448.93,0,0,0-1.35-69.43c2.27-.63,4.54-1.31,6.8-2.15,43.28-16,68.22-63.51,55.71-106.07s-57.73-64-101-48c-2.22.82-4.35,1.77-6.47,2.76a398.9,398.9,0,0,0-35.81-56.69c1.72-1.66,3.43-3.35,5-5.17,31.23-35.16,69.75-72.41,36.83-100.73-76.14-65.53-123.18-38.86-154.41-3.7-1.62,1.82-3.1,3.71-4.54,5.62a398.52,398.52,0,0,0-60.52-28.87c.72-2.22,1.42-4.45,2-6.75,10.8-44.86,30.38-65.54-12.3-77.62-93.06-26.35-135.26,6-146.07,50.84-.57,2.35-1,4.68-1.33,7a451.07,451.07,0,0,0-69.11,6.85c-.45-2.24-.94-4.49-1.59-6.71-12.51-42.55-57.73-64-101-48s-68.22,63.51-55.71,106.07c.64,2.18,1.42,4.26,2.23,6.33a491,491,0,0,0-59.17,40.74c-1.51-1.61-3.06-3.2-4.74-4.7-32.47-28.83-84.1-23.71-115.33,11.45s-30.21,87,2.26,115.87c1.68,1.5,3.44,2.84,5.22,4.16a490.39,490.39,0,0,0-33.47,63.56c-2.15-.56-4.31-1.09-6.55-1.47-43.74-7.39-88,23-98.75,67.85s15.88,87.23,59.61,94.63c2.29.38,4.57.61,6.86.79a448.88,448.88,0,0,0,1.35,69.43c-2.27.64-4.54,1.31-6.8,2.15-43.28,16-68.22,63.52-55.71,106.07S632.75,1615,676,1599c2.21-.82-19.26-16.57-17.14-17.55a400.36,400.36,0,0,0,35.81,56.69c-1.72,1.66-3.43,3.35-5,5.17-31.23,35.16-30.22,87,2.25,115.87s84.1,23.72,115.33-11.44c1.62-1.82,3.09-3.71,4.54-5.62A399.42,399.42,0,0,0,872.3,1771c-.73,2.22-1.42,4.46-2,6.76-10.8,44.86,15.89,87.23,59.62,94.62s87.94-23,98.75-67.85c.57-2.34,1-4.67,1.33-7a449.84,449.84,0,0,0,69.11-6.86c.45,2.25.94,4.49,1.59,6.72,12.51,42.55,57.73,64.05,101,48s68.22-63.52,55.71-106.07c-.64-2.18-1.42-4.26-2.23-6.33a492.19,492.19,0,0,0,59.17-40.74C1315.9,1693.85,1317.44,1695.45,1319.12,1696.94ZM850.65,1580.45c-117.88-104.71-121.55-293.06-8.18-420.71s300.84-146.26,418.73-41.55,121.56,293,8.19,420.7S968.54,1685.15,850.65,1580.45Z" transform="translate(-454.65 -455.77)"/><path class="cls-6" d="M1467,1503.37c43.73,7.39,87.94-23,98.75-67.85s-15.89-87.23-59.62-94.62c-2.29-.39-4.57-.61-6.86-.8a450.16,450.16,0,0,0-1.34-69.43c2.26-.63,4.53-1.31,6.79-2.15,43.28-16,104.74-66.06,87.93-107.1-31.9-77.9-89.94-63-133.22-47-2.22.82-4.35,1.77-6.47,2.76a398,398,0,0,0-35.81-56.69c1.72-1.66,3.43-3.35,5-5.17,17-19.14,24.37-43.22,22.39-65.85q-77.41,79.35-153.47,160c87.64,107.94,81.11,273.67-21.73,389.45-87.14,98.12-218,131.73-327.48,94.52-8.36,11.6-16.65,23.29-25.33,34.67-23.55,30.89-48.88,60.55-74.22,90.16q14.76,7,29.95,12.74c-.72,2.22-1.42,4.45-2,6.75-10.81,44.87,6.35,89.89,84.87,106.09,43.44,9,62.69-34.44,73.49-79.31.57-2.34,1-4.68,1.34-7a449.84,449.84,0,0,0,69.1-6.86c.45,2.25.94,4.49,1.6,6.71,12.51,42.56,85.22,78.31,128.5,62.28s40.72-77.77,28.22-120.32c-.64-2.18-1.43-4.27-2.23-6.34a489.78,489.78,0,0,0,59.16-40.74c1.52,1.61,3.06,3.21,4.74,4.7,32.47,28.84,84.11,23.71,115.33-11.45s30.22-87-2.25-115.87c-1.68-1.49-3.45-2.84-5.23-4.15a490.45,490.45,0,0,0,33.47-63.56C1462.59,1502.46,1464.76,1503,1467,1503.37Z" transform="translate(-454.65 -455.77)"/><path class="cls-7" d="M1358.21,1712.08c32.47,28.84,84.1,23.72,115.33-11.44s30.21-87-2.26-115.87c-1.68-1.5-3.44-2.85-5.22-4.16a491.69,491.69,0,0,0,33.47-63.56c2.15.56,4.31,1.09,6.55,1.46,43.73,7.4,87.94-23,98.75-67.84s-15.88-87.24-59.62-94.63c-2.28-.39-4.57-.61-6.85-.79a450.29,450.29,0,0,0-1.35-69.44c2.27-.63,4.54-1.31,6.8-2.14,43.27-16,68.22-63.52,55.71-106.08s-57.73-64-101-48c-2.22.82-4.36,1.78-6.48,2.76a398,398,0,0,0-35.81-56.69c1.73-1.66,3.43-3.35,5-5.17,31.22-35.16,30.21-87-2.25-115.87S1374.92,930.88,1343.7,966c-1.62,1.82-3.1,3.71-4.54,5.62a399.93,399.93,0,0,0-60.52-28.87c.72-2.22,1.42-4.45,2-6.75,10.81-44.86-15.88-87.23-59.62-94.62s-87.94,23-98.75,67.84c-.56,2.35-1,4.68-1.33,7a449.84,449.84,0,0,0-69.1,6.86c-.45-2.25-1-4.49-1.6-6.72-12.5-42.55-57.73-64-101-48S881,931.91,893.49,974.46c.65,2.18,1.43,4.26,2.23,6.33a491.72,491.72,0,0,0-59.16,40.74c-1.51-1.61-3.06-3.2-4.74-4.69-32.47-28.84-84.11-23.72-115.33,11.44s-30.22,87,2.25,115.87c1.68,1.5,3.45,2.84,5.23,4.16a491,491,0,0,0-33.47,63.56c-2.15-.56-4.32-1.09-6.55-1.47-43.74-7.39-88,23-98.75,67.85s15.88,87.23,59.61,94.63c2.29.39,4.57.61,6.86.79A450.14,450.14,0,0,0,653,1443.1c-2.26.64-4.53,1.31-6.79,2.15-43.28,16-68.22,63.52-55.71,106.07s57.72,64.06,101,48c2.22-.82,4.35-1.78,6.47-2.76a399.46,399.46,0,0,0,35.81,56.69c-1.72,1.66-3.43,3.35-5,5.17-31.23,35.16-30.22,87,2.25,115.87s84.1,23.72,115.33-11.44c1.62-1.82,3.09-3.71,4.54-5.62a399.48,399.48,0,0,0,60.52,28.87c-.72,2.21-1.42,4.45-2,6.75-10.8,44.86,15.89,87.23,59.62,94.62s87.94-23,98.75-67.84c.56-2.35,1-4.68,1.33-7a449.59,449.59,0,0,0,69.1-6.86c.46,2.25,1,4.49,1.6,6.72,12.51,42.55,57.73,64,101,48s68.22-63.52,55.71-106.07c-.64-2.18-1.42-4.27-2.23-6.33a491.12,491.12,0,0,0,59.17-40.75C1355,1709,1356.53,1710.59,1358.21,1712.08ZM889.74,1595.59c-117.89-104.7-121.56-293.06-8.19-420.71s300.85-146.25,418.74-41.55,121.55,293.06,8.18,420.71S1007.63,1700.29,889.74,1595.59Z" transform="translate(-454.65 -455.77)"/><path class="cls-8" d="M2125.6,1171.54c22.52,20,58.34,16.45,80-7.94s21-60.38-1.56-80.38c-1.17-1-2.39-2-3.62-2.88a341.23,341.23,0,0,0,23.22-44.09c1.49.38,3,.75,4.54,1,30.34,5.13,61-15.94,68.5-47.06s-11-60.52-41.35-65.65c-1.59-.27-3.17-.42-4.76-.55a311.93,311.93,0,0,0-.93-48.17c1.57-.44,3.14-.9,4.71-1.49,30-11.11,47.32-44.06,38.65-73.58s-40.05-44.43-70.07-33.31c-1.54.57-3,1.23-4.49,1.91A277.09,277.09,0,0,0,2193.6,730c1.19-1.15,2.38-2.32,3.5-3.58,21.66-24.39,48.38-50.23,25.55-69.88-52.83-45.46-85.46-27-107.12-2.57-1.12,1.27-2.15,2.58-3.15,3.9a276.56,276.56,0,0,0-42-20c.5-1.54,1-3.09,1.37-4.69,7.5-31.12,21.07-45.47-8.53-53.85-64.56-18.27-93.83,4.15-101.33,35.28-.39,1.62-.67,3.24-.93,4.85a311.94,311.94,0,0,0-47.93,4.76c-.32-1.56-.66-3.11-1.11-4.66-8.68-29.52-40-44.43-70.07-33.31s-47.32,44.06-38.65,73.58c.45,1.51,1,3,1.55,4.4a339,339,0,0,0-41,28.26c-1-1.12-2.12-2.22-3.29-3.26-22.52-20-58.34-16.45-80,7.94s-21,60.38,1.56,80.38c1.17,1,2.39,2,3.63,2.88a339.47,339.47,0,0,0-23.22,44.1c-1.49-.39-3-.76-4.54-1-30.34-5.13-61,15.94-68.51,47.07s11,60.51,41.36,65.64c1.58.27,3.17.42,4.75.55a311.9,311.9,0,0,0,.94,48.17c-1.58.44-3.15.91-4.72,1.49-30,11.12-47.32,44.06-38.65,73.58s56.43,54.69,86.45,43.57c1.54-.57-13.36-11.49-11.89-12.17a278,278,0,0,0,24.84,39.33c-1.19,1.15-2.37,2.32-3.5,3.59-21.66,24.38-21,60.37,1.57,80.38s58.34,16.45,80-7.94c1.12-1.26,2.15-2.58,3.15-3.9a276.22,276.22,0,0,0,42,20c-.51,1.54-1,3.09-1.37,4.69-7.5,31.12,11,60.51,41.35,65.64s61-15.94,68.51-47.07c.39-1.62.67-3.24.92-4.85a312.07,312.07,0,0,0,47.94-4.76c.31,1.56.65,3.11,1.11,4.66,8.67,29.51,40,44.43,70.07,33.31s47.32-44.06,38.64-73.58c-.44-1.51-1-3-1.54-4.39a340.89,340.89,0,0,0,41-28.27C2123.36,1169.4,2124.43,1170.51,2125.6,1171.54Zm-325-80.81c-81.78-72.63-84.32-203.3-5.67-291.85s208.7-101.46,290.48-28.83,84.32,203.3,5.68,291.85S1882.4,1163.36,1800.61,1090.73Z" transform="translate(-454.65 -455.77)"/><path class="cls-9" d="M2228.18,1037.26c30.34,5.13,61-15.94,68.5-47.07s-11-60.51-41.35-65.64c-1.59-.27-3.17-.42-4.76-.55a311.91,311.91,0,0,0-.93-48.17c1.57-.44,3.14-.91,4.71-1.49,30-11.12,72.66-45.82,61-74.3-22.13-54-62.4-43.71-92.42-32.6-1.54.57-3,1.24-4.49,1.92A276.53,276.53,0,0,0,2193.6,730c1.19-1.15,2.38-2.32,3.5-3.58a61,61,0,0,0,15.53-45.68q-53.7,55-106.47,111c60.8,74.89,56.27,189.85-15.07,270.17-60.45,68.07-151.25,91.38-227.18,65.57-5.8,8-11.54,16.16-17.57,24-16.33,21.43-33.9,42-51.48,62.54q10.23,4.86,20.77,8.84c-.5,1.54-1,3.09-1.37,4.69-7.49,31.12,4.41,62.36,58.88,73.59,30.13,6.22,43.49-23.89,51-55,.4-1.62.68-3.24.93-4.85a312.19,312.19,0,0,0,47.94-4.76c.31,1.56.65,3.11,1.11,4.66,8.67,29.52,59.12,54.32,89.14,43.2s28.25-54,19.57-83.47c-.44-1.51-1-3-1.54-4.39a340.89,340.89,0,0,0,41-28.27c1.05,1.12,2.12,2.23,3.29,3.26,22.52,20,58.34,16.45,80-7.94s21-60.38-1.56-80.38c-1.17-1-2.39-2-3.62-2.88a341.16,341.16,0,0,0,23.21-44.09C2225.13,1036.63,2226.63,1037,2228.18,1037.26Z" transform="translate(-454.65 -455.77)"/><path class="cls-10" d="M2152.71,1182.05c22.53,20,58.35,16.45,80-7.94s21-60.38-1.57-80.39c-1.16-1-2.39-2-3.62-2.88a340.58,340.58,0,0,0,23.22-44.09c1.49.39,3,.75,4.54,1,30.34,5.13,61-16,68.51-47.07s-11-60.52-41.36-65.65c-1.59-.26-3.17-.42-4.76-.55a311.8,311.8,0,0,0-.93-48.16c1.57-.44,3.14-.91,4.71-1.49,30-11.12,47.33-44.07,38.65-73.59S2280.06,766.83,2250,778c-1.54.57-3,1.23-4.49,1.91a276.43,276.43,0,0,0-24.84-39.32c1.2-1.15,2.38-2.33,3.5-3.59,21.66-24.39,21-60.38-1.56-80.38s-58.34-16.45-80,7.94c-1.12,1.26-2.14,2.57-3.15,3.89a276.61,276.61,0,0,0-42-20c.5-1.54,1-3.09,1.37-4.68,7.5-31.13-11-60.52-41.36-65.65s-61,16-68.5,47.07c-.39,1.63-.67,3.24-.92,4.86a312.07,312.07,0,0,0-47.94,4.76c-.31-1.56-.66-3.12-1.11-4.66-8.67-29.52-40-44.44-70.07-33.32s-47.32,44.07-38.65,73.59c.45,1.51,1,3,1.55,4.39a341.16,341.16,0,0,0-41,28.26c-1-1.11-2.13-2.22-3.29-3.26-22.53-20-58.35-16.45-80,7.94s-21,60.38,1.57,80.39c1.16,1,2.39,2,3.62,2.88A341.23,341.23,0,0,0,1689.51,835c-1.49-.38-3-.75-4.54-1-30.34-5.13-61,15.94-68.51,47.06s11,60.52,41.36,65.65c1.59.26,3.17.42,4.75.55a313.05,313.05,0,0,0,.94,48.16c-1.57.44-3.15.91-4.71,1.49-30,11.12-47.33,44.07-38.65,73.59s40,44.43,70.07,33.31c1.53-.57,3-1.23,4.48-1.91a277.16,277.16,0,0,0,24.85,39.33c-1.2,1.15-2.38,2.32-3.5,3.58-21.66,24.39-21,60.38,1.56,80.39s58.35,16.45,80-7.94c1.12-1.27,2.14-2.58,3.15-3.9a276.56,276.56,0,0,0,42,20c-.5,1.54-1,3.09-1.37,4.69-7.49,31.12,11,60.51,41.36,65.64s61-15.94,68.5-47.07c.39-1.62.67-3.24.92-4.85a311.94,311.94,0,0,0,47.94-4.76c.32,1.55.66,3.11,1.11,4.65,8.68,29.52,40,44.44,70.07,33.32s47.32-44.06,38.65-73.58c-.45-1.51-1-3-1.55-4.4a338.87,338.87,0,0,0,41-28.26C2150.47,1179.91,2151.54,1181,2152.71,1182.05Zm-325-80.82c-81.78-72.63-84.32-203.29-5.68-291.85s208.7-101.46,290.48-28.82,84.32,203.3,5.68,291.85S1909.51,1173.87,1827.73,1101.23Z" transform="translate(-454.65 -455.77)"/><path class="cls-11" d="M3197.19,2956.22,556.78,2933.4v67.53c0,18.33,11.52,33.91,27.12,36.69l746.63,133a103.65,103.65,0,0,0,26.78,1.25L3168.5,3020.23c16.17-1.35,28.69-17,28.69-35.82v-28.19Z" transform="translate(-454.65 -455.77)"/><path class="cls-11" d="M2225.52,2848,547.32,2971.54c-30,2.21-54.44-21.28-54.44-52.47V1669.36c0-31.19,24.41-56.48,54.44-56.48l59.37,34.22,1618.83-34.22c24.74,0,44.74,22.86,44.74,51.06V2793.65C2270.26,2821.85,2250.26,2846.18,2225.52,2848Z" transform="translate(-454.65 -455.77)"/><path class="cls-12" d="M2252.28,2848,574.08,2971.54c-30,2.21-54.44-21.28-54.44-52.47V1669.36c0-31.19,24.41-56.48,54.44-56.48h1678.2c24.74,0,44.74,22.86,44.74,51.06V2793.65C2297,2821.85,2277,2846.18,2252.28,2848Z" transform="translate(-454.65 -455.77)"/><path class="cls-13" d="M2200,2768.35,636.93,2875.66c-24.43,1.68-44.29-17.6-44.29-43.06V1738.48c0-25.46,19.86-46.19,44.29-46.3L2200,1685.44c20.41-.09,36.91,18.64,36.91,41.84v996.54C2236.91,2747,2220.41,2767,2200,2768.35Z" transform="translate(-454.65 -455.77)"/><polygon class="cls-12" points="736.65 1339.09 314.81 1340.19 314.75 1299.97 736.59 1300.11 736.65 1339.09"/><polygon class="cls-12" points="935.28 1327.45 837.84 1327.62 837.79 1300.14 935.24 1300.17 935.28 1327.45"/><polygon class="cls-12" points="935.34 1365.35 837.9 1365.8 837.85 1338.32 935.3 1338.07 935.34 1365.35"/><polygon class="cls-12" points="1420.96 1363.09 1042.91 1364.85 1042.87 1337.79 1420.92 1336.82 1420.96 1363.09"/><polygon class="cls-12" points="1483.01 1399.11 1108.72 1401.93 1108.68 1375.02 1482.97 1372.98 1483.01 1399.11"/><polygon class="cls-12" points="1483.07 1435.43 1108.78 1439.33 1108.74 1412.42 1483.03 1409.29 1483.07 1435.43"/><polygon class="cls-12" points="1483.12 1471.74 1108.84 1476.72 1108.8 1449.81 1483.08 1445.6 1483.12 1471.74"/><polygon class="cls-12" points="935.4 1403.24 837.96 1403.98 837.91 1376.5 935.36 1375.97 935.4 1403.24"/><polygon class="cls-12" points="935.46 1441.14 838.01 1442.15 837.97 1414.68 935.42 1413.86 935.46 1441.14"/><polygon class="cls-12" points="935.52 1479.03 838.07 1480.33 838.03 1452.85 935.48 1451.76 935.52 1479.03"/><polygon class="cls-12" points="935.58 1516.93 838.13 1518.51 838.09 1491.03 935.53 1489.65 935.58 1516.93"/><polygon class="cls-12" points="1196.7 1512.7 956.84 1516.59 956.8 1489.36 1196.66 1485.96 1196.7 1512.7"/><polygon class="cls-12" points="935.63 1554.83 838.19 1556.69 838.15 1529.21 935.59 1527.55 935.63 1554.83"/><polygon class="cls-12" points="935.69 1592.72 838.25 1594.87 838.21 1567.39 935.65 1565.45 935.69 1592.72"/><polygon class="cls-12" points="935.75 1630.62 838.31 1633.04 838.27 1605.57 935.71 1603.34 935.75 1630.62"/><polygon class="cls-12" points="1309.13 1547.69 1043.2 1552.77 1043.16 1525.72 1309.09 1521.19 1309.13 1547.69"/><polygon class="cls-12" points="1447.35 1581.47 1109.01 1588.91 1108.97 1562 1447.3 1555.26 1447.35 1581.47"/><polygon class="cls-12" points="1447.4 1617.88 1109.07 1626.31 1109.03 1599.39 1447.36 1591.67 1447.4 1617.88"/><polygon class="cls-12" points="935.81 1668.51 838.37 1671.22 838.33 1643.74 935.77 1641.24 935.81 1668.51"/><polygon class="cls-12" points="935.87 1706.41 838.43 1709.4 838.38 1681.92 935.83 1679.13 935.87 1706.41"/><polygon class="cls-12" points="935.93 1744.31 838.49 1747.58 838.44 1720.1 935.89 1717.03 935.93 1744.31"/><polygon class="cls-12" points="935.99 1782.2 838.54 1785.76 838.5 1758.28 935.95 1754.93 935.99 1782.2"/><polygon class="cls-12" points="936.04 1820.1 838.6 1823.93 838.56 1796.45 936 1792.82 936.04 1820.1"/><polygon class="cls-12" points="936.1 1857.99 838.66 1862.11 838.62 1834.63 936.06 1830.72 936.1 1857.99"/><polygon class="cls-12" points="936.16 1895.89 838.72 1900.29 838.68 1872.81 936.12 1868.62 936.16 1895.89"/><polygon class="cls-12" points="936.22 1933.79 838.78 1938.47 838.74 1910.99 936.18 1906.51 936.22 1933.79"/><polygon class="cls-12" points="936.28 1971.68 838.84 1976.64 838.8 1949.17 936.24 1944.41 936.28 1971.68"/><polygon class="cls-12" points="936.34 2009.58 838.9 2014.82 838.86 1987.34 936.3 1982.3 936.34 2009.58"/><polygon class="cls-12" points="936.4 2047.47 838.96 2053 838.91 2025.52 936.36 2020.2 936.4 2047.47"/><polygon class="cls-12" points="936.46 2085.37 839.02 2091.18 838.97 2063.7 936.41 2058.1 936.46 2085.37"/><polygon class="cls-12" points="936.51 2123.27 839.08 2129.36 839.03 2101.88 936.47 2095.99 936.51 2123.27"/><polygon class="cls-12" points="936.57 2161.16 839.13 2167.53 839.09 2140.05 936.53 2133.89 936.57 2161.16"/><polygon class="cls-12" points="936.63 2199.06 839.19 2205.71 839.15 2178.23 936.59 2171.78 936.63 2199.06"/><polygon class="cls-12" points="936.69 2236.96 839.25 2243.89 839.21 2216.41 936.65 2209.68 936.69 2236.96"/><polygon class="cls-12" points="936.75 2274.85 839.31 2282.07 839.27 2254.59 936.71 2247.58 936.75 2274.85"/><polygon class="cls-12" points="936.81 2312.75 839.37 2320.24 839.33 2292.77 936.76 2285.47 936.81 2312.75"/><polygon class="cls-12" points="1221.65 1326.95 955.89 1327.41 955.85 1300.18 1221.61 1300.27 1221.65 1326.95"/><polygon class="cls-12" points="1422.09 2092.93 1044.07 2116.55 1044.03 2089.49 1422.05 2066.67 1422.09 2092.93"/><polygon class="cls-12" points="1484.13 2125.37 1109.88 2149.84 1109.84 2122.92 1484.09 2099.24 1484.13 2125.37"/><polygon class="cls-12" points="1484.19 2161.68 1109.93 2187.23 1109.89 2160.32 1484.15 2135.55 1484.19 2161.68"/><polygon class="cls-12" points="1645.52 2186.52 1280.96 2212.46 1280.92 2185.9 1645.48 2160.72 1645.52 2186.52"/><polygon class="cls-12" points="1645.58 2222.37 1281.02 2249.36 1280.97 2222.8 1645.54 2196.57 1645.58 2222.37"/><polygon class="cls-12" points="1645.63 2258.21 1281.07 2286.26 1281.03 2259.7 1645.59 2232.41 1645.63 2258.21"/><polygon class="cls-12" points="1222.8 2068.31 957.06 2084.14 957.01 2056.91 1222.76 2041.63 1222.8 2068.31"/><polygon class="cls-12" points="1421.47 1691.52 1043.43 1703.11 1043.39 1676.06 1421.43 1665.25 1421.47 1691.52"/><polygon class="cls-12" points="1483.52 1725.93 1109.24 1738.49 1109.2 1711.58 1483.48 1699.79 1483.52 1725.93"/><polygon class="cls-12" points="1483.57 1762.24 1109.3 1775.88 1109.26 1748.97 1483.53 1736.11 1483.57 1762.24"/><polygon class="cls-12" points="1483.63 1798.56 1109.36 1813.28 1109.32 1786.37 1483.59 1772.42 1483.63 1798.56"/><polygon class="cls-12" points="1197.21 1846.97 957.37 1857.1 957.33 1829.87 1197.17 1820.23 1197.21 1846.97"/><polygon class="cls-12" points="1309.64 1879.04 1043.72 1891.04 1043.68 1863.98 1309.6 1852.54 1309.64 1879.04"/><polygon class="cls-12" points="1447.85 1909.22 1109.53 1925.46 1109.49 1898.55 1447.81 1883.01 1447.85 1909.22"/><polygon class="cls-12" points="1447.91 1945.64 1109.59 1962.86 1109.55 1935.95 1447.87 1919.43 1447.91 1945.64"/><polygon class="cls-12" points="1522.96 1978.02 1188.72 1996 1188.68 1969.25 1522.92 1951.96 1522.96 1978.02"/><polygon class="cls-12" points="1523.02 2014.22 1188.78 2033.17 1188.73 2006.42 1522.98 1988.16 1523.02 2014.22"/><polygon class="cls-12" points="1222.17 1660.56 956.41 1667.94 956.37 1640.71 1222.13 1633.88 1222.17 1660.56"/><polygon class="cls-12" points="736.74 1400.01 495.29 1401.74 495.23 1362.05 736.68 1361.02 736.74 1400.01"/><polygon class="cls-12" points="432.84 1402.19 478.32 1401.86 478.26 1362.12 432.78 1362.31 432.84 1402.19"/><polygon class="cls-12" points="736.83 1456.04 495.38 1458.8 495.32 1419.1 736.77 1417.06 736.83 1456.04"/><polygon class="cls-12" points="432.93 1459.51 478.41 1458.99 478.35 1419.25 432.87 1419.63 432.93 1459.51"/><polygon class="cls-12" points="736.91 1512.08 495.47 1515.85 495.41 1476.16 736.85 1473.1 736.91 1512.08"/><polygon class="cls-12" points="433.02 1516.83 478.5 1516.12 478.43 1476.37 432.96 1476.95 433.02 1516.83"/><polygon class="cls-12" points="737.53 1909.86 315.72 1929.05 315.66 1888.83 737.47 1870.88 737.53 1909.86"/><polygon class="cls-12" points="737.62 1970.77 496.19 1982.86 496.13 1943.17 737.56 1931.79 737.62 1970.77"/><polygon class="cls-12" points="433.75 1985.99 479.22 1983.71 479.16 1943.97 433.68 1946.11 433.75 1985.99"/><polygon class="cls-12" points="737.71 2026.81 496.28 2039.92 496.22 2000.22 737.65 1987.83 737.71 2026.81"/><polygon class="cls-12" points="433.83 2043.31 479.31 2040.84 479.24 2001.1 433.77 2003.43 433.83 2043.31"/><polygon class="cls-12" points="737.79 2082.85 496.37 2096.97 496.31 2057.28 737.74 2043.86 737.79 2082.85"/><polygon class="cls-12" points="433.92 2100.63 479.39 2097.96 479.33 2058.22 433.86 2060.75 433.92 2100.63"/><polygon class="cls-12" points="737 1568.5 315.18 1576.87 315.12 1536.65 736.94 1529.52 737 1568.5"/><polygon class="cls-12" points="737.09 1629.41 495.65 1635.31 495.59 1595.62 737.03 1590.43 737.09 1629.41"/><polygon class="cls-12" points="433.21 1636.83 478.68 1635.72 478.62 1595.98 433.14 1596.96 433.21 1636.83"/><polygon class="cls-12" points="737.18 1685.45 495.74 1692.36 495.68 1652.67 737.12 1646.47 737.18 1685.45"/><polygon class="cls-12" points="433.29 1694.15 478.77 1692.85 478.71 1653.11 433.23 1654.28 433.29 1694.15"/><polygon class="cls-12" points="737.36 1798.26 495.92 1807.22 495.86 1767.53 737.29 1759.27 737.36 1798.26"/><polygon class="cls-12" points="433.47 1809.53 478.95 1807.85 478.88 1768.11 433.41 1769.66 433.47 1809.53"/><polygon class="cls-12" points="737.44 1854.29 496.01 1864.27 495.95 1824.58 737.38 1815.31 737.44 1854.29"/><polygon class="cls-12" points="433.56 1866.85 479.03 1864.97 478.97 1825.23 433.5 1826.98 433.56 1866.85"/><polygon class="cls-12" points="737.27 1741.49 495.83 1749.42 495.77 1709.73 737.21 1702.51 737.27 1741.49"/><polygon class="cls-12" points="433.38 1751.47 478.86 1749.98 478.8 1710.24 433.32 1711.6 433.38 1751.47"/><polygon class="cls-12" points="737.88 2138.87 316.09 2165.32 316.02 2125.1 737.82 2099.88 737.88 2138.87"/><polygon class="cls-12" points="737.98 2199.78 496.55 2216.02 496.49 2176.33 737.92 2160.79 737.98 2199.78"/><polygon class="cls-12" points="434.11 2220.23 479.58 2217.17 479.52 2177.43 434.05 2180.35 434.11 2220.23"/><polygon class="cls-12" points="738.06 2255.82 496.64 2273.08 496.58 2233.39 738 2216.83 738.06 2255.82"/><polygon class="cls-12" points="434.2 2277.55 479.67 2274.29 479.61 2234.55 434.13 2237.67 434.2 2277.55"/><polygon class="cls-12" points="738.15 2311.86 496.73 2330.14 496.67 2290.44 738.09 2272.87 738.15 2311.86"/><polygon class="cls-12" points="434.28 2334.86 479.75 2331.42 479.69 2291.68 434.22 2294.99 434.28 2334.86"/><polygon class="cls-12" points="789.4 2308.17 780.12 2308.87 778.56 1300.12 787.85 1300.13 789.4 2308.17"/><path class="cls-12" d="M1472.45,1647.07c0,11.61-8.64,21-19.3,21.08s-19.35-9.37-19.35-21,8.67-21.08,19.35-21.09S1472.45,1635.45,1472.45,1647.07Z" transform="translate(-454.65 -455.77)"/><path class="cls-14" d="M574.08,2971.54l1669.7-122.91,8.5-.63c11.35-.84,21.67-6.45,29.55-15-120.15-6.57-194.78-49.21-242.92-93.27-96.68-88.48-79.91-175.73-184.17-233.91-130-72.56-232.28,19.38-331-71.33-59.82-55-30.45-96-104.06-178.2-81.53-91-134.61-60.43-216.55-142.35-103.6-103.59-51.78-184.19-141-258.56-108.27-90.23-225-6.72-328.08-93.25-44.45-37.32-68.84-91.58-81.58-149.29H574.08c-30,0-54.44,25.29-54.44,56.48V2919.07C519.64,2950.26,544.05,2973.75,574.08,2971.54Z" transform="translate(-454.65 -455.77)"/><path class="cls-15" d="M2331.35,2841.15l-1774.57,130L1330.53,3109a103.21,103.21,0,0,0,26.78,1.25l1839.88-154L2359.57,2842A135.21,135.21,0,0,0,2331.35,2841.15Z" transform="translate(-454.65 -455.77)"/><polygon class="cls-13" points="361.07 2516.53 1838.44 2406.66 2295.68 2468.49 831.03 2585.94 361.07 2516.53"/><path class="cls-16" d="M1486.42,2285a30.68,30.68,0,0,0,43-5.86l3.35-4.4a30.67,30.67,0,0,0-5.86-43l-493.83-375.42a30.67,30.67,0,0,0-43,5.86l-3.35,4.4a30.67,30.67,0,0,0,5.86,43Z" transform="translate(-454.65 -455.77)"/><path class="cls-17" d="M1425.54,2357.71a30.67,30.67,0,0,0,43-5.86l117.09-154a30.67,30.67,0,0,0-5.86-43L1557.61,2138a30.68,30.68,0,0,0-43,5.85l-117.08,154a30.67,30.67,0,0,0,5.85,43Z" transform="translate(-454.65 -455.77)"/><path class="cls-18" d="M1432.08,2406.7l480.37,365.18a61.6,61.6,0,0,0,86.11-11.87L2120.8,2599.2a61.36,61.36,0,0,0-11.72-86L1628.71,2148a61.63,61.63,0,0,0-86.1,11.63l-122.24,160.8A61.68,61.68,0,0,0,1432.08,2406.7Z" transform="translate(-454.65 -455.77)"/><g class="cls-19"><path class="cls-20" d="M2012.46,2583.81a22.29,22.29,0,0,0,31.24-4.26h0a22.29,22.29,0,0,0-4.25-31.24l-398.14-302.67a22.3,22.3,0,0,0-31.25,4.26h0a22.31,22.31,0,0,0,4.26,31.25Z" transform="translate(-454.65 -455.77)"/><path class="cls-21" d="M1927.63,2695.39a22.31,22.31,0,0,0,31.25-4.25h0a22.31,22.31,0,0,0-4.26-31.25l-398.14-302.67a22.29,22.29,0,0,0-31.24,4.26h0a22.31,22.31,0,0,0,4.25,31.25Z" transform="translate(-454.65 -455.77)"/></g><path class="cls-22" d="M909.59,1899.78,816,1792.91a13.29,13.29,0,0,1-.53-16.82l14.87-19.56,12.38-16.28,15.07-19.83a13.27,13.27,0,0,1,16.35-4l128,61.63a20.7,20.7,0,0,1,9.3,9l17.07,32.68c5.68,10.68,4.14,23.31-3.18,32.93l-12.76,16.78-12.38,16.29-12.55,16.51c-7.31,9.62-19.08,14.48-30.88,11.87l-36.31-7.9A19.81,19.81,0,0,1,909.59,1899.78Z" transform="translate(-454.65 -455.77)"/><path class="cls-23" d="M1950.83,2784.21a61.21,61.21,0,0,0,47.72-24.2l122.25-160.8a61.39,61.39,0,0,0-11.72-86L1628.71,2148a61.31,61.31,0,0,0-66-5.26c36.84,18.8,91.77,44.52,110.54,84,17.91,37.71,69.89,104.52,144.4,129s213.64,109.77,228,188S2069.36,2682.67,1950.83,2784.21Z" transform="translate(-454.65 -455.77)"/><path class="cls-24" d="M1800.83,1938.39l-199.6-52.94-54-199.34L1757,1497.67c12.68-12.75-10-42.62-28-43.35a315.12,315.12,0,0,0-242,98.06c-118,124.12-115.07,321.11,6.48,441.79,123.71,122.83,323.56,122.24,446.55-1.37,65-65.33,106.57-142.48,102.67-227.82-.82-18-33.63-35.94-46.33-23.18Z" transform="translate(-454.65 -455.77)"/><path class="cls-25" d="M1493.66,1881l-727.43,680.5a115.12,115.12,0,0,0-1.55,164.72h0a115.13,115.13,0,0,0,164.68-2.35l677.28-730.46Z" transform="translate(-454.65 -455.77)"/><path class="cls-26" d="M1812.34,1951.26l-199.61-53-54-199.33,195.6-196.59c12.68-12.75,4.13-34.47-13.84-35.21a315.12,315.12,0,0,0-242,98.07c-118,124.12-115.07,321.11,6.47,441.79,123.71,122.82,323.57,122.23,446.55-1.38a315.05,315.05,0,0,0,91.62-237.28c-.82-18-22.57-26.48-35.27-13.71Z" transform="translate(-454.65 -455.77)"/><path class="cls-27" d="M1505.17,1893.89l-727.43,680.5a115.1,115.1,0,0,0-1.55,164.71h0a115.11,115.11,0,0,0,164.67-2.34l677.29-730.46Z" transform="translate(-454.65 -455.77)"/><path class="cls-28" d="M1541,1970.4a46.73,46.73,0,1,1-66.09.17A46.73,46.73,0,0,1,1541,1970.4Z" transform="translate(-454.65 -455.77)"/><path class="cls-29" d="M1481.22,2069.68,892.58,2661.31a27.64,27.64,0,0,1-39.1.1h0a27.64,27.64,0,0,1-.09-39.09L1442,2030.69Z" transform="translate(-454.65 -455.77)"/></g></svg>