<svg id="Layer_1" data-name="Layer 1" xmlns="http://www.w3.org/2000/svg" viewBox="0 0 470.19 470.2"><defs><style>.cls-1{fill:#ffa466;}.cls-2{fill:#fff;}.cls-3{fill:#e2e3e4;}.cls-4{fill:#3c3c3b;}.cls-5{fill:#636362;}.cls-6{fill:#1e1e1e;}.cls-7{fill:#00b3ff;}.cls-8{fill:#66d1ff;}.cls-9{fill:#ccc;}</style></defs><path class="cls-1" d="M484,248.69c0,129.85-105.25,235.12-235.09,235.12S13.77,378.54,13.77,248.69,119,13.6,248.87,13.6,484,118.86,484,248.69Z" transform="translate(-13.77 -13.6)"/><path class="cls-1" d="M132.77,367.47v0Z" transform="translate(-13.77 -13.6)"/><polygon class="cls-2" points="231.01 129.48 231.01 139.79 231.01 156.29 239.29 156.29 239.29 148.08 239.29 129.48 231.01 129.48"/><path class="cls-3" d="M215.65,116.8v-1.74h22.58v22.6h-1.72A20.89,20.89,0,0,1,215.65,116.8Zm3.53,1.7a17.45,17.45,0,0,0,15.61,15.63V118.5Z" transform="translate(-13.77 -13.6)"/><path class="cls-3" d="M266.37,115.06V110.4H248.92v43.28H250a16.33,16.33,0,0,0,16.33-16.34V137a20.88,20.88,0,0,0,15.85-20.22v-1.74Zm0,18.39V118.5h12.32A17.41,17.41,0,0,1,266.37,133.45Z" transform="translate(-13.77 -13.6)"/><path class="cls-2" d="M248.92,110.4H231.51v26.94a16.32,16.32,0,0,0,16.33,16.34h1.08V110.4Z" transform="translate(-13.77 -13.6)"/><path class="cls-4" d="M75.58,350a17.5,17.5,0,0,0,17.5,17.49H248.91V350Z" transform="translate(-13.77 -13.6)"/><path class="cls-5" d="M248.91,332.49H93.08A17.49,17.49,0,0,0,75.58,350H248.91Z" transform="translate(-13.77 -13.6)"/><path class="cls-6" d="M248.91,367.47H400.83A17.5,17.5,0,0,0,418.32,350H248.91Z" transform="translate(-13.77 -13.6)"/><path class="cls-4" d="M400.83,332.49H248.91V350H418.32A17.48,17.48,0,0,0,400.83,332.49Z" transform="translate(-13.77 -13.6)"/><path class="cls-3" d="M252.56,279.16a13.64,13.64,0,0,1-1.58.19c-.53,0-1.09.07-1.7.07s-1.12,0-1.69-.07a11.44,11.44,0,0,1-1.57-.19V259.05l-43.73,43.74v29.7h93.3v-123l-43,43Z" transform="translate(-13.77 -13.6)"/><path class="cls-2" d="M251.26,179.79h-49v123L246,259.05V233.12c.51-.08,1-.15,1.6-.2s1.11,0,1.66,0,1.12,0,1.67,0,1.09.12,1.61.2v19.4l43-43V179.79Z" transform="translate(-13.77 -13.6)"/><path class="cls-7" d="M247.59,279.35c.57,0,1.14.07,1.69.07s1.17,0,1.7-.07a13.64,13.64,0,0,0,1.58-.19V252.52L246,259.05v20.11A11.44,11.44,0,0,0,247.59,279.35Z" transform="translate(-13.77 -13.6)"/><path class="cls-8" d="M252.56,233.12c-.52-.08-1.06-.15-1.61-.2s-1.11,0-1.67,0-1.1,0-1.66,0-1.09.12-1.6.2v25.93l6.54-6.53Z" transform="translate(-13.77 -13.6)"/><path class="cls-3" d="M109,218.35V322.06l35-35V252.4a15.72,15.72,0,0,1,1.59-.19c.56-.05,1.12-.07,1.67-.07s1.11,0,1.67.07a15.72,15.72,0,0,1,1.59.19v28.15l11.28-11.27V252.4c.52-.09,1.05-.15,1.6-.19s1.1-.07,1.66-.07,1.11,0,1.67.07a15.58,15.58,0,0,1,1.6.19v10.34l34-34V218.35Z" transform="translate(-13.77 -13.6)"/><path class="cls-9" d="M168.31,298.45c-.51.08-1,.14-1.57.19s-1.1.06-1.7.06-1.12,0-1.69-.06-1.1-.11-1.57-.19V269.28L150.5,280.55v17.9c-.51.08-1,.14-1.56.19s-1.1.06-1.7.06-1.12,0-1.7-.06-1.09-.11-1.56-.19V287.07l-35,35v10.43h93.31V228.76l-34,34Z" transform="translate(-13.77 -13.6)"/><path class="cls-8" d="M150.5,252.4a15.72,15.72,0,0,0-1.59-.19c-.56-.05-1.12-.07-1.67-.07s-1.11,0-1.67.07a15.72,15.72,0,0,0-1.59.19v34.67l6.52-6.52Z" transform="translate(-13.77 -13.6)"/><path class="cls-7" d="M145.54,298.64c.58,0,1.15.06,1.7.06s1.17,0,1.7-.06,1.05-.11,1.56-.19v-17.9L144,287.07v11.38C144.45,298.53,145,298.59,145.54,298.64Z" transform="translate(-13.77 -13.6)"/><path class="cls-8" d="M168.31,252.4a15.58,15.58,0,0,0-1.6-.19c-.56-.05-1.11-.07-1.67-.07s-1.11,0-1.66.07-1.08.1-1.6.19v16.88l6.53-6.54Z" transform="translate(-13.77 -13.6)"/><path class="cls-7" d="M163.35,298.64c.57,0,1.13.06,1.69.06s1.17,0,1.7-.06,1.06-.11,1.57-.19V262.74l-6.53,6.54v29.17C162.25,298.53,162.77,298.59,163.35,298.64Z" transform="translate(-13.77 -13.6)"/><path class="cls-3" d="M321.36,271.29a15.58,15.58,0,0,1,1.6-.19c.56,0,1.11-.07,1.66-.07s1.12,0,1.67.07a15.92,15.92,0,0,1,1.6.19v37.37l11.27-11.27v-26.1a15.92,15.92,0,0,1,1.6-.19c.56,0,1.11-.07,1.67-.07s1.11,0,1.66.07a16.13,16.13,0,0,1,1.61.19v19.57L357,279.58v-8.29a15.58,15.58,0,0,1,1.6-.19c.55,0,1.11-.07,1.67-.07s1.11,0,1.65.07a15.26,15.26,0,0,1,1.6.19v1.76l16.92-16.91H295.59v76.35h8.47l17.3-17.29Z" transform="translate(-13.77 -13.6)"/><path class="cls-9" d="M380.41,256.14l-16.92,16.91v44.29c-.5.08-1,.14-1.56.19s-1.1.06-1.69.06-1.13,0-1.71-.06-1.1-.11-1.56-.19V279.58L345.7,290.86v26.48c-.52.08-1,.14-1.57.19s-1.11.06-1.7.06-1.12,0-1.7-.06-1.1-.11-1.57-.19V297.39l-11.27,11.27v8.68c-.51.08-1,.14-1.57.19s-1.09.06-1.7.06-1.12,0-1.69-.06-1.1-.11-1.57-.19V315.2l-17.3,17.29h84.83V256.14Z" transform="translate(-13.77 -13.6)"/><path class="cls-8" d="M326.29,271.1c-.55,0-1.11-.07-1.67-.07s-1.1,0-1.66.07a15.58,15.58,0,0,0-1.6.19V315.2l6.53-6.54V271.29A15.92,15.92,0,0,0,326.29,271.1Z" transform="translate(-13.77 -13.6)"/><path class="cls-7" d="M321.36,317.34c.47.08,1,.14,1.57.19s1.14.06,1.69.06,1.17,0,1.7-.06,1.06-.11,1.57-.19v-8.68l-6.53,6.54Z" transform="translate(-13.77 -13.6)"/><path class="cls-8" d="M344.09,271.1c-.55,0-1.11-.07-1.66-.07s-1.11,0-1.67.07a15.92,15.92,0,0,0-1.6.19v26.1l6.54-6.53V271.29A16.13,16.13,0,0,0,344.09,271.1Z" transform="translate(-13.77 -13.6)"/><path class="cls-7" d="M339.16,317.34c.47.08,1,.14,1.57.19s1.14.06,1.7.06,1.16,0,1.7-.06,1.05-.11,1.57-.19V290.86l-6.54,6.53Z" transform="translate(-13.77 -13.6)"/><path class="cls-8" d="M361.89,271.1c-.54,0-1.11-.07-1.65-.07s-1.12,0-1.67.07a15.58,15.58,0,0,0-1.6.19v8.29l6.52-6.53v-1.76A15.26,15.26,0,0,0,361.89,271.1Z" transform="translate(-13.77 -13.6)"/><path class="cls-7" d="M357,317.34c.46.08,1,.14,1.56.19s1.15.06,1.71.06,1.16,0,1.69-.06,1.06-.11,1.56-.19V273.05L357,279.58Z" transform="translate(-13.77 -13.6)"/><polygon class="cls-3" points="224.83 156.29 214.94 166.19 255.14 166.19 245.25 156.29 224.83 156.29"/></svg>