<svg xmlns="http://www.w3.org/2000/svg" viewBox="0 0 400.7 400.7"><defs><style>.cls-1{isolation:isolate;}.cls-2{fill:#0f76b8;}.cls-3{fill:#ff9549;}.cls-12,.cls-4{fill:#ffe7d2;}.cls-4{opacity:0.54;}.cls-5{fill:#ffba7f;}.cls-6{fill:#fff;}.cls-7{fill:#385775;}.cls-8{fill:#ffa15b;}.cls-9{fill:#21384b;}.cls-10,.cls-11{fill:#ffb984;}.cls-11{opacity:0.22;mix-blend-mode:multiply;}.cls-12{opacity:0.35;}</style></defs><g class="cls-1"><g id="Ñëîé_1" data-name="Ñëîé 1"><path class="cls-2" d="M426.64,228.32c0,110.64-89.7,200.34-200.35,200.34S25.94,339,25.94,228.32,115.65,28,226.29,28,426.64,117.66,426.64,228.32Z" transform="translate(-25.94 -27.96)"/><path class="cls-3" d="M219.63,180.11c9.69,1.49,14.07,9.15,20.34,15.78,7.05,7.42,13.25,15.29,20.68,22.56,5.82,5.7,7,12-2.06,13.59-6.95,1.2-14.43-6.15-19.52-10.3-6.14-5-13.46-14.4-21.09-17.59s-17.38,2.21-24.75,3.43c-10.86,1.75-27.07,3.86-31.38-4.57-5.42-10.59,3.54-19.56,5.52-20.91C175.47,176.54,211.65,178.93,219.63,180.11Z" transform="translate(-25.94 -27.96)"/><path class="cls-4" d="M260.65,218.45c-1.22-1.2-2.28-2.46-3.43-3.67a5.18,5.18,0,0,0-1.14,1.2c-2.1,4,.69,9.44,6.23,12.22a13.63,13.63,0,0,0,1.92.79l.19,0C266.21,226.2,264.48,222.21,260.65,218.45Z" transform="translate(-25.94 -27.96)"/><path class="cls-5" d="M228.73,207.66l-68.57,44.91c-6.82,4.41-9.64,12.11-6.34,17.23s11.51,5.69,18.33,1.27l47.7-30.92c.35.77.8,1.57,1.19,2.31L162.3,280.52c-6.8,4.41-9.64,12.12-6.32,17.23s11.51,5.7,18.32,1.28L232,261.65l.32.55c.27.4.53.75.79,1.17l-53.37,34.57c-6.8,4.39-9.64,12.11-6.32,17.22s11.51,5.68,18.31,1.29l54.21-35.1,1,1.3L207,308.52c-4.27,2.78-5,9.13-1.73,14.24s9.46,7,13.73,4.28l74-47.4c.27-.15,19.74-15.15,20-15.34a105.9,105.9,0,0,0,16.47-17.65c4.24-6-.08-15.4-13.45-37.51-12.49-20.62-16-27.48-22.83-28,0,0-7,.57-18.29.88C251.35,191.08,247,194.54,228.73,207.66Z" transform="translate(-25.94 -27.96)"/><polygon class="cls-6" points="276.92 137.2 323.56 216.78 312.44 223.29 265.78 143.73 276.92 137.2"/><polygon class="cls-7" points="334.63 100.36 386.31 188.46 324.87 224.48 273.18 136.37 334.63 100.36"/><path class="cls-8" d="M223.19,203.86l70.75,41.39c7,4.07,10.22,11.62,7.19,16.9s-11.21,6.28-18.25,2.2l-49.19-28.49c-.33.78-.72,1.61-1.07,2.38l60.57,35.05c7,4,10.24,11.61,7.19,16.87s-11.21,6.29-18.24,2.21L222.65,258c-.11.2-.2.36-.3.56-.24.42-.48.77-.72,1.21l55,31.83c7,4.06,10.24,11.61,7.18,16.88s-11.21,6.27-18.22,2.21l-55.89-32.33-1,1.36L250,303.49c4.39,2.56,5.48,8.87,2.42,14.13s-9.08,7.5-13.48,5L162.6,279c-.26-.15-20.47-14.14-20.72-14.31a105.54,105.54,0,0,1-17.31-16.81c-4.57-5.82-.71-15.38,11.54-38.15,11.42-21.22,14.59-28.22,21.38-29.07,0,0,7,.21,18.32,0C199.77,188.44,204.26,191.67,223.19,203.86Z" transform="translate(-25.94 -27.96)"/><polygon class="cls-6" points="121.07 137.17 78.48 219 89.92 224.95 132.52 143.14 121.07 137.17"/><rect class="cls-9" x="44.44" y="157.37" width="102.14" height="71.22" transform="translate(-145.7 160.56) rotate(-62.48)"/><path class="cls-4" d="M299.66,280.87a9.46,9.46,0,0,1-.14,8.67c-1.62,2.89-4.77,4.38-8.27,4.5a13.88,13.88,0,0,1-1.89-.8c-5.4-2.77-8.12-8.23-6.07-12.21s8.07-4.95,13.47-2.18A15,15,0,0,1,299.66,280.87Z" transform="translate(-25.94 -27.96)"/><path class="cls-4" d="M300.38,253.06A9,9,0,0,1,292,266.25a12.13,12.13,0,0,1-1.88-.79c-5.41-2.76-8.11-8.24-6.07-12.21s8.08-4.95,13.47-2.2A15.92,15.92,0,0,1,300.38,253.06Z" transform="translate(-25.94 -27.96)"/><path class="cls-4" d="M283.13,299a9.49,9.49,0,0,1-.14,8.67c-1.62,2.89-4.78,4.41-8.28,4.5a13.18,13.18,0,0,1-1.88-.79c-5.4-2.78-8.12-8.23-6.08-12.21s8.08-5,13.47-2.16A14.37,14.37,0,0,1,283.13,299Z" transform="translate(-25.94 -27.96)"/><path class="cls-4" d="M252.06,308.43a9,9,0,0,1-8.42,13.19,18,18,0,0,1-1.88-.8c-5.4-2.78-8.12-8.24-6.09-12.23s8.08-4.94,13.47-2.18A14.28,14.28,0,0,1,252.06,308.43Z" transform="translate(-25.94 -27.96)"/><path class="cls-10" d="M236.43,179.18c-10.25,2.57-14.93,11-21.61,18.61-7.48,8.49-14.07,17.32-22,25.68-6.18,6.58-7.43,13.27,2.1,13.89,7.36.48,15.3-8,20.7-12.81,6.54-5.91,14.33-16.45,22.41-20.58s18.36.39,26.15.84c11.49.63,28.6,1,33.21-8.17,5.8-11.59-3.63-19.93-5.72-21.11C283.15,170.64,244.86,177.08,236.43,179.18Z" transform="translate(-25.94 -27.96)"/><path class="cls-11" d="M289.36,186.11a14.43,14.43,0,0,1,.18,12.74c-4,8.63-20.6,7.32-31.79,6.09-7.59-.83-17.89-5.74-25.46-2.19s-14.58,13.28-20.6,18.6c-5,4.39-12.22,12.1-19.38,11.24a11.73,11.73,0,0,1-4.33-1.32c0,2.76,2,4.9,7,5.48,7.17.87,14.42-6.82,19.38-11.22,6-5.32,13-15.05,20.61-18.61s17.86,1.36,25.45,2.2c11.19,1.24,27.84,2.53,31.79-6.09C295.46,195.89,292.41,189.83,289.36,186.11Z" transform="translate(-25.94 -27.96)"/><path class="cls-12" d="M198.62,224.55a8,8,0,0,0-2.14-5.25c-1.23,1.38-2.35,2.8-3.64,4.17-3.71,3.94-5.58,7.9-4.47,10.6C194.25,233,198.62,229.15,198.62,224.55Z" transform="translate(-25.94 -27.96)"/></g></g></svg>