<svg id="Ñëîé_1" data-name="Ñëîé 1" xmlns="http://www.w3.org/2000/svg" viewBox="0 0 395.47 395.47"><defs><style>.cls-1{fill:#0f76b8;}.cls-2{fill:#1aaebc;}.cls-3{fill:#ffdfa6;}.cls-4{fill:#f2c614;}.cls-5{fill:#5f6d7a;}.cls-6{fill:#fff;}</style></defs><circle class="cls-1" cx="224.74" cy="227.91" r="197.73" transform="translate(-42.28 409.5) rotate(-86.82)"/><path class="cls-2" d="M217.4,268.93a5,5,0,0,0,5-4.95v-8.55a5,5,0,0,0-5-5h-7.32c-.31-1.64-.71-3.23-1.15-4.81l6.23-2.58a5,5,0,0,0,2.68-6.48l-3.27-7.9a5,5,0,0,0-6.48-2.69l-6.8,2.82c-1-1.51-2-3-3.15-4.4l5.51-5.5a5,5,0,0,0,0-7l-6.05-6a5,5,0,0,0-7,0l-6,6c-1.37-.91-2.79-1.75-4.23-2.56l3-7.19a5,5,0,0,0-2.68-6.48l-7.91-3.28a5,5,0,0,0-6.48,2.69L163,203c-.9-.18-1.81-.35-2.73-.5v-6.93a5,5,0,0,0-5-5h-8.55a5,5,0,0,0-5,5v7c-1.64.27-3.25.62-4.85,1l-2.66-6.43a5,5,0,0,0-6.48-2.69l-7.91,3.27a5,5,0,0,0-2.68,6.48l2.7,6.52c-1.09.67-2.15,1.36-3.2,2.1l-5.37-5.37a5,5,0,0,0-7,0l-6,6a5,5,0,0,0,0,7l5.18,5.18c-1,1.31-1.91,2.69-2.79,4.09l-7-2.91a5,5,0,0,0-6.48,2.68l-3.27,7.9a5,5,0,0,0,2.68,6.48l6.77,2.81c-.31,1.23-.6,2.47-.84,3.73H85.15a5,5,0,0,0-5,5V264a5,5,0,0,0,5,4.95h6.72c.2,1.65.49,3.28.82,4.88l-6.8,2.81a5,5,0,0,0-2.68,6.49L86.49,291A5,5,0,0,0,93,293.69l6.21-2.58c.74,1.31,1.5,2.59,2.33,3.83l-4.44,4.45a5,5,0,0,0,0,7l6,6.05a5,5,0,0,0,7,0l3.92-3.93c1.29,1,2.63,2,4,2.89l-2.42,5.85a5,5,0,0,0,2.68,6.48l7.91,3.27a5,5,0,0,0,6.48-2.68l2.12-5.13a59.16,59.16,0,0,0,6.94,1.56v7a5,5,0,0,0,5,5h8.55a5,5,0,0,0,5-5v-6.94c1.64-.24,3.25-.58,4.86-1l2.69,6.51a5,5,0,0,0,6.48,2.68l7.9-3.28a5,5,0,0,0,2.69-6.47l-2.67-6.43c1.74-1.06,3.44-2.18,5.06-3.39l4.52,4.52a5,5,0,0,0,7,0l6.05-6a5,5,0,0,0,0-7l-4.72-4.72c.95-1.34,1.83-2.74,2.68-4.16l5.93,2.46a5,5,0,0,0,6.48-2.69l3.27-7.9a5,5,0,0,0-2.68-6.48l-6.18-2.56a56.82,56.82,0,0,0,1.06-6Zm-66.12,17a24.29,24.29,0,1,1,24.28-24.29A24.29,24.29,0,0,1,151.28,286Z" transform="translate(-27 -30.18)"/><path class="cls-3" d="M333,302.86a4.06,4.06,0,0,0,4-4v-7a4,4,0,0,0-4-4h-6c-.25-1.33-.57-2.63-.93-3.92l5.07-2.1a4,4,0,0,0,2.18-5.27l-2.66-6.43a4,4,0,0,0-5.27-2.19l-5.54,2.29c-.8-1.22-1.65-2.43-2.57-3.57l4.5-4.49a4.07,4.07,0,0,0,0-5.71l-4.93-4.92a4.06,4.06,0,0,0-5.72,0l-4.9,4.91c-1.12-.74-2.27-1.42-3.44-2.08l2.43-5.86a4.06,4.06,0,0,0-2.19-5.27l-6.43-2.67a4.07,4.07,0,0,0-5.28,2.19l-2.66,6.42c-.74-.14-1.47-.29-2.22-.4v-5.65a4,4,0,0,0-4-4h-7a4,4,0,0,0-4,4v5.72c-1.34.22-2.65.51-3.95.82l-2.17-5.23a4,4,0,0,0-5.27-2.18l-6.43,2.66a4,4,0,0,0-2.19,5.27l2.19,5.3c-.87.55-1.74,1.11-2.59,1.71l-4.37-4.37a4,4,0,0,0-5.71,0L236,257.73a4,4,0,0,0,0,5.71l4.21,4.22c-.81,1.07-1.55,2.19-2.27,3.33l-5.72-2.37a4,4,0,0,0-5.27,2.19l-2.67,6.42a4.06,4.06,0,0,0,2.18,5.28l5.52,2.28c-.26,1-.49,2-.68,3h-6a4.05,4.05,0,0,0-4,4v7a4.06,4.06,0,0,0,4,4h5.48c.16,1.34.39,2.66.66,4L226,309.11a4.07,4.07,0,0,0-2.19,5.28l2.67,6.43a4.05,4.05,0,0,0,5.28,2.19l5-2.1c.6,1.06,1.23,2.1,1.91,3.11L235,327.64a4,4,0,0,0,0,5.71l4.92,4.93a4.07,4.07,0,0,0,5.71,0l3.19-3.2c1,.83,2.15,1.61,3.26,2.35l-2,4.76a4,4,0,0,0,2.18,5.28l6.43,2.66a4,4,0,0,0,5.27-2.19l1.73-4.17a48.19,48.19,0,0,0,5.65,1.27v5.72a4.05,4.05,0,0,0,4,4h7a4.06,4.06,0,0,0,4-4v-5.65c1.34-.2,2.65-.48,4-.78l2.2,5.3a4,4,0,0,0,5.27,2.18l6.43-2.66a4,4,0,0,0,2.18-5.28l-2.16-5.23a48.3,48.3,0,0,0,4.11-2.76l3.68,3.68a4,4,0,0,0,5.71,0l4.93-4.92a4,4,0,0,0,0-5.71l-3.84-3.84c.77-1.09,1.48-2.23,2.17-3.38l4.84,2a4.07,4.07,0,0,0,5.28-2.19l2.66-6.43a4.07,4.07,0,0,0-2.19-5.28l-5-2.08a49.06,49.06,0,0,0,.86-4.87ZM279.17,316.7a19.77,19.77,0,1,1,19.76-19.76A19.77,19.77,0,0,1,279.17,316.7Z" transform="translate(-27 -30.18)"/><path class="cls-4" d="M270,146.11c0-19.51-15.15-35.32-33.83-35.32s-33.81,15.81-33.81,35.32c0,14.17,14.06,27,14.06,27a21.6,21.6,0,0,1,6,12.54l.32,4.62a8.08,8.08,0,0,0,7.77,7.55h11.34a8.09,8.09,0,0,0,7.78-7.55l.32-4.62a21.65,21.65,0,0,1,6-12.54S270,160.28,270,146.11Z" transform="translate(-27 -30.18)"/><path class="cls-5" d="M246.86,217.22a2.43,2.43,0,0,1-2.65,2.11H228.13a2.44,2.44,0,0,1-2.65-2.11v-.7a2.44,2.44,0,0,1,2.65-2.11h16.08a2.43,2.43,0,0,1,2.65,2.11Z" transform="translate(-27 -30.18)"/><path class="cls-5" d="M246.86,211.35a2.43,2.43,0,0,1-2.65,2.11H228.13a2.44,2.44,0,0,1-2.65-2.11v-.7a2.43,2.43,0,0,1,2.65-2.11h16.08a2.43,2.43,0,0,1,2.65,2.11Z" transform="translate(-27 -30.18)"/><path class="cls-5" d="M246.86,205.57a2.43,2.43,0,0,1-2.65,2.11H228.13a2.44,2.44,0,0,1-2.65-2.11v-.7a2.44,2.44,0,0,1,2.65-2.11h16.08a2.43,2.43,0,0,1,2.65,2.11Z" transform="translate(-27 -30.18)"/><path class="cls-5" d="M243.48,221.62a2,2,0,0,1-1.82,2.12h-11a2,2,0,0,1-1.82-2.12v-.69a2,2,0,0,1,1.82-2.11h11a2,2,0,0,1,1.82,2.11Z" transform="translate(-27 -30.18)"/><path class="cls-6" d="M255.81,149.12c-.63,0-1.05-.76-1.66-2s-1.48-3-3.27-3-2.6,1.69-3.26,3-1,2-1.65,2-1-.76-1.65-2-1.47-3-3.26-3-2.6,1.69-3.27,3-1,2-1.64,2-1-.76-1.65-2-1.48-3-3.26-3-2.6,1.69-3.26,3-1,2-1.64,2-1-.76-1.65-2-1.47-3.05-3.25-3.05-2.6,1.69-3.26,3-1,2-1.64,2a.95.95,0,0,0,0,1.89c1.78,0,2.6-1.68,3.26-3a11.65,11.65,0,0,1,.58-1.09l9.47,50.71a.92.92,0,0,0,.89.76.47.47,0,0,0,.17,0,.93.93,0,0,0,.72-1.11l-9.5-50.86a7.14,7.14,0,0,1,1,1.61c.66,1.36,1.47,3,3.26,3s2.61-1.68,3.26-3,1-2,1.64-2,1,.75,1.65,2,1.48,3,3.26,3,2.6-1.68,3.26-3,1-2,1.65-2,1,.75,1.65,2,1.47,3,3.26,3,2.61-1.68,3.27-3l.14-.27-9.26,49.52a1,1,0,0,0,.73,1.11.47.47,0,0,0,.17,0,.93.93,0,0,0,.89-.76l9.59-51.32a6.5,6.5,0,0,1,1,1.7c.66,1.36,1.48,3,3.27,3a.95.95,0,0,0,0-1.89Z" transform="translate(-27 -30.18)"/><rect class="cls-4" x="208.22" y="48.62" width="3.73" height="21.28" rx="1"/><path class="cls-4" d="M213.79,85.19a1,1,0,0,0-1.29-.53l-1.61.69a1,1,0,0,0-.54,1.33l7.06,17.8a1,1,0,0,0,1.29.54l1.6-.7a1,1,0,0,0,.55-1.32Z" transform="translate(-27 -30.18)"/><path class="cls-4" d="M192.81,98.76a.94.94,0,0,0-1.38,0l-1.25,1.31a1.05,1.05,0,0,0,0,1.44l13,13.6a1,1,0,0,0,1.39,0l1.25-1.31a1.05,1.05,0,0,0,0-1.44Z" transform="translate(-27 -30.18)"/><path class="cls-4" d="M178.41,119.67a1,1,0,0,0-1.29.53l-.69,1.74a1.05,1.05,0,0,0,.55,1.33l17,7.35a1,1,0,0,0,1.29-.53l.69-1.74a1,1,0,0,0-.55-1.33Z" transform="translate(-27 -30.18)"/><rect class="cls-4" x="146.35" y="114.56" width="20.38" height="3.89" rx="1"/><path class="cls-4" d="M251.82,103a1,1,0,0,0,.55,1.32l1.61.7a1,1,0,0,0,1.29-.54l7-17.8a1,1,0,0,0-.55-1.33l-1.6-.69a1,1,0,0,0-1.28.53Z" transform="translate(-27 -30.18)"/><path class="cls-4" d="M266.83,112.36a1.05,1.05,0,0,0,0,1.44l1.26,1.31a.94.94,0,0,0,1.38,0l13-13.6a1.06,1.06,0,0,0,0-1.45l-1.26-1.3a.94.94,0,0,0-1.38,0Z" transform="translate(-27 -30.18)"/><path class="cls-4" d="M277.27,127a1,1,0,0,0-.55,1.33l.69,1.74a1,1,0,0,0,1.29.53l17-7.35a1,1,0,0,0,.55-1.33l-.69-1.74a1,1,0,0,0-1.28-.53Z" transform="translate(-27 -30.18)"/><rect class="cls-4" x="251.93" y="114.56" width="20.38" height="3.89" rx="1"/><path class="cls-5" d="M246.52,199.76a2.38,2.38,0,0,1-2.57,2.11H228.4a2.38,2.38,0,0,1-2.57-2.11v-.7A2.38,2.38,0,0,1,228.4,197H244a2.39,2.39,0,0,1,2.57,2.11Z" transform="translate(-27 -30.18)"/></svg>