<svg id="Layer_1" data-name="Layer 1" xmlns="http://www.w3.org/2000/svg" viewBox="0 0 453.23 453.24"><defs><style>.cls-1{fill:#959595;}.cls-2{fill:#00b3ff;}.cls-3{fill:#66d1ff;}.cls-4{fill:#ffcab3;}.cls-5{fill:#ffdfd1;}.cls-6{fill:#3c3c3b;}.cls-7{fill:#fff;}.cls-8{fill:#e2e3e4;}.cls-9{fill:#f9b59d;}.cls-10{fill:#1e1e1e;}.cls-11{fill:#ff6800;}.cls-12{fill:#ffa466;}</style></defs><path class="cls-1" d="M474,252.92c0,125.16-101.46,226.62-226.61,226.62S20.77,378.08,20.77,252.92,122.23,26.3,247.39,26.3,474,127.77,474,252.92Z" transform="translate(-20.77 -26.3)"/><path class="cls-2" d="M381.19,318.21H360.84l.08,10.94-10.5,25.44L342.1,324l-8.48,31.19-10.39-26.05V318.21H302.9a33.15,33.15,0,0,0-33.14,33.15v24.25H403a11.33,11.33,0,0,0,11.33-11.33V351.37h0A33.15,33.15,0,0,0,381.19,318.21Z" transform="translate(-20.77 -26.3)"/><path class="cls-3" d="M190.71,318.22H170.37l.07,10.93L160,354.6,151.63,324l-8.49,31.19-10.38-26.05V318.22H112.43a33.14,33.14,0,0,0-33.14,33.14v12.92a11.33,11.33,0,0,0,11.33,11.33H223.86V351.37h0A33.15,33.15,0,0,0,190.71,318.22Z" transform="translate(-20.77 -26.3)"/><path class="cls-4" d="M359.74,248.89c-7.27,0-15.92,6.39-20.27,11.54l2.63,54.76c19.28-.17,35.1-23.9,37.35-44a42.87,42.87,0,0,0,.28-4.75v-8.26C377.73,253,365.27,248.89,359.74,248.89Z" transform="translate(-20.77 -26.3)"/><path class="cls-5" d="M371.87,230.11a105,105,0,0,1-60.11,18.78c-2.58,0-5.13-.13-7.67-.31a38.76,38.76,0,0,0-.31,4.6v13.29a40.62,40.62,0,0,0,.29,4.75c2.27,20.18,18.27,44,37.69,44l.34,0V290.33c2.42,0,4-2.3,4-4.47V261.33s.51-.65,1.39-1.6c2.54-2.7,8.18-7.89,14.2-7.89,12.46,0,18,6.37,18,6.37v-5A37.7,37.7,0,0,0,371.87,230.11Z" transform="translate(-20.77 -26.3)"/><path class="cls-6" d="M382.86,221.37a49.68,49.68,0,0,0-90.37,25.74c0,.88-.07,1.78-.07,2.67v10a11.48,11.48,0,0,0,11.42,11.49h.23a40.62,40.62,0,0,1-.29-4.75V253.18a38.76,38.76,0,0,1,.31-4.6c2.54.18,5.09.31,7.67.31A105.13,105.13,0,0,0,371.9,230.1s0,0,0,0a37.7,37.7,0,0,1,7.86,23.07v13.29a42.87,42.87,0,0,1-.28,4.75h.92a11.48,11.48,0,0,0,11.42-11.49v-10A49.48,49.48,0,0,0,382.86,221.37Z" transform="translate(-20.77 -26.3)"/><path class="cls-7" d="M360.84,329.15V318.21h0A33,33,0,0,1,342.1,324l8.32,30.58,6.51-15.76,4-9.68Z" transform="translate(-20.77 -26.3)"/><path class="cls-4" d="M169.28,248.89c-7.28,0-15.93,6.39-20.29,11.54l2.64,54.76c19.27-.17,35.08-23.9,37.34-44a40.62,40.62,0,0,0,.29-4.75v-8.26C187.26,253,174.78,248.89,169.28,248.89Z" transform="translate(-20.77 -26.3)"/><path class="cls-5" d="M181.41,230.12a105.17,105.17,0,0,1-60.12,18.77c-2.59,0-5.13-.13-7.68-.31a38.77,38.77,0,0,0-.3,4.6v13.29a40.62,40.62,0,0,0,.29,4.75c2.26,20.18,18.26,44,37.68,44l.35,0V290.33c2.42,0,4-2.3,4-4.47V261.33s.51-.65,1.4-1.6c2.53-2.7,8.17-7.89,14.19-7.89,12.48,0,18,6.37,18,6.37v-5A37.76,37.76,0,0,0,181.41,230.12Z" transform="translate(-20.77 -26.3)"/><path class="cls-6" d="M192.38,221.37A49.68,49.68,0,0,0,102,247.11c0,.88-.07,1.78-.07,2.67v10a11.48,11.48,0,0,0,11.41,11.49h.24a40.62,40.62,0,0,1-.29-4.75V253.18a38.77,38.77,0,0,1,.3-4.6c2.55.18,5.09.31,7.68.31a105,105,0,0,0,60.13-18.79s0,0,0,0a37.76,37.76,0,0,1,7.85,23.06v13.29a40.62,40.62,0,0,1-.29,4.75h.92a11.49,11.49,0,0,0,11.43-11.49v-10A49.44,49.44,0,0,0,192.38,221.37Z" transform="translate(-20.77 -26.3)"/><path class="cls-7" d="M132.92,318.22h-.16v10.93l3.91,9.81,6.47,16.24L151.63,324A33.05,33.05,0,0,1,132.92,318.22Z" transform="translate(-20.77 -26.3)"/><polygon class="cls-7" points="248.02 294.96 226.12 273.06 238.42 318.23 248.02 294.96"/><polygon class="cls-8" points="204.03 295.15 213.59 319.13 226.12 273.06 204.03 295.15"/><path class="cls-9" d="M273,188.42c-10.75,0-23.52,9.43-30,17l3.89,80.89c28.46-.26,51.83-35.31,55.17-65a62.49,62.49,0,0,0,.42-7v-12.2C299.52,194.47,281.1,188.42,273,188.42Z" transform="translate(-20.77 -26.3)"/><path class="cls-4" d="M290.88,160.67a155.17,155.17,0,0,1-88.78,27.75c-3.82,0-7.6-.19-11.35-.47a56.54,56.54,0,0,0-.45,6.8v19.62a60.26,60.26,0,0,0,.43,7c3.34,29.8,27,65,55.66,65h.5V249.63c3.58,0,5.94-3.41,5.94-6.61V206.8s.76-1,2.08-2.37c3.74-4,12.06-11.65,21-11.65,18.42,0,26.61,9.39,26.61,9.39v-7.42A55.82,55.82,0,0,0,290.88,160.67Z" transform="translate(-20.77 -26.3)"/><path class="cls-10" d="M307.08,147.77a73.37,73.37,0,0,0-133.46,38c-.07,1.3-.11,2.63-.11,4v14.69a17,17,0,0,0,16.87,17h.35a60.26,60.26,0,0,1-.43-7V194.75a56.54,56.54,0,0,1,.45-6.8c3.75.28,7.53.47,11.35.47a155.09,155.09,0,0,0,88.79-27.76h0a55.82,55.82,0,0,1,11.6,34.08v19.62a62.49,62.49,0,0,1-.42,7h1.35a17,17,0,0,0,16.88-17V189.74A72.94,72.94,0,0,0,307.08,147.77Z" transform="translate(-20.77 -26.3)"/><path class="cls-7" d="M219.27,290.81H219V307l5.78,14.5,22.09-22.1A48.69,48.69,0,0,1,219.27,290.81Z" transform="translate(-20.77 -26.3)"/><path class="cls-8" d="M274.69,307h-.12V290.81h0a48.73,48.73,0,0,1-27.64,8.55l21.9,21.9Z" transform="translate(-20.77 -26.3)"/><path class="cls-11" d="M304.62,290.81h-30l.11,16.15-15.5,37.58-12.3-45.18-12.53,46.07L219,307l-22.78,22.78,45.84,45.84H353.57V339.76A48.94,48.94,0,0,0,304.62,290.81Z" transform="translate(-20.77 -26.3)"/><polygon class="cls-11" points="198.25 264.51 182.1 264.51 198.25 280.66 198.25 264.51"/><path class="cls-12" d="M196.24,329.74,219,307l-16.15-16.15H189a49,49,0,0,0-49,48.95v35.82h102Z" transform="translate(-20.77 -26.3)"/><rect class="cls-12" x="238" y="303.05" width="17.8" height="17.8" transform="translate(-169.03 239.56) rotate(-44.99)"/></svg>