<svg id="Ñëîé_1" data-name="Ñëîé 1" xmlns="http://www.w3.org/2000/svg" viewBox="0 0 417.41 417.41"><defs><style>.cls-1{fill:#0f76b8;}.cls-2{fill:#ffb13a;}.cls-3{fill:#ffd633;}.cls-4{fill:#47617a;}.cls-5{fill:#344757;}.cls-6{fill:#fff2bd;}.cls-7{fill:#fff;}.cls-8{fill:#f9af7f;}.cls-9{fill:#ffd8c7;opacity:0.54;}</style></defs><path class="cls-1" d="M430.05,225c0,115.27-93.44,208.7-208.71,208.7S12.64,340.27,12.64,225,106.08,16.3,221.34,16.3,430.05,109.73,430.05,225Z" transform="translate(-12.64 -16.3)"/><path class="cls-2" d="M221.6,195.54c-55.6,0-100.84-41.5-100.84-92.5a84.85,84.85,0,0,1,.45-8.67l.34-3.34,3.35.32c.72.06,72.62,7,96.12,7,26.59,0,96.58-6.9,97.28-7l3.36-.34.34,3.36c.3,3,.45,5.88.45,8.67C322.45,154,277.21,195.54,221.6,195.54ZM127.67,98.4c-.1,1.59-.15,3.12-.15,4.64,0,47.27,42.2,85.74,94.08,85.74s94.08-38.47,94.08-85.74c0-1.51,0-3.05-.14-4.63-14.59,1.41-70.69,6.66-94.52,6.66C199.88,105.07,142.45,99.79,127.67,98.4Z" transform="translate(-12.64 -16.3)"/><path class="cls-2" d="M258.1,280.18a3.49,3.49,0,0,0-1.85-.71c-25.36-5.12-10.14-75.66-10.14-75.66h-49s15.21,70.54-10.14,75.66c-1.09.22-1.67.46-1.85.71Z" transform="translate(-12.64 -16.3)"/><path class="cls-3" d="M281,164.15V76.68s-43.78-3.48-59-3.48c-14.5,0-60,3.48-60,3.48v88h.18c-.07,1.07-.18,2.15-.18,3.23,0,29.53,39.53,55.17,59.65,53.48,23.4.84,59.64-23.95,59.64-53.48C281.25,166.68,281.14,165.41,281,164.15Z" transform="translate(-12.64 -16.3)"/><rect class="cls-3" x="157.2" y="266.2" width="103.52" height="16.83"/><rect class="cls-4" x="131.85" y="363.12" width="154.23" height="9.52"/><rect class="cls-5" x="118.33" y="376.07" width="181.27" height="9.52"/><rect class="cls-5" x="146.5" y="286.99" width="124.92" height="73"/><rect class="cls-6" x="168.92" y="300.09" width="80.09" height="46.8"/><path class="cls-6" d="M208.32,195.39a36.38,36.38,0,0,0,6.6.66c31,0,56.14-39.12,56.14-87.37a129.67,129.67,0,0,0-4.23-32.9c-5.7-.41-12.5-.88-19.24-1.29a128.89,128.89,0,0,1,4.9,35.57C252.49,151.91,233.57,186.85,208.32,195.39Z" transform="translate(-12.64 -16.3)"/><path class="cls-6" d="M194.34,197.31c-10.8-.6-20.84-5.89-29.24-14.69,9.69,22.9,39.75,40.4,56.48,39A43,43,0,0,0,234,220C221.72,218.26,205.65,209.57,194.34,197.31Z" transform="translate(-12.64 -16.3)"/><polygon class="cls-7" points="373.85 133.71 346.29 180.39 339.77 176.54 367.31 129.86 373.85 133.71"/><polygon class="cls-4" points="409.24 152.83 378.75 204.54 342.7 183.27 373.2 131.56 409.24 152.83"/><path class="cls-8" d="M375.49,149.6a72.25,72.25,0,0,1-4.62-10.33c-2.73-15.12-13.87-37-13.87-37-1.19-6.06-1.3-8.36-3.79-9.27-3.42-1.08-8.74,1.74-9,5.63-.32,5.14,7.75,23.08-.75,25.4L314,109.12c-.13-.07-.27-.07-.4-.14l-3.48-1.76c-2.28-1.16-5.44.49-7.06,3.68s-1.07,6.71,1.22,7.87l19.9,10.08c-.26.35-.51.75-.75,1.12l-21.93-11.59c-2.26-1.21-5.45.39-7.13,3.55,0,0,0,0,0,.06h0a5.13,5.13,0,0,0-.47,1.31c-.91,2.74-.38,5.49,1.56,6.52l2.49,1.32c.32.21.64.44,1,.63l17.71,9.39a2.58,2.58,0,0,0-.18.32c-.14.25-.25.49-.38.74L302.05,135l-7.29-3.87c-2.2-1.17-5.27.35-7,3.35-.06.08-.16.12-.21.22a4.7,4.7,0,0,0-.49,1.51c-.84,2.69-.29,5.35,1.61,6.37l2.72,1.43c.24.16.47.33.73.47l5.44,2.8,12.89,6.82c-.11.25-.22.52-.32.76l-17.37-8.49s-.08,0-.12,0l-.58-.3c-2.26-1.21-5.45.38-7.13,3.55s-1.19,6.69,1.07,7.89l22.19,11.73a3.77,3.77,0,0,0,.7.15l15.95,8.3c.15.08,13.42,5.81,13.58,5.88a61.68,61.68,0,0,0,13.77,3.41c4.32.46,7.89-4.44,15.43-17.61C374.67,157,377.19,153.25,375.49,149.6Z" transform="translate(-12.64 -16.3)"/><path class="cls-9" d="M353.2,93a6.66,6.66,0,0,0-4.22.27c-1.07,4.92,1.16,9.68,5.26,10.85a6.79,6.79,0,0,0,3.13.15c-.23-1.28-.38-2-.38-2C355.8,96.24,355.7,93.94,353.2,93Z" transform="translate(-12.64 -16.3)"/><polygon class="cls-7" points="43.56 133.71 71.12 180.39 77.64 176.54 50.1 129.86 43.56 133.71"/><polygon class="cls-5" points="8.17 152.83 38.66 204.54 74.7 183.27 44.21 131.56 8.17 152.83"/><path class="cls-8" d="M67.2,149.6a72.25,72.25,0,0,0,4.62-10.33c2.72-15.12,13.87-37,13.87-37,1.19-6.06,1.3-8.36,3.79-9.27,3.42-1.08,8.74,1.74,9,5.63.32,5.14-7.75,23.08.75,25.4l29.44-14.94c.13-.07.27-.07.4-.14l3.48-1.76c2.28-1.16,5.44.49,7.06,3.68s1.07,6.71-1.22,7.87l-19.9,10.08c.25.35.51.75.75,1.12l21.93-11.59c2.26-1.21,5.45.39,7.13,3.55,0,0,0,0,0,.06h0a5.13,5.13,0,0,1,.47,1.31c.91,2.74.38,5.49-1.57,6.52l-2.48,1.32c-.33.21-.64.44-1,.63L126,141.16c.06.11.13.21.18.32s.25.49.38.74L140.64,135l7.29-3.87c2.2-1.17,5.27.35,7,3.35.06.08.16.12.21.22a5,5,0,0,1,.49,1.51c.84,2.69.29,5.35-1.62,6.37L151.27,144c-.24.16-.47.33-.73.47l-5.45,2.8-12.89,6.82c.12.25.23.52.33.76l17.37-8.49s.08,0,.12,0l.58-.3c2.26-1.21,5.45.38,7.13,3.55s1.19,6.69-1.07,7.89l-22.19,11.73a4,4,0,0,1-.7.15l-16,8.3c-.15.08-13.42,5.81-13.58,5.88a61.69,61.69,0,0,1-13.78,3.41c-4.32.46-7.88-4.44-15.42-17.61C68,157,65.5,153.25,67.2,149.6Z" transform="translate(-12.64 -16.3)"/><path class="cls-9" d="M89.49,93a6.69,6.69,0,0,1,4.23.27c1.06,4.92-1.17,9.68-5.27,10.85a6.78,6.78,0,0,1-3.13.15c.23-1.28.38-2,.38-2C86.89,96.24,87,93.94,89.49,93Z" transform="translate(-12.64 -16.3)"/></svg>