<?xml version="1.0" encoding="utf-8"?>
<!-- Generator: Adobe Illustrator 27.5.0, SVG Export Plug-In . SVG Version: 6.00 Build 0)  -->
<svg version="1.1" id="Ñëîé_1" xmlns="http://www.w3.org/2000/svg" xmlns:xlink="http://www.w3.org/1999/xlink" x="0px" y="0px"
	 viewBox="0 0 6000 4000" style="enable-background:new 0 0 6000 4000;" xml:space="preserve">
<g>
	<rect style="fill:#FFFFFF;" width="6000" height="4000"/>
	<g>
		<linearGradient id="SVGID_1_" gradientUnits="userSpaceOnUse" x1="120.651" y1="1942.1782" x2="5879.3491" y2="1942.1782">
			<stop  offset="0" style="stop-color:#78EFD0"/>
			<stop  offset="0.2681" style="stop-color:#72E9D4"/>
			<stop  offset="0.6248" style="stop-color:#62D8E0"/>
			<stop  offset="1" style="stop-color:#49BFF2"/>
		</linearGradient>
		<path style="fill:url(#SVGID_1_);" d="M5857.729,3306.635c39.035-141.745,18.232-308.385-7.714-446.456
			c-41.019-218.276-156.151-442.175-160.198-664.773c-5.902-324.533,146.023-639.652,115.607-961.207
			c-28.126-297.347-188.838-490.663-451.572-657.96c-202.337-128.837-443.617-252.561-685.668-303.375
			c-494.4-103.79-950.584,89.582-1394.438,283.067C2934.411,703.854,2599.367,705.327,2236.4,712.511
			c-228.969,4.531-457.678-3.188-686.447-11.975c-324.388-12.46-855.015-92.518-1094.342,192.461
			c-290.539,345.989-77.86,850.554-164.746,1246.485c-72.832,331.884-216.306,647.212-155.606,997.463
			c30.88,178.186,179.475,333.262,348.338,397.604c136.291,51.932,285.821,66.609,430.494,74.438
			c381.511,20.645,764.542,7.875,1146.402,5.559c500.751-3.037,1000.074,19.198,1500.609,25.753
			c206.567,2.704,400.078-20.026,604.041-42.809c283.008-31.611,571.584-4.851,854.248,19.091
			c226.859,19.214,492.498,46.521,690-92.086C5788.719,3468.82,5834.145,3392.271,5857.729,3306.635z"/>
		<g>
			<path style="fill:#23B39A;" d="M5409.752,3293.773c-84.752,50.347-167.542,92.412-232.02,130.687
				c-2.992,1.744-5.947,3.468-8.871,5.182l-0.006,0.004c-95.567,55.305-151.406,99.129-183.912,69.162
				c-0.842-0.772-1.668-1.596-2.477-2.472c-0.805-0.873-1.588-1.792-2.346-2.75c-27.414-34.766-26.548-131.373,29.188-220.828
				c1.713-2.79,3.484-5.568,5.301-8.339c42.062-65.563,114.662-124.946,203.898-177.826c10.963-6.603,22.053-12.876,33.213-18.882
				l0.007-0.001c2.419-1.309,4.845-2.596,7.266-3.877c75.52-39.372,151.749-68.409,213.07-95.182
				c2.382-1.029,4.749-2.046,7.087-3.058c88.504-37.747,145.264-70.109,161.791-78.997c3.174-1.714,4.852-2.57,4.852-2.57
				s0.041,2.719-0.029,7.793c-0.292,28.774-4.086,132.814-57.942,226.736c-1.2,2.113-2.408,4.217-3.624,6.31
				c-30.776,52.985-76.94,102.89-137.324,144.836c-2.185,1.528-4.389,3.046-6.604,4.557
				C5430.43,3280.944,5420.25,3287.452,5409.752,3293.773z"/>
			<path style="fill:#201600;" d="M5440.27,3274.258c2.215-1.511,4.419-3.028,6.604-4.557
				c-53.649-19.348-107.488-38.896-161.174-58.28c63.07-38.301,127.283-75.366,185.621-118.792
				c38.143,11.307,75.822,22.107,112.877,32.236c1.216-2.095,2.424-4.196,3.624-6.31c-36.015-9.731-72.642-20.125-109.728-31.017
				c68.273-51.822,128.001-112.908,167.67-195.72c0.07-5.074,0.029-7.793,0.029-7.793s-1.678,0.856-4.852,2.57
				c-39.383,82.211-98.531,143.01-166.186,194.593c2.465-37.446,4.056-75.843,4.395-115.596c-2.353,1.031-4.715,2.048-7.087,3.058
				c-0.575,40.753-2.45,80.1-5.212,118.492c-58.416,43.524-122.738,80.652-185.916,119.021
				c-7.351-47.481-14.547-94.799-21.942-142.331c-2.421,1.281-4.847,2.568-7.266,3.877l-0.004,0.001
				c7.382,47.661,14.604,95.143,22.017,142.832c-84.271,51.394-166.025,105.513-228.464,180.555
				c-11.085-43.161-21.246-85.323-30.667-126.679c-1.816,2.771-3.586,5.547-5.301,8.339c9.441,40.729,19.623,82.259,30.709,124.767
				c-23.061,28.667-43.322,60.363-59.896,96.062c0.758,0.958,1.541,1.877,2.346,2.75c0.809,0.876,1.635,1.699,2.477,2.472
				c16.592-35.74,36.889-67.476,59.987-96.173c40.154,7.755,81.552,16.854,123.925,27.011l0.006-0.004
				c2.924-1.716,5.879-3.438,8.871-5.182c-43.524-10.659-86.064-20.255-127.345-28.486
				c62.397-74.857,144.023-128.887,228.157-180.199C5332.381,3235.188,5386.4,3254.807,5440.27,3274.258z"/>
		</g>
		<g>
			<path style="fill:#00A5C1;" d="M5201.635,3236.513c-1.643,1.768-3.449,3.439-5.432,4.996
				c-16.271,12.872-44.17,18.556-91.854,11.626c-183.564-26.685-271.024-72.783-288.906-83.155
				c-2.355-1.367-3.506-2.113-3.506-2.113s-0.224-1.28-0.631-3.697c-6.525-38.864-59.353-372.047,43.347-396.236
				c1.941-0.456,3.849-0.879,5.722-1.263c2.355-0.49,4.655-0.925,6.904-1.301c86.879-14.712,95.84,47.694,129.994,26.812
				c34.705-21.218-7.364-169.077,81.851-163.543c1.091,0.068,2.204,0.16,3.338,0.275c1.218,0.121,2.423,0.263,3.613,0.426
				c90.376,12.12,105.414,128.342,118.062,43.381c10.832-72.74,36.545-153.803,80.471-165.653c2.295-0.62,4.641-1.045,7.032-1.277
				c6.013-0.581,12.34,0.104,18.993,2.221c60.016,19.095,81.701,73.452,163.877,47.405c56.426-17.884,114.379-40.688,132.451-27.669
				c1.926,1.385,3.398,3.18,4.366,5.431c3.185,7.389,0.942,19.701-8.497,38.671c-42.042,84.474-87.206,77.879-72.818,155.074
				c10.631,57.063,43.516,97.334,28.518,126.915c-1.039,2.051-2.307,4.047-3.828,5.996c-6.225,7.975-16.696,15.129-33,21.594
				c-66.779,26.476-119.932-6.4-165.13,3.225c-32.551,6.935,38.039,39.439,62.396,94.791c10.727,24.365,4.904,49.258-11.914,68.166
				c-1.652,1.861-3.412,3.664-5.277,5.401c-21.631,20.2-56.924,31.736-97.537,24.86
				C5166.07,3054.494,5249.221,3185.57,5201.635,3236.513z"/>
			<path d="M5201.635,3236.513c-1.643,1.768-3.449,3.439-5.432,4.996c-50.119-25.916-96.162-52.072-135.706-77.146
				c-59.465-37.704-104.05-72.54-132.622-103.611c-0.357-0.386-0.707-0.772-1.054-1.158
				c-40.669,37.489-78.474,74.653-111.378,110.386c-2.355-1.367-3.506-2.113-3.506-2.113s-0.224-1.28-0.631-3.697
				c31.354-34.018,68.379-70.717,110.864-109.898c-15.948-19.435-29.122-50.584-39.184-92.703
				c-8.378-35.063-14.667-77.845-18.696-127.152c-1.939-23.811-3.162-46.887-3.916-67.745l6.904-1.301
				c0.746,21.05,1.975,44.423,3.942,68.542c3.999,48.945,10.231,91.361,18.53,126.072c9.766,40.87,22.389,70.968,37.535,89.574
				c18.817-17.263,38.68-35.003,59.58-53.202c39.898-34.754,83.592-71.211,130.781-109.142
				c-10.887-16.527-19.596-43.549-25.918-80.514c-5.635-32.963-9.447-73.977-11.33-121.916c-0.762-19.419-1.142-38.438-1.276-56.146
				l6.951,0.701c0.139,17.441,0.519,36.137,1.265,55.221c3.93,99.993,16.252,168.164,35.74,198.289
				c52.354-41.965,108.948-85.718,169.397-130.934c5.216-3.908,10.413-7.786,15.597-11.637
				c-19.188-24.51-27.867-84.176-25.807-177.531c0.428-19.352,1.295-38.301,2.34-55.681c2.295-0.62,4.641-1.045,7.032-1.277
				c-1.085,17.771-1.985,37.253-2.429,57.159c-1.996,90.757,6.438,150.451,24.434,173.185
				c119.781-88.957,228.543-164.331,293.316-208.387c1.926,1.385,3.398,3.18,4.366,5.431
				c-64.554,43.897-173.205,119.182-292.95,208.097c18.146,17.875,51.578,37.003,104.607,59.91
				c39.531,17.074,85.926,34.507,135.545,52.653l-3.828,5.996c-49.171-17.992-95.158-35.293-134.469-52.273
				c-54.528-23.555-88.84-43.364-107.492-62.096c-5.357,3.983-10.738,7.993-16.135,12.03
				c-53.044,39.687-111.015,84.187-169.396,131.043l0.012,0.012c46.904,56.896,145.377,105.907,279.832,159.06
				c-1.652,1.861-3.412,3.664-5.277,5.401c-48.533-19.226-100.873-41.337-145.887-64.282
				c-58.574-29.855-100.282-58.646-127.049-87.754c-2.453-2.666-4.778-5.334-6.982-8.009c-0.019-0.028-0.039-0.056-0.063-0.081
				c-65.025,52.318-130.383,107.459-189.859,162.006C4979.297,3106.941,5075.412,3171.453,5201.635,3236.513z"/>
		</g>
		<g>
			<path style="fill:#A2CCC8;" d="M956.997,2777.587c69.206,67.146,126.77,136.153,168.199,198.773
				c1.912,2.885,3.781,5.757,5.622,8.615l0.006,0.004c59.889,92.986,83.036,170.74,54.325,205.443
				c-0.754,0.911-1.544,1.795-2.374,2.649c-0.829,0.854-1.688,1.672-2.576,2.453c-32.672,28.74-106.979,10.308-197.416-42.427
				c-2.809-1.629-5.628-3.301-8.461-4.998c-66.385-39.825-140.861-97.517-213.664-168.152c-8.996-8.729-17.652-17.621-25.987-26.658
				l-0.004-0.002c-1.813-1.958-3.602-3.926-5.382-5.893c-55.182-61.171-95.835-127.992-125.271-188.442
				c-1.142-2.338-2.263-4.669-3.364-6.987c-41.609-87.271-59.685-160.06-64.439-181.259c-0.915-4.073-1.334-6.246-1.334-6.246
				s2.185,0.353,6.284,1.145c23.165,4.458,107.585,22.793,206.205,69.468l6.608,3.16c55.545,26.836,115.213,62.658,170.742,110.008
				c2.015,1.714,4.023,3.448,6.025,5.193C939.621,2761.181,948.384,2769.229,956.997,2777.587z"/>
			<path style="fill:#201600;" d="M892.528,2906.512l38.215-153.077c-2.003-1.745-4.011-3.479-6.025-5.193l-38.083,152.555
				l-155.719-151.087l23.06-111.476l-6.608-3.16l-22.502,108.766l-183.703-178.233c-4.099-0.792-6.284-1.145-6.284-1.145
				s0.419,2.173,1.334,6.246l182.372,176.942l-117.934,4.316l3.364,6.987l121.636-4.447l155.987,151.347l-152.352,41.543
				c1.78,1.967,3.568,3.935,5.382,5.893l0.004,0.002l152.892-41.688l208.383,202.179l-121.625,34.32
				c2.833,1.697,5.652,3.369,8.461,4.998l119.064-33.592l78.352,76.019c0.888-0.781,1.748-1.599,2.576-2.453
				c0.829-0.854,1.62-1.738,2.374-2.649l-78.454-76.118l24.128-129.325l-0.006-0.004c-1.841-2.858-3.71-5.73-5.622-8.615
				l-24.624,132.004L892.528,2906.512z"/>
		</g>
		<g>
			<path style="fill:#00A5C1;" d="M1139.734,3115.477c1.874,1.521,3.664,3.21,5.351,5.082c13.938,15.369,21.487,42.82,17.783,90.864
				c-14.264,184.943-54.368,275.309-63.514,293.85c-1.205,2.44-1.873,3.638-1.873,3.638s-1.262,0.312-3.645,0.878
				c-38.338,9.129-367.207,84.271-398.258-16.568c-0.584-1.906-1.135-3.779-1.645-5.624c-0.646-2.313-1.234-4.581-1.762-6.8
				c-20.527-85.691,41.134-98.834,17.999-131.505c-23.506-33.196-168.197,18.733-168.684-70.651
				c-0.003-1.094,0.011-2.212,0.05-3.349c0.039-1.226,0.1-2.438,0.182-3.634c6.007-90.988,120.953-113.816,35.333-120.716
				c-73.305-5.91-155.914-26.107-170.695-69.133c-0.773-2.249-1.356-4.56-1.749-6.933c-0.984-5.959-0.727-12.317,0.938-19.099
				c15.011-61.166,67.783-86.461,36.263-166.697c-21.642-55.092-48.298-111.377-36.526-130.288c1.253-2.012,2.945-3.604,5.126-4.721
				c7.157-3.675,19.592-2.267,39.155,5.875c87.112,36.256,83.574,81.763,159.625,62.211c56.216-14.449,94.182-49.97,124.706-36.998
				c2.117,0.899,4.193,2.027,6.239,3.415c8.377,5.674,16.219,15.639,23.768,31.471c30.913,64.845,1.689,120.09,14.336,164.538
				c9.11,32.01,36.788-40.607,90.374-68.637c23.589-12.341,48.816-8.208,68.813,7.297c1.969,1.523,3.888,3.158,5.746,4.9
				c21.61,20.225,35.497,54.658,31.372,95.645C960.523,3163.216,1085.703,3071.43,1139.734,3115.477z"/>
			<path d="M1139.734,3115.477c1.874,1.521,3.664,3.21,5.351,5.082c-22.484,51.751-45.479,99.452-67.834,140.593
				c-33.614,61.869-65.369,108.698-94.445,139.297c-0.361,0.382-0.724,0.758-1.085,1.131
				c40.143,38.053,79.768,73.268,117.634,103.693c-1.205,2.44-1.873,3.638-1.873,3.638s-1.262,0.312-3.645,0.878
				c-36.05-28.991-75.162-63.46-117.115-103.212c-18.315,17.221-48.508,32.463-89.854,45.337
				c-34.418,10.721-76.68,19.877-125.606,27.215c-23.625,3.538-46.569,6.313-67.329,8.468l-1.762-6.8
				c20.953-2.163,44.189-4.961,68.123-8.547c48.563-7.286,90.464-16.361,124.538-26.977c40.119-12.496,69.299-27.118,86.844-43.482
				c-18.491-17.611-37.529-36.234-57.094-55.861c-37.362-37.47-76.679-78.609-117.701-123.139
				c-15.754,11.979-42.129,22.485-78.585,31.283c-32.51,7.84-73.172,14.405-120.876,19.512c-19.325,2.068-38.273,3.728-55.935,5.055
				l0.232-6.982c17.393-1.314,36.019-2.951,55.01-4.981c99.502-10.652,166.688-27.536,195.433-49.009
				c-45.395-49.41-92.859-102.931-142.044-160.197c-4.249-4.941-8.469-9.865-12.66-14.777
				c-23.161,20.791-82.108,33.471-175.39,37.699c-19.337,0.877-38.301,1.287-55.711,1.417c-0.773-2.249-1.356-4.56-1.749-6.933
				c17.803-0.112,37.303-0.525,57.193-1.424c90.683-4.118,149.675-16.555,171.146-36.039
				c-96.821-113.521-179.345-216.959-227.664-278.621c1.253-2.012,2.945-3.604,5.126-4.721
				c48.144,61.451,130.573,164.787,227.349,278.275c16.613-19.311,33.446-53.956,52.731-108.406
				c14.372-40.592,28.643-88.053,43.407-138.781l6.239,3.415c-14.64,50.271-28.805,97.318-43.1,137.685
				c-19.829,55.988-37.283,91.554-54.717,111.429c4.336,5.078,8.699,10.174,13.09,15.287
				c43.168,50.251,91.471,105.095,142.151,160.19l0.012-0.014c53.608-50.63,95.877-152.178,139.854-289.908
				c1.969,1.523,3.888,3.158,5.746,4.9c-15.914,49.722-34.451,103.43-54.314,149.887c-25.843,60.451-51.76,104.002-79,132.67
				c-2.496,2.625-5,5.124-7.52,7.504c-0.027,0.021-0.053,0.044-0.077,0.07c56.578,61.352,115.994,122.85,174.422,178.518
				C1025.427,3346.034,1083.321,3245.794,1139.734,3115.477z"/>
		</g>
		<g>
			<g>
				
					<linearGradient id="SVGID_00000106842540366693745410000000525451183923313302_" gradientUnits="userSpaceOnUse" x1="655.1181" y1="2233.8115" x2="1342.8359" y2="2233.8115">
					<stop  offset="0" style="stop-color:#6AACE3"/>
					<stop  offset="1" style="stop-color:#3C75B5"/>
				</linearGradient>
				<path style="fill:url(#SVGID_00000106842540366693745410000000525451183923313302_);" d="M1342.836,3168.7
					c-3.445,1.436-6.889,2.872-10.337,4.311c-746.442-407.723-121.803-1386.829-677.381-1874.09
					c3.446-1.436,6.89-2.872,10.335-4.308C1221.032,1781.874,596.394,2760.98,1342.836,3168.7z"/>
			</g>
			
				<linearGradient id="SVGID_00000173121242526438056940000006870836078342909828_" gradientUnits="userSpaceOnUse" x1="512.8058" y1="1306.9695" x2="780.8236" y2="1306.9695">
				<stop  offset="0" style="stop-color:#6AACE3"/>
				<stop  offset="1" style="stop-color:#3C75B5"/>
			</linearGradient>
			<path style="fill:url(#SVGID_00000173121242526438056940000006870836078342909828_);" d="M715.491,1273.76
				c68.949,60.361,79.909,128.021,48.834,140.97c-32.004,13.338-94.105-33.009-163.052-93.37
				c-68.277-60.641-88.686-124.363-88.466-124.455C512.589,1196.996,647.212,1213.121,715.491,1273.76z"/>
			
				<linearGradient id="SVGID_00000065049216754053827210000006096786604279227009_" gradientUnits="userSpaceOnUse" x1="847.1245" y1="1480.2137" x2="999.2744" y2="1480.2137">
				<stop  offset="0" style="stop-color:#6AACE3"/>
				<stop  offset="1" style="stop-color:#3C75B5"/>
			</linearGradient>
			<path style="fill:url(#SVGID_00000065049216754053827210000006096786604279227009_);" d="M985.818,1500.342
				c-33.688,76.028-89.548,128.004-118.402,113.437c-29.076-14.472-25.235-87.875,0.909-160.761
				c25.865-72.769,106.773-108.595,107.312-108.819c-0.159,0.065,12.175,19.523,18.848,49.093
				C1001.393,1422.76,1002.641,1462.335,985.818,1500.342z"/>
			
				<linearGradient id="SVGID_00000005970129880246820840000004560700464240043936_" gradientUnits="userSpaceOnUse" x1="621.5656" y1="1658.9275" x2="888.4068" y2="1658.9275">
				<stop  offset="0" style="stop-color:#6AACE3"/>
				<stop  offset="1" style="stop-color:#3C75B5"/>
			</linearGradient>
			<path style="fill:url(#SVGID_00000005970129880246820840000004560700464240043936_);" d="M732.041,1711.452
				c69.401,33.066,135.361,34.274,152.611,0.495c17.05-33.694-25.239-87.877-101.043-118.274
				c-76.06-30.291-162.505,3.626-162.041,3.433c-0.133,0.055,11.326,19.88,30.192,44.363
				C670.836,1665.868,697.323,1694.927,732.041,1711.452z"/>
			
				<linearGradient id="SVGID_00000054987280184727506560000008412223958712438974_" gradientUnits="userSpaceOnUse" x1="911.4652" y1="1784.8729" x2="1093.6543" y2="1784.8729">
				<stop  offset="0" style="stop-color:#6AACE3"/>
				<stop  offset="1" style="stop-color:#3C75B5"/>
			</linearGradient>
			<path style="fill:url(#SVGID_00000054987280184727506560000008412223958712438974_);" d="M1054.725,1811.379
				c-49.149,82.472-110.24,136.627-133.574,119.763c-23.47-16.809-2.399-97.397,42.876-178.252
				c45.063-80.77,127.514-117.239,127.815-117.364C1092.568,1635.223,1104.724,1728.553,1054.725,1811.379z"/>
			
				<linearGradient id="SVGID_00000167392814432423916980000013352149675477396661_" gradientUnits="userSpaceOnUse" x1="705.12" y1="1974.8774" x2="924.9628" y2="1974.8774">
				<stop  offset="0" style="stop-color:#6AACE3"/>
				<stop  offset="1" style="stop-color:#3C75B5"/>
			</linearGradient>
			<path style="fill:url(#SVGID_00000167392814432423916980000013352149675477396661_);" d="M777.104,2031.758
				c57.339,38.093,119.646,40.824,140.952,5.355c21.2-35.424-7.796-95.145-67.873-132.098
				c-60.269-36.872-145.297-3.548-145.062-3.643C705.697,1901.13,720.426,1993.391,777.104,2031.758z"/>
			
				<linearGradient id="SVGID_00000170990719366657636140000013935253391822958725_" gradientUnits="userSpaceOnUse" x1="928.8169" y1="2084.1414" x2="1148.2325" y2="2084.1414">
				<stop  offset="0" style="stop-color:#6AACE3"/>
				<stop  offset="1" style="stop-color:#3C75B5"/>
			</linearGradient>
			<path style="fill:url(#SVGID_00000170990719366657636140000013935253391822958725_);" d="M1083.288,2113.731
				c-58.963,92.598-124.538,153.514-146.977,136.274c-22.517-17.204,7.502-106.413,65.964-198.801
				c58.266-92.305,145.842-135.802,145.945-135.846C1148.558,1915.219,1142.58,2021,1083.288,2113.731z"/>
			
				<linearGradient id="SVGID_00000011712856348109394640000000402762431513321627_" gradientUnits="userSpaceOnUse" x1="706.2527" y1="2271.1394" x2="933.7789" y2="2271.1394">
				<stop  offset="0" style="stop-color:#6AACE3"/>
				<stop  offset="1" style="stop-color:#3C75B5"/>
			</linearGradient>
			<path style="fill:url(#SVGID_00000011712856348109394640000000402762431513321627_);" d="M777.466,2329.111
				c61.134,42.545,128.998,47.854,149.946,12.532c20.894-35.294-11.326-98.566-71.914-141.341
				c-60.764-42.701-149.278-12.814-149.245-12.827C706.459,2187.391,716.487,2286.498,777.466,2329.111z"/>
			
				<linearGradient id="SVGID_00000000198256431773400210000001873856613547780521_" gradientUnits="userSpaceOnUse" x1="943.527" y1="2427.543" x2="1160.4817" y2="2427.543">
				<stop  offset="0" style="stop-color:#6AACE3"/>
				<stop  offset="1" style="stop-color:#3C75B5"/>
			</linearGradient>
			<path style="fill:url(#SVGID_00000000198256431773400210000001873856613547780521_);" d="M1097.762,2457.677
				c-55.313,94.722-116.988,156.969-143.446,141.402c-26.414-15.581-3.048-104.973,56.125-201.301
				c59.039-96.274,150.24-144.238,150.042-144.154C1160.322,2253.693,1152.703,2363.11,1097.762,2457.677z"/>
			
				<linearGradient id="SVGID_00000172434048674733062410000008172797929152195755_" gradientUnits="userSpaceOnUse" x1="698.4667" y1="2597.5085" x2="961.1387" y2="2597.5085">
				<stop  offset="0" style="stop-color:#6AACE3"/>
				<stop  offset="1" style="stop-color:#3C75B5"/>
			</linearGradient>
			<path style="fill:url(#SVGID_00000172434048674733062410000008172797929152195755_);" d="M790.022,2654.87
				c73.689,40.958,151.873,44.917,167.928,11.639c16.124-33.307-30.711-93.444-99.675-136.373
				c-69.088-42.877-159.543-15.137-159.805-15.027C698.206,2515.218,715.817,2614.122,790.022,2654.87z"/>
			
				<linearGradient id="SVGID_00000168098672297535861390000008375603761121071744_" gradientUnits="userSpaceOnUse" x1="1023.0241" y1="2690.2156" x2="1224.5786" y2="2690.2156">
				<stop  offset="0" style="stop-color:#6AACE3"/>
				<stop  offset="1" style="stop-color:#3C75B5"/>
			</linearGradient>
			<path style="fill:url(#SVGID_00000168098672297535861390000008375603761121071744_);" d="M1178.151,2719.386
				c-46.066,103.404-99.581,172.414-134.127,160.225c-34.361-12.271-27.477-104.957,27.489-212.07
				c54.833-107.057,153.679-168.367,153.063-168.111C1224.014,2499.66,1223.106,2616.446,1178.151,2719.386z"/>
			
				<linearGradient id="SVGID_00000026864814576907753690000016454147767671389865_" gradientUnits="userSpaceOnUse" x1="686.5131" y1="2869.7678" x2="1061.6746" y2="2869.7678">
				<stop  offset="0" style="stop-color:#6AACE3"/>
				<stop  offset="1" style="stop-color:#3C75B5"/>
			</linearGradient>
			<path style="fill:url(#SVGID_00000026864814576907753690000016454147767671389865_);" d="M840.181,2924.88
				c107.723,39.313,213.822,41.805,221.036,12.212c7.428-29.687-76.804-84.399-174.676-127.819
				c-97.984-43.37-199.334-21.254-200.028-20.965c0.227-0.095,10.658,24.662,35.622,53.887
				C746.926,2871.489,786.25,2905.253,840.181,2924.88z"/>
		</g>
		<g>
			<g>
				
					<linearGradient id="SVGID_00000129922339738808311020000001175841492277707650_" gradientUnits="userSpaceOnUse" x1="5096.4771" y1="2203.2771" x2="5665.0117" y2="2203.2771">
					<stop  offset="0" style="stop-color:#6AACE3"/>
					<stop  offset="1" style="stop-color:#3C75B5"/>
				</linearGradient>
				<path style="fill:url(#SVGID_00000129922339738808311020000001175841492277707650_);" d="M5270.748,3163.22
					c-2.896,1.332-5.789,2.672-8.681,4.004c-326.523-662.07-157.663-1446.031,396.511-1927.893c2.144,2.306,4.287,4.611,6.434,6.917
					C5113.982,1725.378,4946.07,2504.899,5270.748,3163.22z"/>
			</g>
			
				<linearGradient id="SVGID_00000137093555594301439030000000442338308064904332_" gradientUnits="userSpaceOnUse" x1="5536.2368" y1="1249.0856" x2="5791.1733" y2="1249.0856">
				<stop  offset="0" style="stop-color:#6AACE3"/>
				<stop  offset="1" style="stop-color:#3C75B5"/>
			</linearGradient>
			<path style="fill:url(#SVGID_00000137093555594301439030000000442338308064904332_);" d="M5696.164,1279.717
				c-66.16,57.337-131.068,93.501-153.202,74.636c-21.925-18.652,10.879-89.227,82.093-151.041
				c71.553-62.333,166.782-64.821,166.115-64.511C5790.732,1139.25,5761.546,1222.557,5696.164,1279.717z"/>
			
				<linearGradient id="SVGID_00000009586828980374305560000004303267855926277289_" gradientUnits="userSpaceOnUse" x1="5394.6704" y1="1511.4749" x2="5671.04" y2="1511.4749">
				<stop  offset="0" style="stop-color:#6AACE3"/>
				<stop  offset="1" style="stop-color:#3C75B5"/>
			</linearGradient>
			<path style="fill:url(#SVGID_00000009586828980374305560000004303267855926277289_);" d="M5535.705,1565.432
				c-74.768,15.915-138.803,9.848-140.975-22.885c-2.291-32.509,61.106-77.531,139.211-91.173
				c78.048-13.531,137.029,37.412,137.099,36.939C5670.4,1488.342,5609.893,1549.214,5535.705,1565.432z"/>
			
				<linearGradient id="SVGID_00000169536842538062396990000012688218905554926512_" gradientUnits="userSpaceOnUse" x1="5256.8423" y1="1480.8285" x2="5376.46" y2="1480.8285">
				<stop  offset="0" style="stop-color:#6AACE3"/>
				<stop  offset="1" style="stop-color:#3C75B5"/>
			</linearGradient>
			<path style="fill:url(#SVGID_00000169536842538062396990000012688218905554926512_);" d="M5257.42,1504.763
				c6.688,81.37,43.963,132.653,74.659,120.396c30.974-12.369,46.764-82.331,44.089-161.741
				c-2.504-79.41-60.381-128.916-60.885-128.72C5314.966,1334.036,5250.09,1422.917,5257.42,1504.763z"/>
			
				<linearGradient id="SVGID_00000020389675813603355160000002536053632002909087_" gradientUnits="userSpaceOnUse" x1="5233.0674" y1="1778.6949" x2="5492.1338" y2="1778.6949">
				<stop  offset="0" style="stop-color:#6AACE3"/>
				<stop  offset="1" style="stop-color:#3C75B5"/>
			</linearGradient>
			<path style="fill:url(#SVGID_00000020389675813603355160000002536053632002909087_);" d="M5376.623,1826.316
				c-69.66,29.396-133.576,35.523-142.543,4.109c-9.037-31.176,43.436-86.734,116.617-114.418
				c73.154-27.561,141.455,10.912,141.437,10.437C5491.547,1726.574,5445.693,1796.714,5376.623,1826.316z"/>
			
				<linearGradient id="SVGID_00000124841164697623295750000000620835678804727723_" gradientUnits="userSpaceOnUse" x1="5085.0107" y1="1784.3579" x2="5212.79" y2="1784.3579">
				<stop  offset="0" style="stop-color:#6AACE3"/>
				<stop  offset="1" style="stop-color:#3C75B5"/>
			</linearGradient>
			<path style="fill:url(#SVGID_00000124841164697623295750000000620835678804727723_);" d="M5092.186,1818.776
				c23.463,77.902,70.516,120.881,98.041,103.164c27.77-17.876,28.705-88.919,9.382-165.517
				c-19.171-76.627-86.172-113.883-86.612-113.608C5112.588,1642.213,5068.027,1740.509,5092.186,1818.776z"/>
			
				<linearGradient id="SVGID_00000160877531836343500150000010771849484238504354_" gradientUnits="userSpaceOnUse" x1="5142.1646" y1="2052.8359" x2="5400.8506" y2="2052.8359">
				<stop  offset="0" style="stop-color:#6AACE3"/>
				<stop  offset="1" style="stop-color:#3C75B5"/>
			</linearGradient>
			<path style="fill:url(#SVGID_00000160877531836343500150000010771849484238504354_);" d="M5295.203,2091.966
				c-68.878,44.479-135.188,66.086-150.182,36.986c-15.016-28.808,30.572-96.45,103.486-139.639
				c72.9-43.091,152.486-19.221,152.343-19.726C5400.305,1969.813,5363.459,2047.307,5295.203,2091.966z"/>
			
				<linearGradient id="SVGID_00000010273262962316292650000005278492497636003484_" gradientUnits="userSpaceOnUse" x1="4973.4097" y1="2069.3423" x2="5130.9829" y2="2069.3423">
				<stop  offset="0" style="stop-color:#6AACE3"/>
				<stop  offset="1" style="stop-color:#3C75B5"/>
			</linearGradient>
			<path style="fill:url(#SVGID_00000010273262962316292650000005278492497636003484_);" d="M4997.326,2112.997
				c40.613,80.011,98.377,119.233,122.119,97.06c23.999-22.39,8.49-97.361-27.444-176.568
				c-35.784-79.21-110.286-111.335-110.716-110.992C4980.755,1921.919,4955.9,2032.734,4997.326,2112.997z"/>
			
				<linearGradient id="SVGID_00000132781015137666284780000005363258279819125922_" gradientUnits="userSpaceOnUse" x1="5097.3906" y1="2362.801" x2="5332.311" y2="2362.801">
				<stop  offset="0" style="stop-color:#6AACE3"/>
				<stop  offset="1" style="stop-color:#3C75B5"/>
			</linearGradient>
			<path style="fill:url(#SVGID_00000132781015137666284780000005363258279819125922_);" d="M5248.346,2395.27
				c-61.234,60.485-123.727,98.324-144.667,72.587c-20.904-25.414,11.682-104.378,77.392-164.178
				c65.718-59.716,151.512-53.627,151.24-54.125C5331.827,2249.874,5308.9,2334.675,5248.346,2395.27z"/>
			
				<linearGradient id="SVGID_00000089538747902060090140000014043046769104092584_" gradientUnits="userSpaceOnUse" x1="4894.3838" y1="2403.105" x2="5102.832" y2="2403.105">
				<stop  offset="0" style="stop-color:#6AACE3"/>
				<stop  offset="1" style="stop-color:#3C75B5"/>
			</linearGradient>
			<path style="fill:url(#SVGID_00000089538747902060090140000014043046769104092584_);" d="M4952.541,2455.235
				c58.801,75.56,126.207,106.031,144.908,79.495c18.938-26.813-14.088-100.704-67.802-176.147
				c-53.552-75.438-134.872-96.934-135.264-96.518c0.13-0.065-0.862,29.053,6.37,67.982
				C4907.84,2368.913,4923.148,2417.592,4952.541,2455.235z"/>
			
				<linearGradient id="SVGID_00000127727799848515045040000000332066807246678934_" gradientUnits="userSpaceOnUse" x1="5124.7998" y1="2628.1667" x2="5353.3672" y2="2628.1667">
				<stop  offset="0" style="stop-color:#6AACE3"/>
				<stop  offset="1" style="stop-color:#3C75B5"/>
			</linearGradient>
			<path style="fill:url(#SVGID_00000127727799848515045040000000332066807246678934_);" d="M5278.513,2653.554
				c-58.132,81.989-117.636,142.827-143.386,120.891c-25.639-21.502-2.852-117.789,60.705-199.653
				c63.555-81.865,158.012-96.898,157.533-97.417C5352.943,2477.79,5335.83,2571.431,5278.513,2653.554z"/>
			
				<linearGradient id="SVGID_00000078028114428035346820000017075243103466897084_" gradientUnits="userSpaceOnUse" x1="4843.9355" y1="2703.4155" x2="5138.6592" y2="2703.4155">
				<stop  offset="0" style="stop-color:#6AACE3"/>
				<stop  offset="1" style="stop-color:#3C75B5"/>
			</linearGradient>
			<path style="fill:url(#SVGID_00000078028114428035346820000017075243103466897084_);" d="M4956.022,2764.784
				c84.296,78.279,167.727,104.312,180.721,74.424c13.29-30.287-44.173-105.918-122.259-184.823
				c-77.891-78.808-170.11-99.325-170.549-98.804c0.152-0.113,6.063,32.461,23.607,75.072
				C4884.906,2673.221,4913.904,2725.831,4956.022,2764.784z"/>
		</g>
		
			<linearGradient id="SVGID_00000101818798254607181120000003946108506078188953_" gradientUnits="userSpaceOnUse" x1="570.7362" y1="3632.9966" x2="5633.8965" y2="3632.9966">
			<stop  offset="0" style="stop-color:#6296C7"/>
			<stop  offset="1" style="stop-color:#A9C8E7"/>
		</linearGradient>
		
			<ellipse style="fill:url(#SVGID_00000101818798254607181120000003946108506078188953_);" cx="3102.317" cy="3632.997" rx="2531.581" ry="123.163"/>
		<g>
			<g>
				
					<linearGradient id="SVGID_00000154420593352085563440000000466485290639605405_" gradientUnits="userSpaceOnUse" x1="3035.1978" y1="1156.7769" x2="3035.1978" y2="3409.7888">
					<stop  offset="0" style="stop-color:#40838E"/>
					<stop  offset="0.4743" style="stop-color:#549DA8"/>
					<stop  offset="1" style="stop-color:#3F818C"/>
				</linearGradient>
				<path style="fill:url(#SVGID_00000154420593352085563440000000466485290639605405_);" d="M5102.121,1249.996
					c0-51.27-41.949-93.219-93.219-93.219H1061.494c-51.271,0-93.22,41.95-93.22,93.219v2213.411
					c0,51.271,41.949,93.219,93.22,93.219h3947.408c51.27,0,93.219-41.948,93.219-93.219V1249.996z"/>
				
					<linearGradient id="SVGID_00000120551181537414951090000015411677951656009138_" gradientUnits="userSpaceOnUse" x1="3035.1975" y1="3439.3582" x2="3035.1975" y2="3627.5793">
					<stop  offset="0" style="stop-color:#549DA8"/>
					<stop  offset="1" style="stop-color:#3F818C"/>
				</linearGradient>
				<path style="fill:url(#SVGID_00000120551181537414951090000015411677951656009138_);" d="M707.483,3426.229v30.074
					c0,126.896,223.646,175.601,350.541,175.601h3954.35c126.896,0,350.539-48.705,350.539-175.601v-30.074H707.483z"/>
				<path style="fill:#2D6B72;" d="M3670.535,3461.907c0,7.723-6.263,13.984-13.983,13.984H2413.846
					c-7.725,0-13.984-6.262-13.984-13.984v-27.521c0-7.722,6.259-13.983,13.984-13.983h1242.706c7.721,0,13.983,6.262,13.983,13.983
					V3461.907z"/>
				
					<linearGradient id="SVGID_00000129206848377050734190000017748337153338527652_" gradientUnits="userSpaceOnUse" x1="1086.689" y1="2308.1499" x2="4983.7051" y2="2308.1499">
					<stop  offset="0" style="stop-color:#3F818C"/>
					<stop  offset="1" style="stop-color:#549DA8"/>
				</linearGradient>
				
					<rect x="1086.689" y="1311.258" style="fill:url(#SVGID_00000129206848377050734190000017748337153338527652_);" width="3897.016" height="1993.784"/>
				<rect x="1098.671" y="1323.24" style="fill:#C3F0FF;" width="3873.053" height="1969.821"/>
				
					<linearGradient id="SVGID_00000085956263446181103460000007117473406517763720_" gradientUnits="userSpaceOnUse" x1="2975.2949" y1="1242.7832" x2="3095.1016" y2="1242.7832">
					<stop  offset="0" style="stop-color:#3F818C"/>
					<stop  offset="1" style="stop-color:#549DA8"/>
				</linearGradient>
				<path style="fill:url(#SVGID_00000085956263446181103460000007117473406517763720_);" d="M3035.196,1302.686
					c-33.03,0-59.901-26.872-59.901-59.903c0-33.03,26.871-59.902,59.901-59.902c33.031,0,59.905,26.872,59.905,59.902
					C3095.102,1275.814,3068.228,1302.686,3035.196,1302.686z"/>
				
					<radialGradient id="SVGID_00000172436263239030433660000017265536511293827234_" cx="3035.1973" cy="1242.7827" r="52.7129" gradientUnits="userSpaceOnUse">
					<stop  offset="0" style="stop-color:#447E87"/>
					<stop  offset="1" style="stop-color:#326770"/>
				</radialGradient>
				<path style="fill:url(#SVGID_00000172436263239030433660000017265536511293827234_);" d="M3087.91,1242.783
					c0,29.114-23.6,52.713-52.714,52.713c-29.11,0-52.712-23.599-52.712-52.713c0-29.112,23.602-52.713,52.712-52.713
					C3064.311,1190.07,3087.91,1213.67,3087.91,1242.783z"/>
			</g>
			<g>
				<path style="fill:#F4A086;" d="M3435.814,2110.075c-33.307-0.896-168.022-82.306-206.061-103.432l-310.11,220.611
					c-26.657,27.669-58.652,52.457-82.962,65.079c-227.107,117.926-554.479,246.882-408.705,367.033
					c151.875,125.18,141.45,158.743,270.171,202.061c102.9,34.624,127.062,68.648,305.889,132.385
					c197.217,70.292,389.655-138.889,498.255-261.286l913.512-344.904l-212.463-567.334
					C4203.34,1820.288,3640.738,2115.575,3435.814,2110.075z"/>
				<path style="fill:#F7B690;" d="M3411.773,2948.41c35.705-44.726-97.595-107.09-136.898-128.716
					c-41.064-22.594-150.9-94.193-150.9-94.193s75.203,34.446,163.011,75.405c104.276,48.646,226.582,101.079,265.405,40.14
					c26.43-41.488-97.801-107.984-212.132-180.759c-91.077-57.975-108.385-60.101-89.657-66.818
					c0,0,317.701,195.511,362.264,168.536c97.092-58.774-45.077-144.297-207.356-247.695
					c-113.726-72.463-232.353-155.338-319.995-201.576c-24.225-12.777-56.059-37.774-82.535-65.615
					c0,0-116.491-195.526-220.16-194.697c-43.47,0.348-261.928,73.465-295.24,74.142
					c-204.956,4.161-765.628-294.798-765.628-294.798l-216.141,565.934l911.258,350.868
					c148.44,95.085,107.491,83.692,298.505,169.534c57.875,26.011,205.937,65.719,229.843,72.937
					c203.159,61.354,208.39,70.799,266.396,52.948c23.126-7.117,73.417-37.594-26.763-88.144
					c-92.303-46.575-179.474-126.403-179.474-126.403s140.578,83.766,193.734,103.094
					C3249.321,2950.718,3363.807,3008.502,3411.773,2948.41z"/>
				<path style="fill:#F4A086;" d="M2835.196,2241.285c86.299,92.551,49.613,225.919,4.184,243.071
					c-45.43,17.154-115.46-57.603-156.417-166.969c-40.957-109.363-37.332-211.929,8.099-229.08
					c14.637-5.526,371.467-112.928,434.803-109.535c51.736,2.771,335.581,67.7,105.368,310.954
					c-79.086,83.564-237.773-36.176-269.664-86.026C2911.865,2195.144,2847.131,2231.741,2835.196,2241.285z"/>
				<path style="fill:#F4A086;" d="M2526.194,2668.796c83.652-54.755,160.19-85.699,185.83-46.21
					c30.002,46.211-33.445,97.323-117.092,152.078c-83.651,54.753-156.916,90.737-185.829,46.208
					C2379.099,2774.662,2442.547,2723.552,2526.194,2668.796z"/>
				<path style="fill:#F4A086;" d="M2633.599,2780.673c80.73-82.036,158.682-136.129,195.422-99.679
					c42.997,42.657-16.193,115.365-96.923,197.403c-80.732,82.033-116.653,101.148-158.083,60.043
					C2531.02,2895.783,2552.869,2862.711,2633.599,2780.673z"/>
				<path style="fill:#F4A086;" d="M2752.314,2909.715c55.067-70.888,112.308-118.482,149.329-89.492
					c43.322,33.929,4.983,96.329-50.085,167.22c-55.064,70.886-86.037,84.748-127.781,52.057
					C2680.455,3005.569,2697.248,2980.604,2752.314,2909.715z"/>
				<path style="fill:#F4A086;" d="M2892.72,2989.655c48.642-49.429,99.442-78.221,132.838-45.088
					c39.08,38.773,0.532,72.455-48.109,121.887c-48.644,49.426-72.61,82.351-110.27,44.99
					C2828.098,3072.671,2844.08,3039.084,2892.72,2989.655z"/>
				<path style="fill:#D88B6C;" d="M2768.898,2417.534c-23.553-36.152-47.558-43.365-54.916-40.097
					c-7.354,3.271,4.725,15.784,28.274,51.935c23.553,36.154,48.608,67.003,55.966,63.733
					C2805.581,2489.838,2792.448,2453.686,2768.898,2417.534z"/>
				<path style="fill:#D88B6C;" d="M2687.62,2693.976c-22.759,19.692-53.192,21.694-67.972,4.474
					c-14.781-17.222-8.313-47.149,14.449-66.841c22.758-19.694,53.191-21.695,67.974-4.477
					C2716.85,2644.356,2710.381,2674.28,2687.62,2693.976z"/>
				<path style="fill:#D88B6C;" d="M2819.145,2756.096c-20.366,22.179-50.37,27.668-67.016,12.257
					c-16.647-15.407-13.632-45.883,6.733-68.061c20.368-22.179,50.372-27.665,67.02-12.256
					C2842.528,2703.446,2839.51,2733.92,2819.145,2756.096z"/>
				<path style="fill:#D88B6C;" d="M2884.799,2894.171c-20.365,22.18-50.37,27.664-67.016,12.251
					c-16.647-15.407-13.633-45.882,6.734-68.059c20.369-22.179,50.373-27.665,67.018-12.255
					C2908.181,2841.519,2905.165,2871.99,2884.799,2894.171z"/>
				<path style="fill:#D88B6C;" d="M3015.08,3003.168c-17.419,18.967-43.084,23.661-57.322,10.48
					c-14.239-13.181-11.659-39.246,5.761-58.219c17.42-18.97,43.085-23.661,57.325-10.483
					C3035.079,2958.129,3032.503,2984.194,3015.08,3003.168z"/>
				<g>
					<polygon style="fill:#89C4D1;" points="2163.064,2800.8 1677.438,2524.088 1859.912,1906.085 2367.928,2057.313 					"/>
					<polygon style="fill:#5E5D5C;" points="2088.39,1921.08 1996.71,2155.146 1891.981,2422.52 1891.981,2422.53 
						1814.378,2620.642 1097.688,2363.561 1097.688,1599.377 1996.71,1891.309 					"/>
					<g>
						<polygon style="fill:#5E5D5A;" points="1950.094,2613.761 1993.478,2543.079 2120.88,2621.916 2077.497,2692.6 						"/>
						<polygon style="fill:#3A3A38;" points="2075.659,2684.825 1957.835,2611.916 1995.316,2550.853 2113.14,2623.764 						"/>
					</g>
					<g>
						<g>
							<path d="M1507.998,2475.832c-37.767-11.24-59.382-51.237-48.187-89.156c11.198-37.923,51.031-59.627,88.798-48.385
								c37.766,11.243,59.381,51.239,48.186,89.162C1585.599,2465.37,1545.765,2487.077,1507.998,2475.832z"/>
							<path style="fill:#3A3A38;" d="M1591.4,2425.845c-10.331,34.989-46.956,54.945-81.804,44.574
								c-34.848-10.375-54.721-47.148-44.39-82.139c10.33-34.988,46.955-54.947,81.803-44.572
								C1581.857,2354.081,1601.731,2390.854,1591.4,2425.845z"/>
						</g>
						<g>
							<path d="M1524.269,2382.489c-1.974,6.69-8.971,10.5-15.63,8.519c-6.658-1.982-10.456-9.007-8.482-15.694
								c1.975-6.686,8.973-10.499,15.631-8.519C1522.446,2368.779,1526.243,2375.808,1524.269,2382.489z"/>
							<path d="M1512.096,2423.718c-1.973,6.688-8.971,10.5-15.629,8.517c-6.659-1.98-10.456-9.007-8.481-15.694
								c1.973-6.684,8.972-10.497,15.63-8.515C1510.274,2410.006,1514.071,2417.032,1512.096,2423.718z"/>
							<path d="M1569.316,2395.237c-1.974,6.683-8.971,10.496-15.629,8.514c-6.659-1.982-10.456-9.009-8.482-15.693
								c1.974-6.686,8.972-10.5,15.632-8.517C1567.495,2381.522,1571.29,2388.549,1569.316,2395.237z"/>
							<path d="M1557.144,2436.464c-1.974,6.683-8.971,10.496-15.63,8.516c-6.658-1.984-10.456-9.009-8.482-15.695
								c1.974-6.684,8.972-10.498,15.631-8.516C1555.32,2422.749,1559.117,2429.777,1557.144,2436.464z"/>
						</g>
					</g>
					<g>
						<g>
							<path d="M1710.131,2558.396c-37.768-11.242-59.381-51.238-48.186-89.16c11.197-37.92,51.03-59.624,88.797-48.381
								c37.766,11.24,59.382,51.237,48.185,89.158C1787.731,2547.933,1747.897,2569.638,1710.131,2558.396z"/>
							<path style="fill:#3A3A38;" d="M1793.533,2508.407c-10.331,34.989-46.956,54.947-81.804,44.572
								c-34.847-10.374-54.722-47.15-44.391-82.138c10.331-34.99,46.956-54.947,81.804-44.573
								C1783.991,2436.642,1803.865,2473.415,1793.533,2508.407z"/>
						</g>
						<g>
							<path d="M1726.302,2465.39c-1.974,6.688-8.971,10.499-15.63,8.519c-6.658-1.981-10.457-9.011-8.481-15.696
								c1.974-6.684,8.971-10.498,15.631-8.514C1724.479,2451.679,1728.276,2458.706,1726.302,2465.39z"/>
							<path d="M1714.128,2506.618c-1.973,6.686-8.971,10.499-15.629,8.519c-6.658-1.984-10.457-9.012-8.481-15.697
								c1.974-6.685,8.972-10.497,15.63-8.516C1712.307,2492.906,1716.103,2499.935,1714.128,2506.618z"/>
							<path d="M1771.349,2478.136c-1.975,6.684-8.972,10.498-15.63,8.515c-6.659-1.98-10.458-9.007-8.482-15.694
								c1.975-6.684,8.971-10.498,15.63-8.515C1769.527,2464.424,1773.322,2471.45,1771.349,2478.136z"/>
							<path d="M1759.177,2519.36c-1.975,6.687-8.972,10.5-15.631,8.517c-6.659-1.979-10.456-9.007-8.481-15.691
								c1.973-6.687,8.971-10.502,15.63-8.518C1757.354,2505.648,1761.15,2512.677,1759.177,2519.36z"/>
						</g>
					</g>
					<path style="opacity:0.3;fill:#FFFFFF;" d="M2088.39,1921.08l-91.679,234.065l-104.729,267.374
						c-0.481-1.62-107.73-297.78-177.735-384.025c-114.498-141.055-468.372-275.333-616.559-330.889v-108.229l899.023,291.932
						L2088.39,1921.08z"/>
				</g>
				<g>
					<polygon style="fill:#89C4D1;" points="3901.591,2753.653 4381.045,2466.297 4185.096,1852.469 3680.507,2014.864 					"/>
					<path style="fill:#5E5D5C;" d="M4971.725,1565.381v736.264l-725.477,264.205l-81.912-196.352l-0.008-0.01l-96.898-232.273
						L3957,1872.5l110.43-37.705l904.295-316.685C4971.725,1539.119,4971.725,1555.431,4971.725,1565.381z"/>
					<g>
						<polygon style="fill:#5E5D5A;" points="4110.416,2561.964 4065.498,2492.253 3939.852,2573.884 3984.77,2643.594 						"/>
						<polygon style="fill:#3A3A38;" points="3986.436,2635.779 4102.635,2560.291 4063.83,2500.066 3947.629,2575.556 						"/>
					</g>
					<g>
						<g>
							<path d="M4549.389,2414.317c37.51-12.071,58.246-52.535,46.224-90.2c-12.024-37.664-52.321-58.485-89.836-46.412
								c-37.511,12.073-58.245,52.536-46.224,90.203C4471.576,2405.569,4511.877,2426.39,4549.389,2414.317z"/>
							<path style="fill:#3A3A38;" d="M4464.91,2366.184c11.096,34.752,48.15,53.895,82.762,42.756
								c34.611-11.138,53.678-48.344,42.584-83.1c-11.1-34.753-48.148-53.894-82.762-42.755
								C4472.881,2294.225,4453.82,2331.427,4464.91,2366.184z"/>
						</g>
						<g>
							<path d="M4531.08,2321.356c2.117,6.642,9.198,10.3,15.811,8.17c6.613-2.129,10.256-9.237,8.137-15.875
								c-2.12-6.642-9.199-10.299-15.813-8.173C4532.602,2307.61,4528.959,2314.717,4531.08,2321.356z"/>
							<path d="M4544.15,2362.306c2.119,6.642,9.201,10.3,15.812,8.17c6.614-2.129,10.26-9.236,8.137-15.879
								c-2.121-6.637-9.198-10.296-15.812-8.168C4545.672,2348.557,4542.029,2355.664,4544.15,2362.306z"/>
							<path d="M4486.32,2335.091c2.118,6.642,9.199,10.299,15.813,8.17c6.615-2.128,10.26-9.238,8.137-15.878
								c-2.119-6.639-9.201-10.297-15.813-8.169S4484.201,2328.452,4486.32,2335.091z"/>
							<path d="M4499.395,2376.04c2.117,6.642,9.198,10.299,15.811,8.17c6.613-2.131,10.259-9.238,8.137-15.88
								c-2.121-6.638-9.2-10.298-15.814-8.17C4500.914,2362.291,4497.272,2369.4,4499.395,2376.04z"/>
						</g>
					</g>
					<g>
						<g>
							<path d="M4349.109,2501.317c37.516-12.073,58.249-52.536,46.225-90.2c-12.023-37.665-52.322-58.485-89.834-46.413
								c-37.51,12.071-58.248,52.536-46.225,90.202C4271.301,2492.569,4311.602,2513.391,4349.109,2501.317z"/>
							<path style="fill:#3A3A38;" d="M4264.634,2453.181c11.093,34.751,48.149,53.896,82.761,42.756
								c34.612-11.139,53.676-48.342,42.58-83.096c-11.09-34.755-48.145-53.896-82.758-42.758
								C4272.605,2381.224,4253.539,2418.426,4264.634,2453.181z"/>
						</g>
						<g>
							<path d="M4330.907,2408.693c2.119,6.639,9.201,10.298,15.813,8.17c6.616-2.129,10.257-9.236,8.136-15.878
								c-2.117-6.641-9.199-10.299-15.812-8.169C4332.43,2394.944,4328.79,2402.053,4330.907,2408.693z"/>
							<path d="M4343.98,2449.643c2.119,6.64,9.199,10.299,15.811,8.167c6.614-2.126,10.258-9.234,8.139-15.874
								c-2.119-6.642-9.199-10.3-15.813-8.171C4345.503,2435.892,4341.861,2443.003,4343.98,2449.643z"/>
							<path d="M4286.15,2422.429c2.123,6.637,9.197,10.298,15.814,8.168c6.612-2.128,10.253-9.236,8.135-15.877
								c-2.119-6.641-9.199-10.298-15.812-8.169C4287.674,2408.679,4284.031,2415.786,4286.15,2422.429z"/>
							<path d="M4299.223,2463.375c2.121,6.642,9.201,10.3,15.815,8.17c6.612-2.128,10.251-9.237,8.134-15.876
								c-2.119-6.644-9.199-10.3-15.813-8.171C4300.744,2449.626,4297.104,2456.735,4299.223,2463.375z"/>
						</g>
					</g>
					<path style="opacity:0.3;fill:#FFFFFF;" d="M4971.725,1560.128v79.26c-192.031,74.857-547.143,240.067-628.842,342.685
						c-82.957,104.199-178.109,385.785-178.555,387.415l-96.898-232.273L3957,1872.5l110.43-37.705l904.295-316.685
						C4971.725,1534.366,4971.725,1550.178,4971.725,1560.128z"/>
				</g>
			</g>
		</g>
		<g>
			<g>
				<path style="fill:#F7B691;" d="M4361.995,3714.991c10.639-23.349,43.792-33.007,86.981-69.13
					c28.094-23.498,35-60.316,36.661-93.3c1.27-25.305,18.308-16.92,36.835-20.345c55.842-10.317,7.066,45.241,23.342,68.827
					c22.58,32.719,33.608,44.748,26.028,62.559c-8.394,19.723-32.69,12.146-67.55,25.025
					C4439.184,3712.688,4348.568,3744.489,4361.995,3714.991z"/>
				<path d="M4373.08,3730.157c-7.404,0-12.098-1.703-14.352-5.207c-1.895-2.944-1.799-6.753,0.278-11.318
					c6.624-14.538,20.838-23.695,40.506-36.366c13.874-8.937,38.509-27.745,56.271-42.601c12.935-10.817,28.313,18.557,49.66,12.724
					c26.385-7.211,49.115-39.527,50.371-37.731c17.626,25.162,26.473,37.789,19.049,55.23
					c-5.867,13.789-18.608,15.853-34.742,18.469c-10.105,1.643-21.551,3.495-34.691,8.354
					C4453.981,3710.72,4398.021,3730.157,4373.08,3730.157z"/>
			</g>
			<g>
				<path style="fill:#F7B691;" d="M4736.289,3684.348c10.639-23.351,43.793-33.009,86.981-69.128
					c28.095-23.5,35.001-60.32,36.661-93.302c1.27-25.304,18.309-16.923,36.834-20.347c55.844-10.318,7.067,45.241,23.342,68.827
					c22.58,32.717,33.61,44.751,26.03,62.563c-8.395,19.721-32.692,12.145-67.551,25.024
					C4813.479,3682.043,4722.861,3713.843,4736.289,3684.348z"/>
				<path d="M4747.374,3699.511c-7.403,0-12.097-1.699-14.352-5.207c-1.896-2.943-1.798-6.749,0.278-11.318
					c6.625-14.538,20.838-23.695,40.506-36.365c13.873-8.934,38.508-27.742,56.271-42.6c12.934-10.818,28.312,18.557,49.658,12.723
					c26.386-7.208,49.115-39.527,50.373-37.732c17.625,25.163,26.471,37.793,19.049,55.232
					c-5.868,13.787-18.609,15.852-34.744,18.472c-10.104,1.639-21.55,3.494-34.689,8.353
					C4828.275,3680.077,4772.316,3699.511,4747.374,3699.511z"/>
			</g>
			<g>
				<path style="fill:#F7B691;" d="M4290.045,2444.168c0,0-25.574-6.573-35.41-12.64c-8.355-5.149-63.924-6.143-64.607,1.911
					c-0.715,8.272,29.604,5.2,24.399,11.677c-9.02,11.232-53.54,6.388-60.859,13.005c-1.327,1.206-3.059,5.429-0.952,6.881
					c3.652,2.502,49.197-3.187,49.197-3.187s-38.161,7.144-52.43,6.878c-5.784-0.106-3.963,8.733,1.658,8.663
					c14.183-0.176,49.967-1.654,49.967-1.654s-31.283,6.108-50.001,7.149c-5.114,0.279,0.319,8.937,5.36,8.686
					c15.98-0.781,52.439-4.876,52.439-4.876s-50.173,8.965-49.403,12.88c1.674,8.525,43.603-0.956,58.82-1.417
					c18.365-0.564,69.981-18.689,69.981-18.689l90.383-13.822l-10.398-35.001L4290.045,2444.168z"/>
				<g>
					<path style="fill:#589983;" d="M4289.84,2493.77c4.873,0.198,94.609,5.141,215.572-50.417
						c148.346-68.133,166.984-259.568,164.493-267.786c-5.697-18.837-25.308-12.504-33.519-13.046
						c-8.169-0.542-23.596,6.498-28.238,13.238c-10.99,15.955-17.724,146.303-130.455,198.074
						c-106.771,49.041-184.105,54.367-185.141,54.322L4289.84,2493.77z"/>
				</g>
			</g>
			<g>
				<path style="fill:#1B2142;" d="M4457.963,3585.371c0,0-12.295-350.323-9.17-478.013
					c3.756-153.236,101.901-506.824,101.901-506.824l203.163-26.59l-155.385,549.023l-27.043,462.403H4457.963z"/>
			</g>
			<g>
				<path style="fill:#293357;" d="M4820.946,3571.2c0,0-113.59-367.991-134.922-491.541
					c-21.001-121.671-34.494-489.261-34.494-489.261s196.245-41.471,205.142,7.256c32.73,179.375-11.811,470.254-11.811,470.254
					l89.088,482.425L4820.946,3571.2z"/>
			</g>
			<path style="fill:#6AA996;" d="M4859.332,2608.724c0,0-91.783,24.649-157.588,24.649c-78.793,0-157.591-24.649-157.591-24.649
				l34.487-220.77c0,0,11.479-196.184,33.641-218.344c19.393-19.393,63.246-19.784,105.053-19.22
				c26.257,0.35,51.709,0.575,69.789,3.694c8.275,1.43,22.463,11.869,27.225,14.46c18.879,10.26,21.391,219.32,21.391,219.32
				L4859.332,2608.724z"/>
			<path style="fill:#EAA786;" d="M4787.116,2154.085c0,0-39.54,37.686-72.231,37.686c-31.191,0-65.432-38.192-65.432-38.192
				s38.94-7.099,39.396-12.46c2.397-28.293,19.469-97.094,19.469-97.094h18.878c0,0,11.763,70.27,14.542,98.331
				C4742.291,2147.947,4787.116,2154.085,4787.116,2154.085z"/>
			<g>
				<path style="fill:#F7B691;" d="M4516.794,2529.507c0,0-26.404-0.089-37.435-3.545c-9.365-2.944-63.473,9.754-62.154,17.725
					c1.34,8.195,29.977-2.232,26.523,5.321c-5.984,13.108-50.33,19.354-55.797,27.564c-0.991,1.498-1.633,6.02,0.766,6.903
					c4.154,1.533,46.909-15.178,46.909-15.178s-35.237,16.301-49.134,19.551c-5.635,1.322-1.692,9.44,3.738,7.99
					c13.699-3.654,48.023-13.883,48.023-13.883s-28.817,13.611-46.708,19.22c-4.892,1.525,2.506,8.579,7.333,7.104
					c15.297-4.688,49.63-17.615,49.63-17.615s-46.431,21.021-44.722,24.624c3.719,7.854,42.027-11.638,56.668-15.833
					c17.664-5.06,63.242-35.314,63.242-35.314l84.211-35.615l-18.68-31.364L4516.794,2529.507z"/>
				<g>
					<path style="fill:#589983;" d="M4515.286,2513.366c0,0,72.968-27.221,164.05-100.711
						c75.156-60.631,67.978-127.284,74.826-172.153c1.918-12.563,6.588-47.909,8.201-52.258
						c3.216-8.679,11.328-12.216,20.794-13.954c1.372-0.257,3.702-1.496,5.745-2.192c4.373-1.481,7.541-2.731,13.133-2.731
						c7.83,0,12.607-0.795,16.953,6.419c2.866,4.751,8.218,52.128,4.23,113.555c-3.064,47.236-28.705,134.864-95.805,189.001
						c-97.633,78.766-198.439,100.615-198.439,100.615L4515.286,2513.366z"/>
					<path style="fill:#6AA996;" d="M4528.783,2577.635c4.775-1.005,92.974-18.271,196.568-101.847
						c127.053-102.506,98.066-292.651,93.637-300.003c-10.155-16.858-27.607-5.906-35.7-4.411
						c-8.051,1.479-21.274,12.1-24.118,19.775c-6.732,18.164,18.776,146.171-77.773,224.063
						c-91.441,73.773-165.093,97.942-166.11,98.154L4528.783,2577.635z"/>
				</g>
			</g>
			<path style="fill:#4F3800;" d="M4939.838,1964.295c-3.214-5.451-13.582-20.2-5.195-22.797
				c10.723-3.315,20.066,17.257,28.484-0.699c12.945-27.616-32.92-32.736-35.475-56.303c-27.222-16.596-48.719-17.705-76.474-1.389
				c-21.617,12.714-37.612,30.175-56.2,46.527c-20.447,17.994-38.479,16.686-64.014,17.5c-25.992,0.828-41.952,18.917-51.164,42.112
				c-9.709,24.458-3.482,42.679,13.049,61.875l7.872,7.689c20.842,15.903,54.188,26.279,79.661,14.057
				c23.973-11.505,32.152-40.849,21.172-63.171c-4.477-9.097-14.805-26.382-9.795-36.992c6.148-13.027,19.042,0.314,26.904,5.935
				c12.762,9.119,24.018,16.112,39.896,11.447c13.055-3.829,19.667-8.241,33.357-2.924c11.068,4.296,26.258,16.897,38.932,11.568
				C4943.718,1993.316,4941.057,1975.409,4939.838,1964.295z"/>
			<path style="fill:#F7B691;" d="M4777.158,2044.127c-16.629,32.788-58.67,54.122-69.758,49.293
				c-9.09-3.962-30.873-37.468-17.574-81.075c12.538-41.098,46.793-53.032,71.344-42.336
				C4785.725,1980.705,4793.513,2011.858,4777.158,2044.127z"/>
			<path style="fill:#4F3800;" d="M4791.518,2004.022c-0.413-10.158-15.928-27.558-11.406-34.269
				c-16.67-13.14-35.341-29.582-55.785-12.717c-14.191-0.808-21.334,25.378-34.438,25.895l-3.242,5.81
				c13.373,5.457,30.004,8.458,44.514,7.409c16.576-1.195,26.284-15.838,41.533-21.184c-3.795,10.184-9.422,20.707-6.867,31.8
				c2.768,12.011,13.165,22.974,19.973,32.936C4792.266,2034.184,4791.855,2012.378,4791.518,2004.022z"/>
			<path style="fill:#CE2900;" d="M4872.545,2081.737c-4.841-12.714-13.648-18.61-26.295-24.006
				c-10.232-4.367-19.891-8.494-26.539-17.222c-5.71-7.509-10.676-16.23-15.27-24.518c-1.719-3.098-2.983-6.288-3.983-9.546
				c6.519,8.324,15.679,15.41,27.998,21.777c0.423,0.218,1.022,0.706,1.6,1.181c1.767,1.439,4.431,3.617,7.774,2.34
				c5.051-1.917,8.685-6.046,10.504-11.933c3.166-10.235,0.395-24.949-6.582-34.984c-6.521-9.382-16.551-15.124-26.254-20.677
				c-2.821-1.613-5.605-3.208-8.256-4.874c-4.463-2.803-8.951-6.009-14.104-10.081c-0.01-2.091-0.008-4.171-0.004-6.24
				c0.019-10.863,0.035-22.098-1.629-33.131c-1.148-7.595-4.553-21.35-14.486-28.154c-5.213-3.572-11.338-4.604-18.215-3.075
				c-8.797,1.965-17.035,8.054-21.499,15.894c-3.745,6.586-4.591,13.935-2.376,20.694c6.215,18.968,29.464,29.036,46.438,36.389
				c1.709,0.74,3.367,1.458,4.955,2.158c-8.6,21.802-9.469,40.617-2.777,58.949c1.1,3.003,2.305,5.954,3.51,8.9
				c2.965,7.23,5.76,14.057,6.9,21.518c0.814,5.335,0.808,10.699,0.802,16.377c-0.009,6.009-0.017,12.229,1.045,18.398
				c2.651,15.409,13.554,23.544,23.563,29.96c0.551,0.353,1.165,0.52,1.77,0.52c1.082,0,2.143-0.532,2.769-1.514
				c0.978-1.526,0.534-3.556-0.991-4.534c-11.271-7.224-18.654-14.018-20.639-25.541c-0.965-5.617-0.959-11.283-0.949-17.282
				c0.006-5.675,0.014-11.543-0.879-17.378c-1.26-8.234-4.336-15.747-7.311-23.012c-1.176-2.87-2.354-5.743-3.422-8.667
				c-4.588-12.566-5.328-25.08-2.118-39.03c0.403,3.639,0.962,7.268,1.737,10.875c0.32,1.501,0.701,2.959,1.115,4.396
				c0.969,10.972,2.49,22.13,8.248,32.512c4.713,8.5,9.813,17.455,15.789,25.311c7.701,10.109,18.624,14.775,29.188,19.287
				c11.62,4.956,18.684,9.66,22.737,20.299c0.499,1.312,1.746,2.116,3.067,2.116c0.388,0,0.786-0.071,1.167-0.215
				C4872.34,2085.327,4873.19,2083.43,4872.545,2081.737z M4803.752,1964.837c2.718,1.708,5.584,3.351,8.486,5.011
				c9.067,5.191,18.445,10.559,24.121,18.725c5.826,8.375,8.275,20.969,5.701,29.299c-1.18,3.815-3.287,6.374-6.27,7.619
				c-0.412-0.225-1.129-0.808-1.582-1.177c-0.799-0.651-1.707-1.394-2.739-1.927c-19.059-9.853-29.88-21.405-34.542-36.995
				c-0.111-1.308-0.221-2.622-0.33-3.95c-0.629-7.724-1.351-15.675-3.314-23.49c-0.004-0.125-0.014-0.247-0.017-0.368
				C4796.934,1960.343,4800.346,1962.699,4803.752,1964.837z M4783.979,1945.544c-16.717-7.24-37.516-16.246-42.809-32.406
				c-2.088-6.384-0.152-11.899,1.844-15.4c3.576-6.285,10.174-11.165,17.221-12.736c1.587-0.352,3.098-0.531,4.533-0.531
				c3.171,0,5.994,0.865,8.539,2.613c5.758,3.946,10.026,12.591,11.703,23.721c1.594,10.539,1.578,21.517,1.559,32.136
				c0,1.238-0.003,2.482-0.003,3.726C4785.718,1946.295,4784.852,1945.923,4783.979,1945.544z"/>
			<path style="fill:#222221;" d="M4803.129,1945.555c11.063-20.985,26.873-38.518,48.977-47.996
				c11.629-4.988,24.605-5.935,36.982-3.802c12.142,2.089,22.438,8.599,32.238,15.682c-9.932-5.694-19.847-10.973-31.251-12.973
				c-12.325-2.165-25.485-0.594-37.005,4.229C4831.582,1909.686,4815.855,1926.515,4803.129,1945.555z"/>
			<path style="fill:#222221;" d="M4811.336,1950.479c17.652-11.581,32.299-31.425,55.753-25.859
				c6.608,1.565,12.918,4.134,19.745,4.694c6.444,0.526,12.965-0.09,19.279,1.607c10.851,2.917,13.521,14.178,15.213,23.936
				c-2.748-8.548-5.463-19.44-15.57-21.682c-5.969-1.328-12.243-0.513-18.305-0.747c-6.289-0.241-12.189-2.187-18.205-3.864
				c-11.272-3.277-20.879-1.694-31.008,4.421C4829.053,1938.529,4820.994,1945.692,4811.336,1950.479z"/>
			<path style="fill:#222221;" d="M4826.656,1963.612c6.103-3.356,12.604-7.557,19.768-7.853c4.867-0.199,8.573,2.037,12.534,4.563
				c4.438,2.832,9.124,3.694,14.19,4.793c9.059,1.975,16.561,8.157,24.633,12.44c7.627,4.046,15.565,5.79,24.092,6.304
				c-7.824,0.66-14.545-0.183-21.968-2.791c-9.036-3.177-16.683-10.189-25.941-12.402c-4.466-1.146-9.233-1.615-13.339-3.84
				c-3.533-1.915-6.547-4.983-10.404-6.272C4842.475,1955.965,4833.798,1961.128,4826.656,1963.612z"/>
			<path style="fill:#FFFAE5;" d="M4701.582,2055.952c0-2.719,24.367,8.657,21.542,9.504
				C4718.1,2066.972,4701.582,2066.122,4701.582,2055.952z"/>
		</g>
		<g>
			<g>
				<path style="fill:#F7B691;" d="M970.375,3718.661c4.003-23.856,31.843-40.721,62.374-84.138
					c19.86-28.24,17.183-63.45,10.663-93.894c-5.007-23.352,12.548-19.865,28.584-27.492c48.338-22.998,17.456,39.477,38.019,56.986
					c28.53,24.298,41.504,32.568,38.941,50.633c-2.845,20.003-26.814,19.023-55.421,39.24
					C1040.105,3697.766,965.332,3748.792,970.375,3718.661z"/>
				<path d="M984.163,3729.771c-6.74,1.802-11.432,1.395-14.338-1.244c-2.444-2.217-3.282-5.714-2.502-10.379
					c2.493-14.849,13.207-26.648,28.032-42.979c10.454-11.516,28.308-34.645,40.866-52.501c9.145-12.999,30.301,10.005,48.316-0.505
					c22.272-12.996,35.101-47.959,36.685-46.63c22.178,18.62,33.308,27.967,30.797,45.657c-1.984,13.984-13.088,18.967-27.139,25.28
					c-8.8,3.954-18.776,8.432-29.558,16.054C1053.101,3692.366,1006.879,3723.693,984.163,3729.771z"/>
			</g>
			<g>
				<path style="fill:#F7B691;" d="M1426.313,3609.312c-3.942-23.867,16.93-48.846,31.751-99.808
					c9.638-33.149-4.3-65.594-20.333-92.277c-12.303-20.476,5.438-22.867,18.137-35.281c38.281-37.415,29.302,31.692,54.431,41.6
					c34.861,13.743,49.818,17.366,53.244,35.284c3.793,19.85-19.202,26.686-39.719,55.079
					C1485.512,3566.946,1431.302,3639.451,1426.313,3609.312z"/>
				<path d="M1442.955,3615.354c-5.792,3.889-10.362,5.022-13.968,3.463c-3.032-1.307-4.952-4.334-5.729-9.005
					c-2.454-14.857,3.863-29.49,12.596-49.744c6.159-14.278,15.559-41.942,21.651-62.902c4.438-15.263,31.911-0.356,45.552-16.138
					c16.859-19.508,17.667-56.742,19.593-55.997c27.016,10.433,40.575,15.667,43.928,33.216c2.657,13.875-6.23,22.186-17.483,32.713
					c-7.047,6.591-15.03,14.06-22.759,24.764C1496.059,3557.634,1462.478,3602.246,1442.955,3615.354z"/>
			</g>
			<path style="fill:#F7B691;" d="M1514.12,1954.881c0,0-1.457-25.468-5.36-35.926c-3.324-8.886,6.118-61.731,13.877-60.88
				c7.976,0.868-0.599,29.034,6.508,25.309c12.332-6.45,16.058-49.553,23.695-55.253c1.392-1.032,5.723-1.885,6.696,0.382
				c1.694,3.93-12.21,46.041-12.21,46.041s13.904-34.843,16.321-48.411c0.981-5.506,9.016-2.126,7.899,3.19
				c-2.816,13.406-10.9,47.047-10.9,47.047s11.632-28.503,16.115-46.057c1.218-4.795,8.412,1.976,7.234,6.708
				c-3.731,15-14.428,48.791-14.428,48.791s17.877-45.882,21.44-44.417c7.772,3.178-9.046,41.144-12.332,55.482
				c-3.964,17.302-30.788,62.838-30.788,62.838l-29.993,83.08l-31.225-16.393L1514.12,1954.881z"/>
			<path style="fill:#F7B691;" d="M875.333,1970.605c0,0,11.43-22.804,19.159-30.86c6.573-6.84,18.85-59.099,11.387-61.393
				c-7.668-2.367-10.956,26.895-16.006,20.658c-8.766-10.81,4.895-51.862,0.138-60.123c-0.866-1.496-4.505-3.995-6.294-2.303
				c-3.117,2.937-7.038,47.108-7.038,47.108s1.042-37.499,4.202-50.914c1.282-5.438-7.435-5.523-8.518-0.198
				c-2.728,13.424-8.638,47.512-8.638,47.512s0.618-30.779,3.456-48.671c0.781-4.888-8.502-1.517-9.298,3.291
				c-2.517,15.25-6.092,50.512-6.092,50.512s1.774-49.209-2.081-49.276c-8.396-0.16-7.998,41.364-10.662,55.828
				c-3.221,17.458,3.358,69.893,3.358,69.893l-5.383,88.166l35.165-2.673L875.333,1970.605z"/>
			<path style="fill:#FFFAE5;" d="M1172.725,2170.546c-0.418-1.64,16.037,1.446,14.468,2.398
				C1184.397,2174.632,1174.301,2176.681,1172.725,2170.546z"/>
			<g>
				<path style="fill:#2C374A;" d="M1034.639,3581.243c0,0-141.691-315.057-136.786-412.662
					c6.001-119.453,157.441-483.568,157.441-483.568l202.423,9.2l-205.986,513.103l86.124,348.416L1034.639,3581.243z"/>
			</g>
			<g>
				<path style="fill:#313F57;" d="M1447.53,3465.054c0,0-257.778-181.611-295.163-265.801
					c-44.615-100.48-31.641-539.799-31.641-539.799s220.182-3.106,226.165,53.165c10.222,96.101-43.903,433.433-43.903,433.433
					l223.494,247.788L1447.53,3465.054z"/>
			</g>
			<path style="fill:#F1A52B;" d="M1346.891,2712.619c0,0-56.456,19.422-147.384,11.035c-87.387-8.06-74.651-10.95-148.896-25.846
				l12.861-453.426c0,0,95.56-20.263,127.793-20.446c33.721-0.196,127.794,20.446,127.794,20.446L1346.891,2712.619z"/>
			<g>
				<path style="fill:#F1A52B;" d="M1070.158,2332.005c0,0-186.417-33.739-222.967-94.617
					c-36.06-60.068-20.743-259.594-20.743-259.594l75.492,4.869l24.116,207.375l176.778,50.767c0,0,9.355,19.596-3.068,44.981
					C1094.734,2296.063,1070.158,2332.005,1070.158,2332.005z"/>
			</g>
			<g>
				<path style="fill:#F1A52B;" d="M1308.324,2321.059c0,0-40.522-4.813-49.176-27.041c-12.163-31.233,0.441-56.59,0.441-56.59
					l158.514-74.69l68.812-193.646l74.477,13.314c0,0-46.763,162.157-72.623,214.951
					C1450.32,2275.841,1308.324,2321.059,1308.324,2321.059z"/>
			</g>
			<path style="fill:#EAA786;" d="M1232.16,2228.028c0,0-13.338,44.869-47.354,44.869c-32.455,0-46.754-42.642-46.754-42.642
				s19.19-4.484,19.665-10.067c2.495-29.432,20.253-101.023,20.253-101.023h19.648c0,0,12.239,73.114,15.128,102.314
				C1213.325,2227.298,1232.16,2228.028,1232.16,2228.028z"/>
			<path style="fill:#F7B691;" d="M1238.026,2109.508c0,8.739-9.02,9.302-9.871,17.193c-3.765,35.149-8.081,56.259-40.07,56.259
				c-35.485,0-40.484-15.537-45.867-62.182c-0.471-4.063-8.398-3.801-10.705-16.622c-2.547-14.153,11.575-4.481,12.115-7.892
				c4.763-30.03,21.974-51.938,44.457-51.938c25.539,0,43.041,23.292,44.022,56.147
				C1232.185,2103.098,1238.026,2102.718,1238.026,2109.508z"/>
			<path style="fill:#431F00;" d="M1229.275,2023.556c-31.054-33.957-59.82-47.809-105.301-23.003
				c-17.641,9.625-37.32,64.426-38.245,85.484c-0.538,12.381,21.3,32.662,33.486,23.343c9.222-7.053,17.222-9.512,28.344-13.434
				c10.329-3.651,16.66-10.754,23.686-19.791c4.389-5.649,27.8-22.741,35.03-18.863c0.49,15.443,7.873,54.96,25.833,43.182
				c6.619-4.344,7.356-28.222,7.708-35.511C1240.437,2052.05,1236.85,2031.836,1229.275,2023.556z"/>
			<path style="fill:#FFFAE5;" d="M1169.542,2154.488c-1.117-1.694,8.417-2.729,16.883-4.417c6.524-1.307,11.263-5.738,13.021-2.379
				C1202.996,2154.464,1176.959,2165.707,1169.542,2154.488z"/>
		</g>
		<g>
			<g>
				<g>
					<path style="fill:#F7B691;" d="M3887.237,1958.008c13.214-18.555,43.73-21.371,87.46-45.558
						c28.458-15.732,40.688-46.651,47.709-75.111c5.374-21.835,18.813-11.65,35.533-11.514c50.402,0.441-1.485,40.623,8.718,63.92
						c14.151,32.324,21.726,44.674,12.12,58.914c-10.652,15.768-30.54,5.062-63.092,10.399
						C3954.893,1969.029,3870.556,1981.445,3887.237,1958.008z"/>
					<path d="M3894.332,1973.088c-6.451-1.247-10.251-3.522-11.62-6.96c-1.155-2.882-0.435-6.184,2.155-9.813
						c8.222-11.549,22.158-17.125,41.432-24.849c13.595-5.445,38.235-17.676,56.229-27.621c13.101-7.24,21.538,20.955,41.125,19.472
						c24.208-1.828,49.475-26.152,50.266-24.375c11.11,24.902,16.685,37.398,7.265,51.347c-7.431,11.024-18.883,10.67-33.388,10.227
						c-9.079-0.277-19.364-0.589-31.639,1.423C3968.112,1969.815,3916.069,1977.307,3894.332,1973.088z"/>
				</g>
				<g>
					<path style="fill:#42234A;" d="M4094.278,1856.84l-113.126-2.957c0,0-37.492-449.194-2.453-560.469
						c25.617-81.357,207.618-278.739,207.618-278.739l94.419,62.398l-170.241,257.594L4094.278,1856.84z"/>
				</g>
			</g>
			<g>
				<g>
					<path style="fill:#F7B691;" d="M4316.99,1938.286c-3.415-22.52,16.551-45.769,31.145-93.567
						c9.502-31.095-3.224-61.814-17.969-87.145c-11.33-19.427,5.412-21.458,17.517-32.989
						c36.521-34.741,27.188,30.217,50.728,39.857c32.649,13.38,46.681,16.985,49.684,33.896
						c3.317,18.739-18.419,24.881-38.094,51.358C4373.264,1899.147,4321.305,1966.731,4316.99,1938.286z"/>
					<path d="M4332.576,1944.188c-5.504,3.59-9.816,4.603-13.193,3.084c-2.832-1.269-4.611-4.141-5.277-8.551
						c-2.126-14.017,4.008-27.715,12.482-46.671c5.979-13.368,15.176-39.297,21.186-58.957c4.375-14.314,30.051,0.072,43.092-14.618
						c16.119-18.149,17.352-53.199,19.156-52.475c25.307,10.162,38.002,15.259,40.934,31.836
						c2.331,13.088-6.145,20.799-16.875,30.57c-6.713,6.119-14.317,13.047-21.736,23.033
						C4383.303,1890.519,4351.125,1932.1,4332.576,1944.188z"/>
				</g>
				<g>
					<path style="fill:#4F2E59;" d="M4314.326,1784.98c0,0-295.236-390.333-275.441-507.998
						c16.343-97.181,285.25-272.055,285.25-272.055s94.785,44.436,102.705,71.598c31.074,106.548-223.367,269.989-223.367,269.989
						l211.443,386.638L4314.326,1784.98z"/>
				</g>
				<g>
					<path style="fill:#FFFFFF;" d="M4356.279,1742.875c-2.436,0-4.432,2.132-4.389,4.532c0.034,2.465,2.102,4.391,4.531,4.391
						c2.436,0,4.43-2.131,4.388-4.533C4360.768,1744.802,4358.709,1742.875,4356.279,1742.875z"/>
					<path style="fill:#FFFFFF;" d="M4339.975,1717.417c-5.502,0-5.377,8.527,0.119,8.527
						C4345.597,1725.944,4345.472,1717.417,4339.975,1717.417z"/>
					<path style="fill:#FFFFFF;" d="M4322.646,1692.268c-2.738,0-4.972,2.445-4.912,5.136c0.066,2.787,2.4,4.91,5.139,4.91
						s4.973-2.444,4.913-5.136C4327.721,1694.391,4325.387,1692.268,4322.646,1692.268z"/>
					<path style="fill:#FFFFFF;" d="M4305.4,1664.215c-2.52,0-4.582,2.222-4.535,4.705c0.041,2.552,2.18,4.538,4.701,4.538
						c2.519,0,4.582-2.221,4.533-4.704C4310.059,1666.202,4307.918,1664.215,4305.4,1664.215z"/>
					<path style="fill:#FFFFFF;" d="M4287.068,1629.144c-2.703,0.063-5.221,2.465-5.02,5.264c0.012,0.221,0.031,0.438,0.045,0.655
						c0.199,2.772,2.338,5.043,5.216,4.978c2.974-0.072,4.782-2.447,4.979-5.216c0.015-0.22,0.033-0.44,0.044-0.661
						C4292.528,1631.359,4289.671,1629.078,4287.068,1629.144z"/>
					<path style="fill:#FFFFFF;" d="M4271.848,1597.968c-2.619,0-4.762,2.326-4.709,4.91c0.054,2.662,2.283,4.713,4.906,4.713
						c2.62,0,4.766-2.325,4.71-4.91C4276.701,1600.02,4274.473,1597.968,4271.848,1597.968z"/>
					<path style="fill:#FFFFFF;" d="M4254.08,1573.742c-2.168-2.069-6.569-1.831-7.873,1.194c-0.796,1.867-0.762,3.183,0.09,5.017
						c1.168,2.507,4.771,3.042,6.943,1.703C4255.998,1579.953,4256.424,1575.981,4254.08,1573.742z"/>
					<path style="fill:#FFFFFF;" d="M4237.425,1543.112c-1.345-2.043-4.179-3.069-6.563-1.608c-3.488,2.141-2.799,7.878,1.334,8.801
						c0.032,0.005,0.062,0.015,0.091,0.021c0.886,0.2,1.945,0.134,2.889-0.191c0.118-0.032,0.238-0.071,0.378-0.122
						c0.075-0.027,0.117-0.074,0.193-0.104c0.093-0.051,0.186-0.095,0.273-0.152
						C4238.855,1548.364,4239.217,1545.169,4237.425,1543.112z"/>
					<path style="fill:#FFFFFF;" d="M4214.209,1506.56c-2.135-0.539-4.419,0.449-5.49,2.373c-0.971,1.739-0.852,4.639,0.893,5.928
						c1.816,1.346,3.883,2.111,5.961,0.641C4218.942,1513.113,4218.535,1507.653,4214.209,1506.56z"/>
					<path style="fill:#FFFFFF;" d="M4201.984,1476.707c-1.746-1.045-4.021-0.744-5.16,1.01c0.33-0.742,0.295-0.92-0.104-0.539
						c-2.52,1.828-3.234,5.38-0.828,7.688c2.232,2.144,6.169,1.643,7.646-1.149c0.29-0.551,0.494-1.138,0.719-1.715
						C4205.033,1480.018,4203.634,1477.699,4201.984,1476.707z"/>
					<path style="fill:#FFFFFF;" d="M4181.102,1443.79c0.095-0.003,0.19-0.006,0.285-0.006c-0.203-0.024-0.41-0.047-0.613-0.077
						c-0.042-0.006-0.083-0.015-0.125-0.018c-0.422-0.063-0.846-0.134-1.273-0.164c-2.608-0.182-4.74,2.45-4.693,4.883
						c0.051,2.486,2.281,4.907,4.884,4.692c1.488-0.125,3.078-0.527,4.084-1.739
						C4186.139,1448.357,4184.418,1444.4,4181.102,1443.79z"/>
					<path style="fill:#FFFFFF;" d="M4162.095,1407.932c-6.212,0-6.003,9.622,0.196,9.622
						C4168.501,1417.554,4168.293,1407.932,4162.095,1407.932z"/>
					<path style="fill:#FFFFFF;" d="M4144.797,1371.085c-2.765,0-5.014,2.474-4.955,5.192c0.066,2.81,2.424,4.954,5.193,4.954
						c2.762,0,5.014-2.474,4.953-5.192C4149.924,1373.229,4147.559,1371.085,4144.797,1371.085z"/>
					<path style="fill:#FFFFFF;" d="M4133.346,1330.195c-2.926,0-5.299,2.644-5.222,5.511c0.077,2.986,2.584,5.225,5.507,5.225
						c2.931,0,5.306-2.644,5.229-5.511C4138.779,1332.434,4136.275,1330.195,4133.346,1330.195z"/>
					<path style="fill:#FFFFFF;" d="M4133.607,1289.645c-2.842,0-5.15,2.554-5.084,5.341c0.07,2.897,2.5,5.085,5.346,5.085
						c2.844,0,5.152-2.554,5.086-5.341C4138.883,1291.833,4136.455,1289.645,4133.607,1289.645z"/>
					<path style="fill:#FFFFFF;" d="M4154.949,1260.152c-2.68,0.065-5.413,2.525-5.109,5.368c0.125,1.152,0.209,2.355,0.952,3.314
						c1.132,1.468,2.514,2.468,4.461,2.423c2.268-0.054,4.278-1.659,4.829-3.861c0.176-0.697,0.17-1.426,0.237-2.138
						C4160.585,1262.408,4157.547,1260.086,4154.949,1260.152z"/>
					<path style="fill:#FFFFFF;" d="M4190.902,1232.344l-0.602-0.348c-1.041-0.607-2.352-0.593-3.392,0.011
						c-0.241,0.14-0.484,0.283-0.729,0.426c-4.054,2.361-2.071,8.753,2.523,8.667
						C4193.408,1241.011,4194.893,1234.666,4190.902,1232.344z"/>
					<path style="fill:#FFFFFF;" d="M4225.487,1210.255c-0.333-1.274-0.995-2.355-2.257-3.058c-0.977-0.545-2.145-0.691-3.239-0.488
						c-0.024,0-0.042,0-0.06,0c-0.061,0.003-0.113,0.03-0.17,0.036c-0.094,0.021-0.188,0.027-0.277,0.054
						c-4.734,0.601-6.997,6.586-3.358,9.997c3.578,3.359,10.241,0.733,9.825-4.441
						C4225.887,1211.529,4225.73,1210.869,4225.487,1210.255z"/>
					<path style="fill:#FFFFFF;" d="M4253.502,1184.734c-2.971,0-5.382,2.691-5.299,5.601c0.084,3.037,2.63,5.302,5.604,5.302
						c2.971,0,5.377-2.691,5.3-5.6C4259.023,1187,4256.477,1184.734,4253.502,1184.734z"/>
					<path style="fill:#FFFFFF;" d="M4292.897,1165.435c-0.22-0.536-0.542-1.044-0.952-1.482c-0.242-0.354-0.477-0.707-0.461-0.694
						c-0.506-0.39-0.873-0.727-1.51-0.902c-0.871-0.238-1.646-0.056-2.357,0.307c-0.123,0.018-0.203,0.03-0.352,0.047
						c-0.792,0.235-1.471,0.649-2.043,1.239c0.657-0.747,0.318-0.298-0.119-0.047c-4.466,2.542-3.027,9.468,1.732,10.617
						c2.543,0.613,5.252-0.595,6.5-2.891C4294.327,1169.803,4294.207,1167.168,4292.897,1165.435z"/>
					<path style="fill:#FFFFFF;" d="M4321.319,1141.793c-0.673-1.879-2.87-3.645-4.989-2.757c-1.858,0.774-2.326,1.363-3.181,2.411
						c-0.093,0.078-0.245,0.203-0.372,0.313c-0.027,0.016-0.03,0.021-0.057,0.039c-2.953,1.962-3.52,6.205-0.869,8.706
						c2.59,2.45,6.925,1.756,8.641-1.364C4321.53,1147.253,4322.088,1143.936,4321.319,1141.793z"/>
					<path style="fill:#FFFFFF;" d="M4345.959,1112.341c-3.102,0-5.609,2.832-5.518,5.863c0.097,3.17,2.76,5.517,5.864,5.517
						c3.101,0,5.608-2.832,5.513-5.862C4351.724,1114.688,4349.063,1112.341,4345.959,1112.341z"/>
					<path style="fill:#FFFFFF;" d="M4376.262,1092.611c-3.168-2.998-7.741-1.128-9.021,2.65c-0.862,2.537,0.643,4.934,2.681,6.264
						c1.13,0.739,2.776,0.804,4.033,0.426c1.03-0.31,1.778-0.882,2.366-1.605
						C4378.319,1098.176,4378.633,1094.856,4376.262,1092.611z"/>
				</g>
			</g>
			<g>
				<path style="fill:#DBA18D;" d="M4595.938,1057.274c0,0-6.857,23.541-12.775,32.494c-5.029,7.604-7.591,59.143-0.139,60.016
					c7.662,0.908,5.707-27.323,11.559-22.3c10.159,8.703,4.344,49.878,10.273,56.866c1.08,1.269,4.951,3.002,6.356,1.09
					c2.432-3.316-1.504-45.757-1.504-45.757s5.501,35.631,4.843,48.866c-0.279,5.365,7.982,3.933,8.08-1.286
					c0.26-13.165-0.055-46.419-0.055-46.419s4.742,29.21,5.152,46.615c0.113,4.758,8.311-0.035,8.223-4.719
					c-0.256-14.854-2.977-48.813-2.977-48.813s6.84,46.833,10.492,46.231c7.964-1.304,0.406-40.494,0.422-54.633
					c0.027-17.06-15.275-65.5-15.275-65.5l-10.158-84.294l-32.789,8.617L4595.938,1057.274z"/>
				<g>
					<path style="fill:#F79999;" d="M4590.537,1044.98l-47.256-217.598c0,0-129.726-76.688-151.418-134.019
						c-2.918-7.713-13.795-41.628-6.822-63.738c3.268-10.346,22.352-8.732,22.352-8.732s151.43,132.873,181.44,191.629
						c28.231,55.282,40.575,218.872,40.575,218.872L4590.537,1044.98z"/>
				</g>
			</g>
			<g>
				<path style="fill:#F79999;" d="M4426.848,1076.516c0,0-115.973-4.177-146.123-7.682c-59.207-6.83-93.627-37.654-100.643-44.48
					c-0.025-0.033-0.059-0.033-0.059-0.063c-0.06-0.06-0.122-0.152-0.211-0.214c-0.706-0.729-1.068-1.096-1.068-1.096
					s0.033-0.092,0.118-0.274c0.188-0.366,0.554-1.161,1.071-2.319c0.822-1.769,2.043-4.418,3.537-7.744
					c0.424-0.944,0.853-1.92,1.34-2.986c0.581-1.28,1.188-2.653,1.829-4.085c0.607-1.372,1.22-2.804,1.86-4.299
					c14.207-32.318,38.963-91.921,39.602-116.522c1.586-61.096-7.528-179.327-37.865-248.564
					c-3.109-7.167,8.752-12.317,29.819-17.926c0.882-0.214,1.733-0.458,2.65-0.703c6.525-1.675,13.841-3.382,21.8-5.243
					c24.785-5.731,40.091-11.555,53.354-11.555c16.615,0,44.908,4.392,74.479,12.043c2.623,0.67,5.092,1.28,7.41,1.858
					c1.369,0.306,2.713,0.611,3.963,0.884c19.478,4.421,27.469,4.787,26.525,8.843c-21.678,94.692,4.114,343.926,13.475,425.694
					c0.211,1.708,0.396,3.355,0.547,4.909c0.305,2.468,0.581,4.785,0.824,6.859c0.184,1.677,0.365,3.201,0.548,4.603
					c0.335,2.653,0.579,4.788,0.764,6.401C4426.697,1075.266,4426.848,1076.516,4426.848,1076.516z"/>
				<g>
					<path style="fill:#FFFFFF;" d="M4383.711,615.547c-16.83,32.289-56.527,117.072-102.527,81.19
						c-8.325-6.463-16.984-13.416-22.837-22.317c-6.736-10.245-16.891-15.366-24.052-24.664
						c-5.613-7.347-11.711-21.129-14.239-31.493c0.882-0.214,1.733-0.458,2.65-0.703c2.591,9.727,8.324,20.975,13.233,28.933
						c4.573,7.408,14.176,11.892,20.213,18.385c6.035,6.464,10.031,14.208,16.797,20.183c11.553,10.182,26.189,20.061,42.41,13.534
						c14.174-5.701,21.829-17.346,31.127-28.689c14.085-17.164,23.443-35.638,33.262-55.243
						C4381.117,614.969,4382.461,615.273,4383.711,615.547z"/>
					<path style="fill:#FFFFFF;" d="M4231.709,620.212c-4.043,0-4.033,6.264,0.006,6.264
						C4235.752,626.477,4235.746,620.212,4231.709,620.212z"/>
					<path style="fill:#FFFFFF;" d="M4237.467,632.071c-3.822,0-3.829,5.93-0.006,5.93S4241.289,632.071,4237.467,632.071z"/>
					<path style="fill:#FFFFFF;" d="M4247.424,643.193c-3.168-3.171-7.551,2.62-3.695,4.788
						C4246.725,649.667,4249.927,645.695,4247.424,643.193z"/>
					<path style="fill:#FFFFFF;" d="M4257.533,653.867c-0.541-0.544-1.428-0.991-2.227-0.926c-0.047-0.009-0.072-0.012-0.119-0.018
						c-0.491,0-0.946,0.123-1.375,0.366c-3.691,1.867-0.584,7.729,3.084,5.574C4258.666,657.824,4258.986,655.317,4257.533,653.867z
						"/>
					<path style="fill:#FFFFFF;" d="M4264.25,662.894c-4.436,0-4.406,6.878,0.03,6.878S4268.682,662.894,4264.25,662.894z"/>
					<path style="fill:#FFFFFF;" d="M4275.368,673.431c-4.085,0-4.073,6.335,0.011,6.335
						C4279.464,679.767,4279.453,673.431,4275.368,673.431z"/>
					<path style="fill:#FFFFFF;" d="M4285.633,683.53c-4.823,0-4.764,7.479,0.061,7.479
						C4290.516,691.009,4290.457,683.53,4285.633,683.53z"/>
					<path style="fill:#FFFFFF;" d="M4305.825,690.294c-4.948,0-4.876,7.67,0.071,7.67
						C4310.846,697.964,4310.768,690.294,4305.825,690.294z"/>
					<path style="fill:#FFFFFF;" d="M4323.393,688.487c0.053-0.092,0.01-0.307-0.139-0.652c-0.017-0.045-0.035-0.083-0.057-0.125
						c-0.053-0.119-0.092-0.215-0.162-0.357c-0.096-0.158-0.244-0.265-0.364-0.405c-0.116-0.143-0.224-0.283-0.362-0.405
						c-0.203-0.185-0.43-0.318-0.674-0.453c-0.166-0.089-0.322-0.182-0.5-0.247c-0.09-0.03-0.154-0.096-0.244-0.119
						c-0.215-0.057-0.435-0.045-0.649-0.063c-0.106-0.009-0.196-0.06-0.302-0.06c0.014,0.013,0.022,0.024,0.037,0.036
						c-1.253,0-2.465,0.637-3.111,1.751c-0.803,1.394-0.554,3.2,0.584,4.329c0.672,0.661,1.59,1.036,2.533,1.03
						c0.235,0,0.61-0.065,0.991-0.161l-0.042,0.027c0.029-0.009,0.055-0.027,0.084-0.036c0.643-0.164,1.314-0.447,1.488-0.89
						c0.661-0.673,1.036-1.59,1.031-2.534C4323.535,688.919,4323.439,688.711,4323.393,688.487z"/>
					<path style="fill:#FFFFFF;" d="M4337.084,676.117c-0.045-0.054-0.086-0.101-0.128-0.155c-2.091-2.453-6.104-0.357-6.086,2.563
						c0.024,3.757,4.729,4.579,6.67,1.765c0.026-0.042,0.054-0.08,0.083-0.122C4338.516,678.867,4338.01,677.203,4337.084,676.117z"
						/>
					<path style="fill:#FFFFFF;" d="M4345.096,660.521c-4.518,0-4.479,7.002,0.035,7.002S4349.609,660.521,4345.096,660.521z"/>
					<path style="fill:#FFFFFF;" d="M4353.879,646.528c-0.137,0.063-0.273,0.122-0.408,0.185c-2.332,1.03-1.932,4.534,0.014,5.668
						c2.359,1.373,4.639-0.476,4.932-2.849c0.018-0.122,0.03-0.247,0.047-0.372C4358.776,646.606,4355.707,645.722,4353.879,646.528
						z"/>
					<path style="fill:#FFFFFF;" d="M4363.779,630.815c-2.109,0.006-3.785,2.12-3.166,4.177c0.018,0.057,0.035,0.116,0.055,0.176
						c0.932,3.097,5.316,3.069,6.246-0.015l0.053-0.178C4367.586,632.914,4365.879,630.808,4363.779,630.815z"/>
					<path style="fill:#FFFFFF;" d="M4372.338,620.697c-0.029-0.087-0.065-0.172-0.099-0.259c-0.55-1.438-1.638-2.42-3.241-2.451
						c-0.096-0.002-0.191-0.002-0.287-0.005c-3.299-0.065-4.87,4.162-2.594,6.404
						C4368.646,626.873,4373.725,624.321,4372.338,620.697z"/>
				</g>
				<g>
					<path style="fill:#FFFFFF;" d="M4426.848,1076.516c0,0-115.973-4.177-146.123-7.682c-59.207-6.83-93.627-37.654-100.643-44.48
						c-0.025-0.033-0.059-0.033-0.059-0.063c-0.06-0.06-0.122-0.152-0.211-0.214c-0.706-0.729-1.068-1.096-1.068-1.096
						s0.033-0.092,0.118-0.274c0.188-0.366,0.554-1.161,1.071-2.319c7.285,9.909,15.974,15.244,26.706,21.434
						c26.526,15.336,61.554,23.232,89.997,26.158c23.021,2.346,46.068,2.346,69.148,3.629c20.213,1.096,40.426,2.772,60.608,1.247
						C4426.697,1075.266,4426.848,1076.516,4426.848,1076.516z"/>
					<path style="fill:#FFFFFF;" d="M4424.258,1054.993c-24.023,0.456-47.499,2.864-71.674,0.852
						c-24.179-2.009-48.266-1.614-72.316-5.517c-31.285-5.062-74.481-16.065-93.628-44.755c0.607-1.372,1.22-2.804,1.86-4.299
						c22.65,34.298,76.766,44.421,114.146,47.592c22.162,1.858,44.875,2.986,67.102,3.688c18.047,0.578,35.941-1.617,53.963-2.471
						C4423.922,1051.792,4424.106,1053.439,4424.258,1054.993z"/>
					<path style="fill:#FFFFFF;" d="M4425.63,1066.456c-4.238-3.019-8.722-3.445-11.187,1.617c-0.309,0.64-1.344,1.372-2.075,1.554
						c-0.915,0.244-2.347-0.03-3.083-0.518c-5.12-3.507-9.875-6.189-17.859,0.7c-3.111,2.652-5.857-2.498-8.629-4.725
						c-5.064-4.055-8.934,5.731-13.873,4.636c-8.049-1.831-8.662-8.872-18.689-3.233c-3.138,1.739-7.622-1.066-10.637-2.316
						c-6.039-2.501-14.301,5.883-18.207,2.56c-5.728-4.847-10.482-6.768-20.58-1.524c-6.918,3.596-10.85-10.519-19.447-1.798
						c-2.012,2.072-5.912-2.775-7.348-4.177c-10.793-10.457-13.504,6.708-18.992-0.792c-7.287-9.878-13.141-4.817-20.581-4.847
						c-6.612,0-6.099-9.909-13.201-9.819c-4.755,0.062-8.899-0.274-11.278-5.121c-6.252-12.684-13.874-2.409-18.906-7.592
						c-0.789-0.822-5.147-15.488-7.586-18.415c0.424-0.944,0.853-1.92,1.34-2.986c5.484,2.834,6.191,20.975,12.776,18.659
						c2.957-1.037,7.647-2.594,10.238,0.488c5.187,6.157,7.839,10.152,16.864,9.968c2.773-0.06,3.78,1.617,4.936,3.78
						c5.705,10.549,12.686,0.519,20.215,3.597c5.063,2.104,7.01,9.756,13.965,7.167c3.84-1.436,4.389-2.531,7.865-0.185
						c10.822,7.318,8.415-0.914,15.699,0.093c5.398,0.7,9.545,9.908,18.537,5.365c2.866-1.462,7.288-4.237,10.581-1.891
						c2.835,2.075,9.417,7.348,12.284,4.24c0.917-0.977,4.451-2.471,5.793-2.775c4.148-0.947,5.033-0.429,8.443,2.224
						c7.744,6.008,6.826,0.244,12.259-1.128c3.688-0.943,6.188,0.429,8.503,3.019c6.252,6.953,13.631-8.81,18.965-3.263
						c7.621,7.929,13.416-1.158,19.055-0.851c4.392,0.244,7.496,10.031,11.585,4.785c3.966-5.059,7.743-3.749,11.708-1.096
						C4425.266,1063.529,4425.447,1065.054,4425.63,1066.456z"/>
				</g>
			</g>
			<g>
				<path style="fill:#DBA18D;" d="M4116.596,1099.394c0,0,2.686,24.372,6.967,34.212c3.638,8.359-2.745,59.566-10.236,59.138
					c-7.705-0.432-0.904-34.186-7.539-30.252c-11.509,6.818-12.896,54.665-19.936,60.525c-1.287,1.063-5.397,2.099-6.452-0.027
					c-1.824-3.686,9.392-44.809,9.392-44.809s-11.579,34.144-13.217,47.295c-0.654,5.332-8.545,2.495-7.738-2.666
					c2.022-13.01,8.078-45.709,8.078-45.709s-9.719,27.95-13.136,45.022c-0.929,4.668-8.177-1.471-7.28-6.068
					c2.82-14.585,11.371-47.562,11.371-47.562s-14.834,44.944-18.328,43.721c-7.615-2.662,6.598-39.955,9.026-53.886
					c2.923-16.806,26.368-61.874,26.368-61.874l36.584-79.16l18.797,12.046L4116.596,1099.394z"/>
				<g>
					<path style="fill:#F79999;" d="M4127.135,1095.675l-41.941-10.105c0,0,57.857-143.707,69.053-193.145
						c14.586-64.416,9.432-194.738,34.877-259.157c2.813-7.122,29.483-5.225,35.064,0.018c9.781,9.193,6.575,34.495,7.623,42.682
						c6.098,47.762-13.279,177.615-28.457,234.75C4190.289,959.866,4127.135,1095.675,4127.135,1095.675z"/>
				</g>
			</g>
			<g>
				<path style="fill:#432300;" d="M4236.758,433.465c9.879-7.881,36.191-15.836,48.65-13.72
					c10.45,1.778,30.984,11.448,37.488,19.817c4.22,5.425,8.336,19.09,9.146,25.914c1.006,8.453,7.598,22.38,8.26,30.868
					c0.814,10.471-4.627,34.909-0.126,44.397c4.308,9.083,19.194,21.615,27.944,26.566c3.704,2.096,13.093,14.264,17.275,15.035
					c6.52,1.2,12.665,1.516,17.787,3.049c2.779,0.831,10.891,2.924,13.719,3.558c8.074,1.811,25.652,1.706,33.029-2.033
					c5.127-2.6,14.98-3.584,17.78-8.607c1.702-3.052,1.233-17.873,3.048-20.862c3.169-5.213,13.563-12.308,17.787-16.705
					c2.404-2.501,6.849-3.844,6.849-3.844l-3.294,19.025c0,0-4.043,21.564-8.127,27.439c-4.353,6.258-17.162,15.878-24.391,18.292
					c-10.42,3.483-32.723,4.142-43.701,4.574c-11.718,0.461-36.519,1.682-46.742-4.068c-4.567-2.566-11.885-10.694-15.756-14.225
					c-3.209-2.93-8.385-9.376-11.178-12.704c-3.988-4.758-15.859-11.977-19.815-16.762c-7.08-8.56-30.488-24.899-30.488-24.899
					s-17.731-3.544-24.896,3.328c-2.787,2.667-11.135,8.581-13.721,12.418c-3.375,5.007-5.061,14.172-10.67,21.674
					c-3.146,4.207-13.475,21.96-17.279,25.581c-4.074,3.879-10.672,19.817-10.672,19.817s-7.639,19.674-12.194,24.899
					c-3.925,4.501-15.022,10.111-18.798,14.734c-2.516,3.082-4.906,10.921-7.116,14.229c-2.392,3.588-12.194,12.195-12.194,12.195
					s-11.177,15.279-12.195,21.341c-0.789,4.716,3.561,18.799,3.561,18.799s-12.36-14.118-14.737-19.817
					c-1.905-4.573-2.542-16.768,0-19.816c2.542-3.049,18.644-7.456,22.36-12.701c4.104-5.797,2.446-21.353,5.079-27.948
					c3.266-8.182,19.31-29.472,19.31-29.472s10.338-25.634,12.701-34.521c1.959-7.354,5.08-30.008,5.08-30.008
					s6.395-28.831,7.621-38.589c1.146-9.095,0.19-27.632,2.037-36.614C4217.447,462.047,4227.939,440.504,4236.758,433.465z"/>
				<g>
					<path style="fill:#D39276;" d="M4363.99,610.712c0,0-26.525,76.177-56.882,76.177c-28.963,0-71.911-72.384-71.911-72.384
						s37.719-9.655,38.146-14.636c2.224-26.269,18.074-90.156,18.074-90.156h17.53c0,0,10.919,65.25,13.503,91.308
						c0.236,2.396,11.658,3.284,21.28,5.285C4354.951,608.643,4363.99,610.712,4363.99,610.712z"/>
					<path style="fill:#DBA18D;" d="M4325.988,489.236c2.572,7.443-4.955,10.581-3.348,17.554
						c7.146,31.062-7.717,56.336-17.578,59.748c-8.703,3.007-39.075-1.316-57.402-39.479c-1.596-3.329-8.281-0.762-14.022-11.01
						c-6.335-11.313,8.546-7.229,8.004-10.295c-4.79-26.992,3.43-50.733,22.585-57.354c21.765-7.523,43.537,7.169,54.051,34.875
						C4319.117,485.493,4323.986,483.448,4325.988,489.236z"/>
					<path style="fill:#FFFAE5;" d="M4285.461,541.195c-1.391-2.105,23.312-5.77,21.559-3.668
						C4303.902,541.273,4290.67,549.073,4285.461,541.195z"/>
				</g>
				<path style="fill:#B51F5C;" d="M4160.629,670.981c-0.232-0.904,0-4.127,1.065-3.37c1.069,0.744,0.918,1.494,2.595,3.37
					c1.676,1.876,2.138,3.001,3.584,3.936c1.451,0.938,2.442,1.313,2.213,3.373c-0.232,2.06-1.758,4.309-2.897,2.623
					c-1.146-1.688-1.908-3.751-2.748-5.059C4163.6,674.542,4161.199,673.22,4160.629,670.981z"/>
				<path style="fill:#B51F5C;" d="M4465.979,578.712c-0.281-1.331,0.244-5.997,1.756-4.835c1.514,1.149,1.252,2.23,3.582,5.058
					c2.336,2.819,2.941,4.486,4.994,5.93c2.063,1.447,3.483,2.052,3.027,5.038c-0.461,2.975-2.813,6.154-4.385,3.635
					c-1.566-2.524-2.558-5.567-3.704-7.514C4470.106,584.065,4466.676,581.999,4465.979,578.712z"/>
				<path style="fill:#4F2707;" d="M4229.834,497.87c-1.484,1.941-4.24,8.795-4.24,8.795s-3.049,13.69-3.049,20.169
					s-1.523,18.292,0,22.484c1.523,4.192,3.43,10.67,5.294,18.626c1.864,7.955,0,16.815,0,16.815s6.521-14.482,8.919-22.866
					c2.4-8.384,3.317-14.101,3.317-14.101s0.762-6.478-3.317-8.383c-4.834-2.26-5.067-15.244-7.734-22.485
					c-2.668-7.24,5.336-23.008,5.336-23.008S4230.744,496.676,4229.834,497.87z"/>
				<path style="fill:#4F2707;" d="M4212.637,544.589c0,6.252,3.865,17.164,5.717,22.72c0.91,2.739,3.405,8.116,3.512,11.001
					c0.197,5.077-2.732,15.068-4.613,19.787c-1.412,3.528-6.52,13.719-6.52,13.719s3.023-14.258,2.667-19.054
					c-0.321-4.358-4.468-12.424-4.954-16.768C4207.558,568.122,4212.637,544.589,4212.637,544.589z"/>
				<path style="fill:#4F2707;" d="M4200.062,594.452c0,0-0.194,11.886,0,15.84c0.237,4.877,2.993,14.678,1.905,19.435
					c-0.954,4.174-9.147,14.482-9.147,14.482s0.155-6.58,0-8.766c-0.332-4.704-3.26-13.996-2.667-18.673
					C4190.92,610.715,4200.062,594.452,4200.062,594.452z"/>
				<path style="fill:#4F2707;" d="M4186.342,624.774c0,0,0.84,11.524,0,15.243c-0.977,4.323-5.646,12.04-7.622,16.005
					c-1.395,2.799-4.954,11.475-4.954,11.475s-0.146-7.463,0-9.95c0.196-3.379,1.196-10.135,2.287-13.338
					C4177.827,639.005,4186.342,624.774,4186.342,624.774z"/>
				<path style="fill:#4F2707;" d="M4333.823,519.974c0,0,1.293,21.198,2.286,28.201c0.603,4.236,3.432,16.768,3.432,16.768
					s-7.521-4.996-8.766-7.622c-2.186-4.615-0.452-15.336,0-20.421C4331.156,532.618,4333.823,519.974,4333.823,519.974z"/>
				<path style="fill:#4F2707;" d="M4343.731,549.778c0,0,1.668,8.831,1.907,11.814c0.205,2.563-0.895,7.875,0,10.29
					c1.035,2.799,8.002,8.842,8.002,8.842l6.477,4.115c0,0-0.838-7.476-1.522-9.879c-0.828-2.903-3.539-8.337-4.954-11.001
					c-0.852-1.605-3.811-6.177-3.811-6.177L4343.731,549.778z"/>
				<path style="fill:#4F2707;" d="M4364.588,570.507c0,0-0.289,8.375,0,11.147c0.367,3.528,2.305,11.025,5.058,13.258
					c4.271,3.462,16.632,5.508,21.724,3.429c2.343-0.955,7.24-7.074,7.24-7.074s-11.665-0.31-15.244-1.691
					c-4.357-1.682-11.434-8.274-14.482-11.814C4367.508,576.163,4364.588,570.507,4364.588,570.507z"/>
				<path style="fill:#4F2707;" d="M4393.654,601.908c0,0,9.066-1.456,11.814-2.733c2.029-0.947,5.467-4.108,7.621-4.723
					c3.208-0.914,13.339,0,13.339,0h12.195c0,0-7.306,3.859-9.909,4.723c-3.055,1.012-9.474,1.882-12.574,2.733
					c-2.653,0.729-7.922,2.635-10.672,2.668C4402.438,604.611,4393.654,601.908,4393.654,601.908z"/>
				<path style="fill:#4F2707;" d="M4438.624,601.146c0,0,5.579-5.734,8.003-6.693c1.686-0.666,5.579,0.322,7.24-0.404
					c2.764-1.208,6.545-7.804,9.527-7.383c1.055,0.148,2.546,2.367,2.508,3.429c-0.084,2.564-2.508,7.911-4.794,9.081
					c-3.562,1.822-12.017-0.301-16.007,0C4443.414,599.303,4438.624,601.146,4438.624,601.146z"/>
				<path style="fill:#4F2707;" d="M4259.321,434.865c-1.001-3.945,12.507-7.438,16.577-7.497
					c7.383-0.104,21.835,5.023,28.201,8.766c3.617,2.129,10.914,6.827,13.256,10.307c4.09,6.067,6.995,20.814,9.174,27.802
					c1.643,5.279,8.087,20.579,8.087,20.579s-13.827-17.17-17.261-23.628c-1.996-3.761-4.373-12.112-6.777-15.625
					c-3.479-5.086-13.381-13.231-19.056-15.625c-5.121-2.159-16.565-1.855-22.103-2.287c-1.808-0.14-6.26,0.831-8.066-0.063
					C4260.592,437.216,4259.528,435.69,4259.321,434.865z"/>
				<path style="fill:#4F2707;" d="M4256.462,443.755c-0.435-2.769-6.36-6.758-9.146-6.479c-4.025,0.402-10.963,5.889-13.34,9.164
					c-3.023,4.171-7.454,13.671-8.766,18.656c-1.563,5.951-2.297,18.322-3.346,24.39c-0.678,3.968-3.894,15.625-3.894,15.625
					s7.415-8.8,9.147-12.195c2.398-4.698,4.715-15.184,7.24-19.817c2.344-4.299,8.381-12.132,11.814-15.625
					C4249.18,454.417,4257.127,447.992,4256.462,443.755z"/>
				<g>
					<path style="fill:#CE3E80;" d="M4162.284,674.021c0.019-0.813,1.858-1.718,2.543-2.104c1.936-1.045,6.074-1.76,7.962-1.552
						c1.096,0.12,3.853,1.837,3.853,1.837s2.542,1.622,3.56,1.696c0.84,0.051,2.757-0.759,3.479-0.389
						c0.494,0.259,0.905,1.649,0.833,2.34c-0.196,1.89-2.827,5.577-4.341,6.696c-1.209,0.89-4.024,0.878-5.21,0.539
						c-1.244-0.354-3.019-2.463-4.017-3.29c-1.068-0.869-3.182-2.668-4.324-3.415
						C4165.584,675.697,4162.236,675.533,4162.284,674.021z"/>
					<path style="fill:#D84C93;" d="M4166.042,671.978c-1.283-1.769-6.776-0.193-8.765-1.11c-1.727-0.795-3.776-4.606-5.621-5.085
						c-1.34-0.354-4.579,0.524-5.437,1.688c-1.179,1.623-2.108,6.145-1.185,7.827c0.553,1.012,2.805,2.069,3.905,2.414
						c2.055,0.625,6.282,2.027,8.45,1.709c2.096-0.31,6.24-2.149,7.704-3.746C4165.744,674.968,4166.596,672.719,4166.042,671.978z"
						/>
				</g>
				<g>
					<path style="fill:#CE3E80;" d="M4465.479,583.208c0.086-1.278,3.037-2.579,4.139-3.142c3.115-1.516,9.67-2.363,12.621-1.908
						c1.713,0.256,5.939,3.141,5.939,3.141s3.882,2.721,5.484,2.903c1.315,0.137,4.379-1.009,5.492-0.381
						c0.76,0.443,1.308,2.656,1.154,3.736c-0.433,2.962-4.818,8.58-7.272,10.239c-1.952,1.322-6.384,1.114-8.224,0.503
						c-1.935-0.64-4.584-4.076-6.099-5.439c-1.623-1.438-4.827-4.406-6.579-5.66
						C4470.559,586.063,4465.307,585.581,4465.479,583.208z"/>
					<path style="fill:#D84C93;" d="M4471.529,580.242c-1.906-2.861-10.646-0.75-13.715-2.325c-2.658-1.364-5.627-7.487-8.49-8.366
						c-2.087-0.649-7.246,0.516-8.67,2.289c-1.957,2.475-3.719,9.522-2.381,12.228c0.809,1.631,4.275,3.439,5.983,4.059
						c3.188,1.119,9.739,3.602,13.169,3.245c3.316-0.346,9.957-2.965,12.365-5.374
						C4470.858,584.928,4472.344,581.451,4471.529,580.242z"/>
				</g>
				<path style="fill:#432300;" d="M4235.614,505.11c0,0,9.444-9.595,12.665-14.702c2.497-3.951,8.373-11.412,12.131-14.035
					c3.363-2.346,11.539-4.255,15.568-4.49c5.973-0.346,18.736,3.141,23.924,0c3.932-2.382,9.631-17.408,7.502-17.408
					s-28.957-14.583-38.884-12.35c-11.671,2.626-27.47,25.854-31.708,37.615C4234.117,487.22,4235.614,505.11,4235.614,505.11z"/>
			</g>
		</g>
	</g>
</g>
</svg>
