<svg id="Ñëîé_1" data-name="Ñëîé 1" xmlns="http://www.w3.org/2000/svg" viewBox="0 0 389.47 389.47"><defs><style>.cls-1{fill:#0f76b8;}.cls-2{fill:#d48655;}.cls-3{fill:#fff;}.cls-4{fill:#5f6d7a;}.cls-5{fill:#ffd8c7;opacity:0.54;}.cls-6{fill:#f99e64;}.cls-7{fill:#344757;}.cls-8{fill:#f9c16e;}.cls-9{fill:#b6a784;}.cls-10{fill:#f9b081;}.cls-11{fill:#b3564d;}</style></defs><circle class="cls-1" cx="222.26" cy="224.91" r="194.74" transform="translate(-121.47 192.86) rotate(-45)"/><path class="cls-2" d="M223.93,257.54c.6-7.15,1.21-9.73-1.27-11.56-3.49-2.3-10.33-.86-11.84,3.41-2,5.66,1.28,28.29-9,28.18l-40.51-38.69c-4-3.85-9.55-4.53-12.44-1.55s-2,8.55,2,12.4l28,27c-.45.35-.91.76-1.36,1.15l-34.41-33.2c-4-3.84-9.56-4.54-12.46-1.54s-2,8.54,2,12.39l33.8,32.61-.3.3c-.24.24-.43.46-.67.71l-31.26-30.17c-4-3.85-9.57-4.54-12.44-1.54s-2,8.54,2,12.38l31.75,30.64c-.22.29-.47.59-.71.88l-23.39-22.57c-2.5-2.41-6.86-2-9.74,1.06s-3.23,7.37-.73,9.78l43,41.92c.14.15,13.14,10.79,13.3,10.91a71.82,71.82,0,0,0,14.3,8.23c4.67,1.89,10.22-2.44,22.87-14.76,11.79-11.5,15.8-14.9,15.08-19.52a83.31,83.31,0,0,1-1.86-13C229.4,285.54,223.93,257.54,223.93,257.54Z" transform="translate(-27.53 -30.18)"/><polygon class="cls-3" points="214.1 290.13 168.36 333.51 162.31 327.11 208.03 283.73 214.1 290.13"/><polygon class="cls-4" points="247.55 322.84 196.92 370.88 163.44 335.58 214.07 287.52 247.55 322.84"/><path class="cls-5" d="M137.46,242.16a6.12,6.12,0,0,0-7.06,8,10.52,10.52,0,0,0,.86,1.09c2.85,3,6.94,3.78,9.18,1.68s1.73-6.23-1.12-9.26A9.46,9.46,0,0,0,137.46,242.16Z" transform="translate(-27.53 -30.18)"/><path class="cls-5" d="M155.26,236.29a6.13,6.13,0,0,0-7.07,8,10.42,10.42,0,0,0,.86,1.08c2.84,3,6.95,3.78,9.17,1.69s1.74-6.23-1.09-9.27A11,11,0,0,0,155.26,236.29Z" transform="translate(-27.53 -30.18)"/><path class="cls-5" d="M128.44,256.5a6.54,6.54,0,0,0-5.66,1.73,6.47,6.47,0,0,0-1.4,6.29,8,8,0,0,0,.88,1.08c2.83,3,6.93,3.79,9.16,1.7s1.73-6.24-1.11-9.26A9.4,9.4,0,0,0,128.44,256.5Z" transform="translate(-27.53 -30.18)"/><path class="cls-5" d="M127.75,278.54a6.14,6.14,0,0,0-7.08,8,11.16,11.16,0,0,0,.88,1.1c2.84,3,6.94,3.77,9.17,1.7s1.73-6.25-1.1-9.27A9.94,9.94,0,0,0,127.75,278.54Z" transform="translate(-27.53 -30.18)"/><path class="cls-5" d="M222.66,246a7.77,7.77,0,0,0-4.81-1c-2.77,5.15-1.79,11.19,2.41,13.81a7.82,7.82,0,0,0,3.45,1.16l.22-2.37C224.53,250.39,225.14,247.81,222.66,246Z" transform="translate(-27.53 -30.18)"/><path class="cls-6" d="M187.12,226.45c7.12.76,9.71,1.41,11.58-1,2.37-3.44,1.07-10.31-3.17-11.9-5.6-2.13-28.3.68-28-9.56l39.51-39.71c3.93-3.89,4.73-9.44,1.82-12.39s-8.52-2.19-12.45,1.72L168.91,181c-.35-.45-.75-.91-1.12-1.37l33.91-33.73c3.92-3.9,4.73-9.45,1.78-12.42s-8.49-2.18-12.42,1.74l-33.3,33.12-.29-.31-.7-.68,30.81-30.63c3.93-3.89,4.73-9.46,1.8-12.4s-8.5-2.19-12.43,1.71l-31.28,31.11-.87-.73,23-22.92c2.46-2.45,2.09-6.82-.85-9.76s-7.31-3.38-9.77-.93l-42.8,42.14c-.15.14-11.06,12.91-11.19,13.07a71.67,71.67,0,0,0-8.52,14.13c-2,4.63,2.23,10.26,14.29,23.17,11.24,12,14.56,16.12,19.2,15.48a82.76,82.76,0,0,1,13.07-1.59C159,231.34,187.12,226.45,187.12,226.45Z" transform="translate(-27.53 -30.18)"/><polygon class="cls-3" points="96.47 212.67 54.05 166.03 60.56 160.12 102.99 206.73 96.47 212.67"/><polygon class="cls-7" points="63.08 245.44 16.09 193.82 52.09 161.07 99.08 212.69 63.08 245.44"/><path class="cls-5" d="M204.29,140.33a6.12,6.12,0,0,0-7.86-7.23,8.21,8.21,0,0,0-1.11.83c-3.08,2.79-3.93,6.86-1.88,9.14s6.2,1.86,9.28-.92A9.2,9.2,0,0,0,204.29,140.33Z" transform="translate(-27.53 -30.18)"/><path class="cls-5" d="M209.79,158.23a6.15,6.15,0,0,0-7.87-7.23,9.26,9.26,0,0,0-1.11.84c-3.08,2.78-3.91,6.87-1.87,9.13s6.2,1.87,9.28-.9A10,10,0,0,0,209.79,158.23Z" transform="translate(-27.53 -30.18)"/><path class="cls-5" d="M190.13,131a6.13,6.13,0,0,0-7.86-7.23,7.89,7.89,0,0,0-1.11.86c-3.07,2.77-3.92,6.84-1.88,9.12s6.2,1.86,9.28-.91A9.07,9.07,0,0,0,190.13,131Z" transform="translate(-27.53 -30.18)"/><path class="cls-5" d="M168.11,129.86a6.15,6.15,0,0,0-7.86-7.25c-.37.27-.74.54-1.11.85-3.07,2.79-3.92,6.86-1.88,9.14s6.2,1.86,9.28-.9A9.9,9.9,0,0,0,168.11,129.86Z" transform="translate(-27.53 -30.18)"/><path class="cls-5" d="M198.7,225.42a7.75,7.75,0,0,0,1.15-4.78c-5.1-2.88-11.15-2-13.86,2.11a8,8,0,0,0-1.24,3.43l2.37.27C194.24,227.21,196.83,227.86,198.7,225.42Z" transform="translate(-27.53 -30.18)"/><path class="cls-8" d="M217.21,192c-1.08,7.1-1.85,9.64.49,11.63,3.33,2.51,10.25,1.54,12-2.62,2.38-5.5.62-28.3,10.84-27.5l37.84,41.29c3.71,4.11,9.21,5.17,12.3,2.39s2.58-8.4-1.15-12.51l-26.1-28.77c.47-.32.95-.7,1.43-1.05L297,210.28c3.72,4.09,9.23,5.16,12.33,2.35s2.57-8.38-1.17-12.5l-31.55-34.78.33-.27.7-.68,29.19,32.19c3.7,4.11,9.23,5.17,12.3,2.37s2.58-8.39-1.13-12.49l-29.64-32.69.76-.83L311,177c2.33,2.57,6.71,2.39,9.79-.41s3.71-7.14,1.38-9.71L282,122.23c-.14-.17-12.39-11.65-12.54-11.79a72,72,0,0,0-13.73-9.16c-4.53-2.2-10.35,1.76-23.79,13.2-12.54,10.68-16.78,13.81-16.36,18.47a84.39,84.39,0,0,1,1,13.13C213.62,163.7,217.21,192,217.21,192Z" transform="translate(-27.53 -30.18)"/><polygon class="cls-3" points="176.22 98.01 224.75 57.79 230.36 64.57 181.85 104.79 176.22 98.01"/><polygon class="cls-9" points="145.02 63.14 198.75 18.59 229.8 56.05 176.07 100.62 145.02 63.14"/><path class="cls-5" d="M302.45,213.11A6.12,6.12,0,0,0,310,205.6a8.32,8.32,0,0,0-.79-1.14c-2.64-3.21-6.67-4.24-9-2.31s-2.14,6.12.49,9.32A9,9,0,0,0,302.45,213.11Z" transform="translate(-27.53 -30.18)"/><path class="cls-5" d="M284.31,217.79a6.15,6.15,0,0,0,7.59-7.54,9.67,9.67,0,0,0-.79-1.13c-2.63-3.21-6.68-4.23-9-2.3s-2.14,6.12.48,9.32A10.49,10.49,0,0,0,284.31,217.79Z" transform="translate(-27.53 -30.18)"/><path class="cls-5" d="M312.41,199.41a6.13,6.13,0,0,0,7.59-7.52,8,8,0,0,0-.81-1.15c-2.63-3.2-6.67-4.24-9-2.3s-2.14,6.11.49,9.31A9.49,9.49,0,0,0,312.41,199.41Z" transform="translate(-27.53 -30.18)"/><path class="cls-5" d="M314.58,177.46a6.15,6.15,0,0,0,7.6-7.52,13.86,13.86,0,0,0-.8-1.14c-2.64-3.2-6.67-4.24-9-2.31s-2.14,6.12.47,9.32A10.12,10.12,0,0,0,314.58,177.46Z" transform="translate(-27.53 -30.18)"/><path class="cls-5" d="M217.7,203.62a7.9,7.9,0,0,0,4.73,1.36c3.11-5,2.54-11-1.47-13.94a8.05,8.05,0,0,0-3.37-1.4c-.24,1.5-.38,2.35-.38,2.35C216.13,199.09,215.36,201.63,217.7,203.62Z" transform="translate(-27.53 -30.18)"/><path class="cls-10" d="M257.72,227.16c-7.17-.15-9.8-.59-11.46,2-2.07,3.64-.2,10.36,4.16,11.6,5.77,1.65,28.14-3.07,28.68,7.17l-36,42.89c-3.59,4.21-3.92,9.81-.76,12.51s8.67,1.46,12.26-2.78l25.11-29.61c.39.41.84.85,1.24,1.27L250,308.66c-3.58,4.23-3.92,9.82-.74,12.53s8.65,1.45,12.24-2.78l30.38-35.81.32.29c.26.2.48.39.75.61l-28.11,33.12c-3.58,4.21-3.91,9.83-.75,12.51s8.66,1.46,12.24-2.75l28.55-33.63.92.63-21,24.79c-2.23,2.65-1.5,7,1.69,9.66s7.56,2.75,9.81.1l39.09-45.6c.13-.16,9.93-13.8,10-14a71.46,71.46,0,0,0,7.3-14.79c1.58-4.79-3.09-10-16.19-21.88-12.22-11-15.87-14.84-20.44-13.81a84.32,84.32,0,0,1-12.89,2.69C285.3,219.91,257.72,227.16,257.72,227.16Z" transform="translate(-27.53 -30.18)"/><polygon class="cls-3" points="291.7 175.32 337.9 218.19 331.91 224.65 285.7 181.78 291.7 175.32"/><polygon class="cls-11" points="322.2 139.84 373.38 187.31 340.28 222.98 289.09 175.51 322.2 139.84"/><path class="cls-5" d="M247.88,314.42a6.13,6.13,0,0,0,8.44,6.55,10,10,0,0,0,1-.94c2.84-3,3.33-7.16,1.1-9.27s-6.33-1.32-9.17,1.71A9.12,9.12,0,0,0,247.88,314.42Z" transform="translate(-27.53 -30.18)"/><path class="cls-5" d="M240.89,297a6.13,6.13,0,0,0,8.45,6.55,9.85,9.85,0,0,0,1-.94c2.83-3,3.32-7.17,1.09-9.25s-6.33-1.34-9.17,1.68A9.82,9.82,0,0,0,240.89,297Z" transform="translate(-27.53 -30.18)"/><path class="cls-5" d="M262.77,322.51a6.13,6.13,0,0,0,8.45,6.54,10.08,10.08,0,0,0,1-.95c2.82-3,3.33-7.16,1.1-9.24s-6.33-1.34-9.17,1.68A9.14,9.14,0,0,0,262.77,322.51Z" transform="translate(-27.53 -30.18)"/><path class="cls-5" d="M284.81,321.79a6.14,6.14,0,0,0,8.44,6.56c.35-.29.7-.6,1-.93,2.82-3,3.33-7.18,1.1-9.28s-6.34-1.32-9.17,1.69A9.13,9.13,0,0,0,284.81,321.79Z" transform="translate(-27.53 -30.18)"/><path class="cls-5" d="M246.26,229.15a7.86,7.86,0,0,0-.74,4.88c5.32,2.43,11.29,1.07,13.62-3.28a7.89,7.89,0,0,0,.95-3.52l-2.37-.07C250.55,227,247.92,226.57,246.26,229.15Z" transform="translate(-27.53 -30.18)"/></svg>